<svg xmlns="http://www.w3.org/2000/svg" width="661" height="414" fill="none" xmlns:v="https://vecta.io/nano"><rect x=".888" y=".888" width="659.223" height="412.223" rx="20.434" fill="#fff" stroke="#ede3ff" stroke-width="1.777"/><path d="M40.434 140.256v13.156h-1.991v-11.165h-.077l-3.148 2.056v-1.902l3.283-2.145h1.934zm58.428 13.156v-1.439l4.452-4.612 1.176-1.317c.312-.381.546-.743.7-1.086s.231-.707.231-1.092c0-.437-.103-.814-.308-1.131s-.486-.567-.842-.738a2.67 2.67 0 0 0-1.201-.264c-.471 0-.882.097-1.233.289s-.621.465-.81.816-.283.763-.283 1.234h-1.895c0-.801.184-1.501.552-2.101s.873-1.064 1.516-1.394 1.372-.501 2.19-.501c.827 0 1.555.165 2.185.495s1.128.77 1.484 1.336a3.48 3.48 0 0 1 .533 1.901 3.88 3.88 0 0 1-.276 1.433c-.18.467-.495.987-.945 1.561s-1.075 1.261-1.876 2.075l-2.614 2.736v.097h5.923v1.702h-8.66zm68 .18c-.882 0-1.67-.152-2.364-.456-.689-.304-1.235-.726-1.638-1.266a3.36 3.36 0 0 1-.642-1.888h2.017a1.74 1.74 0 0 0 .392 1.015c.24.282.552.501.938.655s.814.231 1.285.231c.518 0 .976-.09 1.374-.27a2.24 2.24 0 0 0 .945-.751c.227-.326.34-.7.34-1.124 0-.442-.113-.829-.34-1.163s-.551-.604-.983-.797-.947-.289-1.555-.289h-1.111v-1.619h1.111c.488 0 .917-.087 1.285-.263s.664-.42.874-.732.314-.688.314-1.112c0-.407-.092-.76-.276-1.06s-.437-.541-.771-.713-.719-.257-1.169-.257c-.428 0-.829.079-1.201.238s-.668.377-.9.668-.355.632-.372 1.034h-1.921a3.24 3.24 0 0 1 .63-1.875 4.06 4.06 0 0 1 1.593-1.266c.659-.304 1.392-.456 2.197-.456.844 0 1.572.165 2.184.495s1.092.76 1.426 1.304a3.31 3.31 0 0 1 .501 1.785c.004.737-.201 1.362-.617 1.876s-.959.859-1.644 1.035v.102c.874.133 1.55.48 2.03 1.041s.724 1.257.719 2.088c.005.724-.197 1.372-.603 1.946s-.953 1.026-1.651 1.356-1.497.488-2.397.488zm58.565-2.749v-1.606l5.685-8.981h1.266v2.364h-.803l-4.067 6.437v.102h7.792v1.684h-9.873zm6.238 2.569v-3.058l.012-.732v-9.366h1.883v13.156h-1.895zm61.801.18c-.806 0-1.529-.154-2.172-.463-.638-.312-1.147-.74-1.529-1.284s-.584-1.165-.61-1.863h1.927c.047.565.298 1.03.752 1.394s.998.546 1.632.546c.505 0 .952-.116 1.342-.347s.703-.559.925-.97.341-.88.341-1.407c0-.535-.116-1.013-.347-1.433s-.55-.749-.957-.989a2.7 2.7 0 0 0-1.388-.366 3.68 3.68 0 0 0-1.201.206c-.403.137-.728.316-.977.539l-1.818-.27.739-6.629h7.234v1.702h-5.583l-.417 3.681h.077c.257-.248.597-.456 1.021-.623a3.75 3.75 0 0 1 1.375-.251c.801 0 1.514.191 2.139.572s1.124.902 1.484 1.561.544 1.409.54 2.261c.004.853-.189 1.613-.579 2.281a4.21 4.21 0 0 1-1.606 1.58c-.686.385-1.462.572-2.344.572zm63.67 0c-.587-.009-1.165-.116-1.734-.321s-1.08-.548-1.542-1.028-.833-1.124-1.112-1.934-.411-1.82-.411-3.032c0-1.148.114-2.167.341-3.058s.563-1.642.995-2.254.956-1.086 1.568-1.407 1.3-.482 2.062-.482c.784 0 1.48.154 2.088.462s1.101.735 1.477 1.279a4.26 4.26 0 0 1 .726 1.856h-1.959c-.133-.548-.396-.995-.79-1.342s-.908-.521-1.542-.521c-.964 0-1.715.42-2.255 1.259s-.805 2.007-.809 3.502h.096c.227-.373.506-.69.835-.951s.707-.469 1.118-.61a3.92 3.92 0 0 1 1.311-.219c.762 0 1.451.186 2.068.559s1.116.878 1.484 1.529.553 1.396.553 2.235a4.59 4.59 0 0 1-.572 2.281 4.19 4.19 0 0 1-1.593 1.619c-.686.394-1.486.587-2.403.578zm-.006-1.67c.505 0 .957-.124 1.355-.373a2.69 2.69 0 0 0 .944-1.002 2.86 2.86 0 0 0 .347-1.407 2.83 2.83 0 0 0-.34-1.381c-.223-.415-.531-.745-.925-.989s-.835-.366-1.336-.366c-.382 0-.735.072-1.06.218a2.69 2.69 0 0 0-.848.604 2.95 2.95 0 0 0-.579.886c-.137.33-.205.679-.205 1.047 0 .493.113.949.34 1.369a2.8 2.8 0 0 0 .945 1.015 2.51 2.51 0 0 0 1.362.379zm59.276 1.49l5.743-11.358v-.096h-6.642v-1.702h8.698v1.76l-5.724 11.396h-2.075zM39.535 196.048c-.921 0-1.735-.158-2.441-.475s-1.253-.754-1.651-1.311a3.15 3.15 0 0 1-.591-1.901 3.36 3.36 0 0 1 .34-1.536c.231-.467.555-.863.957-1.175a2.97 2.97 0 0 1 1.349-.604v-.077a2.66 2.66 0 0 1-1.574-1.054 3.08 3.08 0 0 1-.585-1.876c-.004-.672.173-1.272.533-1.798a3.72 3.72 0 0 1 1.497-1.253c.634-.304 1.355-.456 2.165-.456.801 0 1.516.154 2.146.462s1.133.722 1.497 1.253a3.12 3.12 0 0 1 .552 1.792c-.004.707-.205 1.332-.604 1.876a2.68 2.68 0 0 1-1.555 1.054v.077a2.88 2.88 0 0 1 1.33.604c.398.312.715.704.951 1.175a3.37 3.37 0 0 1 .366 1.536 3.22 3.22 0 0 1-.604 1.901c-.398.557-.951.994-1.657 1.311s-1.51.475-2.422.475zm0-1.625c.544 0 1.015-.09 1.413-.27s.707-.439.925-.765a2.08 2.08 0 0 0 .334-1.156 2.16 2.16 0 0 0-.36-1.214 2.41 2.41 0 0 0-.944-.829c-.398-.201-.854-.302-1.368-.302s-.979.101-1.381.302a2.4 2.4 0 0 0-.951.829 2.12 2.12 0 0 0-.34 1.214c-.004.441.101.827.315 1.156s.529.581.931.765.878.27 1.426.27zm0-6.122c.437 0 .824-.088 1.163-.264s.604-.419.797-.732.298-.679.302-1.099a2.04 2.04 0 0 0-.295-1.079 1.88 1.88 0 0 0-.79-.713c-.338-.171-.73-.257-1.176-.257-.454 0-.852.086-1.195.257a1.88 1.88 0 0 0-.79.713c-.188.309-.281.668-.276 1.079-.004.42.09.786.283 1.099a1.99 1.99 0 0 0 .796.732c.338.175.737.264 1.182.264zm63.349-5.769c.587.004 1.165.111 1.735.321a4.11 4.11 0 0 1 1.542 1.028c.459.475.83 1.118 1.105 1.927s.419 1.807.424 3.007c0 1.152-.116 2.177-.347 3.077s-.563 1.651-.996 2.267-.949 1.086-1.561 1.407-1.302.482-2.069.482c-.783 0-1.479-.154-2.087-.462s-1.103-.735-1.484-1.279-.619-1.178-.713-1.889h1.959c.128.566.39 1.024.784 1.375s.912.521 1.541.521c.964 0 1.716-.42 2.255-1.26s.812-2.021.816-3.533h-.103a3.54 3.54 0 0 1-.835.951 3.76 3.76 0 0 1-1.111.617 3.93 3.93 0 0 1-1.317.218c-.758 0-1.448-.186-2.069-.559s-1.115-.884-1.484-1.535-.552-1.394-.552-2.229.188-1.585.565-2.261.912-1.212 1.593-1.606c.686-.399 1.489-.594 2.409-.585zm.007 1.67c-.501 0-.953.124-1.356.373a2.64 2.64 0 0 0-.944.995c-.231.416-.347.878-.347 1.388a2.9 2.9 0 0 0 .334 1.388c.227.411.536.738.925.983a2.55 2.55 0 0 0 1.349.359c.377 0 .728-.073 1.054-.218a2.68 2.68 0 0 0 .854-.604 2.94 2.94 0 0 0 .572-.887 2.68 2.68 0 0 0 .206-1.04 2.73 2.73 0 0 0-.347-1.349c-.227-.416-.54-.75-.938-1.002a2.46 2.46 0 0 0-1.362-.386zm64.032-1.49v13.156h-1.991v-11.165h-.078l-3.147 2.056v-1.902l3.282-2.145h1.934zm8.139 13.375c-1.015-.005-1.882-.272-2.602-.803s-1.269-1.304-1.65-2.319-.572-2.238-.572-3.669c0-1.426.19-2.644.572-3.655s.937-1.781 1.657-2.312 1.589-.797 2.595-.797 1.87.268 2.589.803 1.27 1.302 1.651 2.313.578 2.222.578 3.648c0 1.435-.19 2.66-.572 3.675s-.931 1.784-1.65 2.319-1.585.797-2.596.797zm0-1.716c.891 0 1.587-.434 2.088-1.304s.758-2.126.758-3.771c0-1.092-.116-2.015-.347-2.768s-.554-1.332-.983-1.722a2.15 2.15 0 0 0-1.516-.591c-.886 0-1.582.437-2.088 1.311s-.76 2.13-.764 3.77c0 1.097.113 2.024.34 2.782s.559 1.325.983 1.715a2.19 2.19 0 0 0 1.529.578zm55.28-11.659v13.156h-1.991v-11.165h-.078l-3.147 2.056v-1.902l3.282-2.145h1.934zm8.55 0v13.156h-1.991v-11.165h-.077l-3.148 2.056v-1.902l3.283-2.145h1.933zm54.87 0v13.156h-1.992v-11.165h-.077l-3.147 2.056v-1.902l3.282-2.145h1.934zm3.559 13.156v-1.439l4.452-4.612 1.175-1.317a4.92 4.92 0 0 0 .7-1.086c.155-.342.232-.706.232-1.092 0-.437-.103-.814-.309-1.131a2.01 2.01 0 0 0-.841-.738c-.356-.176-.756-.264-1.202-.264-.471 0-.882.097-1.233.289a1.98 1.98 0 0 0-.809.816c-.189.351-.283.763-.283 1.234h-1.895c0-.801.184-1.501.552-2.101a3.75 3.75 0 0 1 1.516-1.394c.642-.33 1.373-.501 2.191-.501.827 0 1.555.165 2.184.495a3.7 3.7 0 0 1 1.484 1.336c.356.561.533 1.195.533 1.901a3.88 3.88 0 0 1-.276 1.433c-.18.467-.495.987-.944 1.561-.45.569-1.075 1.261-1.876 2.075l-2.615 2.736v.097h5.923v1.702h-8.659z" fill="#000"/><circle cx="360.551" cy="188.501" r="17.617" fill="#90f"/><path d="M357.182 182.712v13.156h-1.992v-11.165h-.077l-3.148 2.056v-1.902l3.283-2.145h1.934zm8.139 13.336c-.882 0-1.67-.152-2.364-.456s-1.236-.726-1.638-1.266-.613-1.173-.643-1.888h2.018c.025.389.156.728.391 1.015.24.282.553.501.938.655s.814.231 1.285.231c.518 0 .977-.09 1.375-.27s.717-.43.944-.751c.227-.326.341-.7.341-1.124a2.02 2.02 0 0 0-.341-1.163c-.222-.338-.55-.604-.983-.797s-.946-.289-1.554-.289h-1.112v-1.619h1.112c.488 0 .916-.087 1.285-.263s.663-.42.873-.732.315-.688.315-1.112c0-.407-.092-.76-.276-1.06s-.437-.541-.771-.713-.72-.257-1.169-.257c-.429 0-.829.08-1.202.238s-.668.377-.899.668-.355.632-.373 1.034h-1.92c.021-.711.231-1.336.629-1.875.403-.54.934-.962 1.593-1.266s1.392-.456 2.197-.456c.844 0 1.572.165 2.185.495s1.092.76 1.426 1.304a3.28 3.28 0 0 1 .501 1.786c.004.736-.202 1.361-.617 1.875s-.959.859-1.644 1.035v.102c.873.133 1.55.48 2.029 1.041s.724 1.257.72 2.088c.004.724-.197 1.372-.604 1.946s-.953 1.026-1.651 1.356c-.698.325-1.497.488-2.396.488z" fill="#fff"/><path d="M421.307 182.712v13.156h-1.992v-11.165h-.077l-3.148 2.056v-1.902l3.283-2.145h1.934zm3.282 10.587v-1.606l5.686-8.981h1.265v2.364h-.803l-4.066 6.437v.102h7.792v1.684h-9.874zm6.238 2.569v-3.058l.013-.732v-9.366h1.882v13.156h-1.895zM40.434 225.169v13.156h-1.991V227.16h-.077l-3.148 2.056v-1.902l3.283-2.145h1.934zm7.902 13.336c-.805 0-1.529-.154-2.171-.462s-1.148-.741-1.529-1.285-.584-1.165-.61-1.863h1.927c.047.565.298 1.03.752 1.394s.998.546 1.632.546c.505 0 .953-.116 1.343-.347a2.49 2.49 0 0 0 .925-.97c.223-.411.34-.88.34-1.407 0-.535-.116-1.013-.347-1.433s-.55-.749-.957-.989a2.71 2.71 0 0 0-1.387-.366 3.71 3.71 0 0 0-1.201.206c-.403.137-.728.317-.977.539l-1.818-.27.739-6.629h7.233v1.702h-5.582l-.418 3.681h.077c.257-.248.597-.456 1.021-.623a3.75 3.75 0 0 1 1.375-.251c.801 0 1.514.191 2.139.572s1.124.902 1.484 1.561.544 1.409.54 2.262c.004.852-.188 1.612-.578 2.28s-.921 1.195-1.606 1.58-1.462.572-2.345.572zm55.518-13.336v13.156h-1.992V227.16h-.077l-3.148 2.056v-1.902l3.283-2.145h1.934zm8.152 13.336a5.31 5.31 0 0 1-1.735-.321c-.565-.206-1.079-.548-1.542-1.028s-.832-1.124-1.111-1.934c-.274-.809-.411-1.82-.411-3.032 0-1.147.113-2.167.34-3.058s.564-1.642.996-2.254.955-1.086 1.568-1.407 1.299-.482 2.062-.482c.783 0 1.479.154 2.088.462a3.93 3.93 0 0 1 1.477 1.279c.381.544.623 1.163.726 1.856h-1.959c-.133-.548-.396-.995-.79-1.342s-.908-.521-1.542-.521c-.964 0-1.715.42-2.255 1.26s-.805 2.006-.81 3.501h.097c.227-.373.505-.69.835-.951a3.78 3.78 0 0 1 1.118-.61 3.92 3.92 0 0 1 1.31-.219c.763 0 1.452.186 2.069.559s1.115.878 1.484 1.529.552 1.396.552 2.236-.19 1.599-.572 2.28c-.376.681-.907 1.221-1.593 1.619s-1.486.587-2.402.578zm-.007-1.67c.506 0 .957-.124 1.356-.373a2.68 2.68 0 0 0 .944-1.002 2.87 2.87 0 0 0 .347-1.407 2.83 2.83 0 0 0-.34-1.381c-.223-.415-.532-.745-.926-.989-.389-.244-.835-.366-1.336-.366a2.56 2.56 0 0 0-1.06.218 2.7 2.7 0 0 0-.848.604 2.95 2.95 0 0 0-.578.886c-.137.33-.205.679-.205 1.048a2.83 2.83 0 0 0 .34 1.368 2.79 2.79 0 0 0 .944 1.015c.403.252.857.379 1.362.379zm55.275-11.666v13.156h-1.992V227.16h-.077l-3.148 2.056v-1.902l3.283-2.145h1.934zm4.002 13.156l5.743-11.357v-.097h-6.643v-1.702h8.698v1.76l-5.723 11.396h-2.075zm59.418-13.156v13.156h-1.991V227.16h-.077l-3.148 2.056v-1.902l3.283-2.145h1.933zm8.005 13.336c-.921 0-1.735-.158-2.441-.475s-1.253-.754-1.651-1.311a3.14 3.14 0 0 1-.591-1.901c-.005-.557.109-1.069.34-1.536s.555-.863.957-1.175.853-.518 1.349-.604v-.077c-.655-.159-1.179-.51-1.573-1.054s-.589-1.169-.585-1.876c-.004-.672.173-1.271.533-1.798a3.72 3.72 0 0 1 1.497-1.253c.634-.304 1.355-.456 2.165-.456.801 0 1.516.154 2.145.462s1.133.722 1.497 1.253a3.12 3.12 0 0 1 .553 1.792c-.005.707-.206 1.332-.604 1.876a2.68 2.68 0 0 1-1.555 1.054v.077c.493.086.936.287 1.33.604s.715.704.951 1.175a3.43 3.43 0 0 1 .366 1.536 3.22 3.22 0 0 1-.604 1.901c-.398.557-.951.994-1.657 1.311s-1.51.475-2.422.475zm0-1.625c.544 0 1.015-.09 1.413-.27a2.16 2.16 0 0 0 .925-.764c.219-.33.33-.716.334-1.157a2.16 2.16 0 0 0-.36-1.214 2.41 2.41 0 0 0-.944-.829c-.398-.201-.854-.302-1.368-.302s-.979.101-1.381.302-.72.478-.951.829-.345.756-.341 1.214c-.004.441.101.827.315 1.157.219.325.529.58.932.764s.878.27 1.426.27zm0-6.122c.437 0 .824-.088 1.163-.264a1.99 1.99 0 0 0 .796-.732c.197-.313.298-.679.302-1.099a2.04 2.04 0 0 0-.295-1.079 1.88 1.88 0 0 0-.791-.713 2.57 2.57 0 0 0-1.175-.257c-.454 0-.852.086-1.195.257s-.602.405-.79.713-.281.668-.276 1.079c-.005.42.089.786.282 1.099s.458.557.797.732.736.264 1.182.264zm55.415-5.589v13.156h-1.991V227.16h-.077l-3.148 2.056v-1.902l3.283-2.145h1.933zm7.934-.18c.587.004 1.165.111 1.735.321s1.083.553 1.541 1.028.831 1.118 1.105 1.927.42 1.807.424 3.007c0 1.152-.115 2.177-.347 3.077s-.563 1.651-.995 2.267-.949 1.086-1.561 1.407-1.302.482-2.069.482c-.784 0-1.48-.154-2.088-.462s-1.103-.735-1.484-1.279-.619-1.178-.713-1.888h1.96c.128.565.389 1.023.783 1.374s.912.521 1.542.521c.964 0 1.715-.42 2.255-1.26s.811-2.021.816-3.533h-.103a3.54 3.54 0 0 1-.835.951 3.75 3.75 0 0 1-1.112.617 3.93 3.93 0 0 1-1.316.218c-.759 0-1.448-.186-2.069-.559a4.12 4.12 0 0 1-1.484-1.535c-.368-.651-.552-1.394-.552-2.229s.188-1.585.565-2.261.912-1.212 1.593-1.606 1.488-.594 2.409-.585zm.006 1.67c-.501 0-.952.124-1.355.373s-.713.576-.944.996-.347.877-.347 1.387.111.972.334 1.388.535.738.925.983a2.55 2.55 0 0 0 1.349.359c.377 0 .728-.073 1.053-.218a2.67 2.67 0 0 0 .855-.604 2.95 2.95 0 0 0 .572-.886 2.69 2.69 0 0 0 .205-1.041 2.72 2.72 0 0 0-.347-1.349c-.227-.416-.539-.75-.938-1.002a2.5 2.5 0 0 0-1.362-.386zm50.489 11.666v-1.439l4.452-4.612 1.175-1.317c.313-.381.546-.743.701-1.086a2.63 2.63 0 0 0 .231-1.092c0-.437-.103-.814-.309-1.131a2.01 2.01 0 0 0-.841-.738c-.356-.176-.756-.264-1.201-.264-.471 0-.883.097-1.234.289a1.98 1.98 0 0 0-.809.816c-.189.351-.283.763-.283 1.234h-1.895c0-.801.184-1.501.552-2.101s.874-1.064 1.517-1.394 1.372-.501 2.19-.501c.827 0 1.555.165 2.184.495a3.7 3.7 0 0 1 1.484 1.336c.356.561.533 1.195.533 1.901 0 .489-.092.966-.276 1.433s-.494.987-.944 1.561c-.45.569-1.075 1.261-1.876 2.075l-2.615 2.736v.097h5.923v1.702h-8.659zm15.674.219c-1.015-.005-1.882-.272-2.601-.803s-1.27-1.304-1.651-2.319-.572-2.238-.572-3.669c0-1.426.191-2.644.572-3.655s.938-1.781 1.657-2.312 1.589-.797 2.595-.797 1.87.268 2.589.803 1.27 1.302 1.651 2.313.578 2.222.578 3.648c0 1.435-.19 2.66-.571 3.675s-.932 1.784-1.651 2.319-1.585.797-2.596.797zm0-1.716c.891 0 1.587-.434 2.088-1.304s.758-2.126.758-3.771c0-1.092-.115-2.015-.347-2.768s-.554-1.332-.982-1.722a2.15 2.15 0 0 0-1.517-.591c-.886 0-1.582.437-2.087 1.311s-.761 2.13-.765 3.77c0 1.097.114 2.024.341 2.782s.559 1.326.983 1.715.933.578 1.528.578zm47.746 1.497v-1.439l4.452-4.612 1.175-1.317a4.92 4.92 0 0 0 .7-1.086c.155-.342.232-.706.232-1.092 0-.437-.103-.814-.309-1.131a2.01 2.01 0 0 0-.841-.738c-.356-.176-.756-.264-1.201-.264-.472 0-.883.097-1.234.289a1.98 1.98 0 0 0-.809.816c-.189.351-.283.763-.283 1.234h-1.895c0-.801.184-1.501.552-2.101a3.75 3.75 0 0 1 1.516-1.394c.642-.33 1.373-.501 2.191-.501.827 0 1.555.165 2.184.495a3.7 3.7 0 0 1 1.484 1.336c.356.561.533 1.195.533 1.901 0 .489-.092.966-.276 1.433s-.495.987-.944 1.561c-.45.569-1.075 1.261-1.876 2.075l-2.615 2.736v.097h5.923v1.702h-8.659zm16.086-13.156v13.156h-1.992V227.16h-.077l-3.148 2.056v-1.902l3.283-2.145h1.934zM35.442 280.781v-1.439l4.452-4.612 1.176-1.317a4.92 4.92 0 0 0 .7-1.086 2.63 2.63 0 0 0 .231-1.092c0-.437-.103-.814-.308-1.13-.206-.322-.486-.568-.841-.739a2.67 2.67 0 0 0-1.201-.264c-.471 0-.882.097-1.233.289s-.621.465-.809.816-.283.763-.283 1.234h-1.895c0-.801.184-1.501.553-2.101s.874-1.064 1.516-1.394 1.373-.501 2.191-.501c.826 0 1.555.165 2.184.495s1.128.771 1.484 1.336.533 1.195.533 1.901a3.87 3.87 0 0 1-.276 1.433c-.18.467-.495.987-.944 1.561s-1.075 1.261-1.876 2.075l-2.615 2.737v.096h5.923v1.702h-8.659zm11.094 0v-1.439l4.452-4.612 1.176-1.317a4.92 4.92 0 0 0 .7-1.086 2.63 2.63 0 0 0 .231-1.092c0-.437-.103-.814-.308-1.13a2.01 2.01 0 0 0-.842-.739 2.67 2.67 0 0 0-1.201-.264c-.471 0-.882.097-1.233.289s-.621.465-.809.816-.283.763-.283 1.234h-1.895c0-.801.184-1.501.553-2.101s.874-1.064 1.516-1.394 1.373-.501 2.191-.501c.827 0 1.555.165 2.184.495s1.129.771 1.484 1.336a3.49 3.49 0 0 1 .533 1.901c0 .489-.092.966-.276 1.433s-.495.987-.944 1.561-1.075 1.261-1.876 2.075l-2.614 2.737v.096h5.923v1.702h-8.66zm52.326 0v-1.439l4.452-4.612 1.176-1.317c.312-.381.546-.743.7-1.086a2.63 2.63 0 0 0 .231-1.092c0-.437-.103-.814-.308-1.13a2.01 2.01 0 0 0-.842-.739 2.67 2.67 0 0 0-1.201-.264c-.471 0-.882.097-1.233.289s-.621.465-.81.816-.283.763-.283 1.234h-1.895c0-.801.184-1.501.552-2.101s.873-1.064 1.516-1.394 1.372-.501 2.19-.501c.827 0 1.555.165 2.185.495s1.128.771 1.484 1.336a3.48 3.48 0 0 1 .533 1.901c0 .489-.092.966-.276 1.433s-.495.987-.945 1.561-1.075 1.261-1.876 2.075l-2.614 2.737v.096h5.923v1.702h-8.66zm15.675.18c-.882 0-1.67-.152-2.364-.456s-1.236-.726-1.638-1.266a3.35 3.35 0 0 1-.643-1.888h2.017c.026.39.157.728.392 1.015s.553.501.938.655.814.231 1.285.231c.518 0 .976-.09 1.375-.269s.717-.431.944-.752.34-.7.34-1.124c0-.441-.113-.829-.34-1.163s-.55-.604-.983-.797c-.428-.192-.946-.289-1.554-.289h-1.112v-1.619h1.112c.488 0 .916-.087 1.284-.263s.664-.42.874-.732.315-.688.315-1.112c0-.406-.092-.76-.276-1.06s-.437-.541-.771-.713-.72-.257-1.17-.257c-.428 0-.828.08-1.201.238s-.668.377-.899.668a1.72 1.72 0 0 0-.373 1.034h-1.921a3.25 3.25 0 0 1 .63-1.875c.403-.54.934-.962 1.593-1.266s1.392-.456 2.197-.456c.844 0 1.572.165 2.184.495s1.092.76 1.426 1.304a3.27 3.27 0 0 1 .502 1.786c.004.736-.202 1.361-.617 1.875a2.99 2.99 0 0 1-1.645 1.035v.102c.874.133 1.551.48 2.03 1.041s.724 1.257.72 2.088c.004.724-.197 1.373-.604 1.946s-.953 1.026-1.651 1.356-1.497.488-2.396.488zm47.745-.18v-1.439l4.452-4.612 1.176-1.317c.312-.381.546-.743.7-1.086a2.63 2.63 0 0 0 .231-1.092c0-.437-.103-.814-.308-1.13a2.01 2.01 0 0 0-.842-.739 2.67 2.67 0 0 0-1.201-.264c-.471 0-.882.097-1.234.289a1.98 1.98 0 0 0-.809.816c-.188.352-.283.763-.283 1.234h-1.895c0-.801.184-1.501.553-2.101a3.75 3.75 0 0 1 1.516-1.394c.642-.334 1.372-.501 2.19-.501.827 0 1.555.165 2.185.495s1.128.771 1.484 1.336a3.48 3.48 0 0 1 .533 1.901c0 .489-.092.966-.277 1.433-.179.467-.494.987-.944 1.561s-1.075 1.261-1.876 2.075l-2.614 2.737v.096h5.923v1.702h-8.66zm10.536-2.569v-1.606l5.685-8.981h1.265v2.364h-.803l-4.066 6.437v.103h7.792v1.683h-9.873zm6.237 2.569v-3.058l.013-.732v-9.366h1.882v13.156h-1.895zm46.648 0v-1.439l4.452-4.612 1.175-1.317c.313-.381.546-.743.701-1.086a2.63 2.63 0 0 0 .231-1.092c0-.437-.103-.814-.308-1.13a2.01 2.01 0 0 0-.842-.739 2.67 2.67 0 0 0-1.201-.264c-.471 0-.882.097-1.234.289a1.98 1.98 0 0 0-.809.816c-.189.352-.283.763-.283 1.234h-1.895c0-.801.184-1.501.553-2.101a3.75 3.75 0 0 1 1.516-1.394c.642-.334 1.372-.501 2.19-.501.827 0 1.555.165 2.184.495s1.129.771 1.484 1.336a3.49 3.49 0 0 1 .534 1.901c0 .489-.092.966-.277 1.433s-.494.987-.944 1.561-1.075 1.261-1.876 2.075l-2.614 2.737v.096h5.923v1.702h-8.66zm15.437.18c-.805 0-1.529-.154-2.171-.462s-1.148-.741-1.529-1.285-.585-1.165-.611-1.863h1.928c.047.565.297 1.03.751 1.394s.998.546 1.632.546c.505 0 .953-.116 1.343-.347a2.49 2.49 0 0 0 .925-.97c.223-.411.34-.88.34-1.407 0-.535-.116-1.013-.347-1.432a2.56 2.56 0 0 0-.957-.99 2.7 2.7 0 0 0-1.388-.366c-.398 0-.798.069-1.201.206s-.728.317-.976.539l-1.818-.27.738-6.629h7.234v1.702h-5.583l-.417 3.681h.077c.257-.248.597-.456 1.021-.623s.887-.25 1.375-.25c.801 0 1.514.19 2.139.571s1.124.902 1.484 1.561.544 1.409.54 2.262c.004.852-.189 1.612-.578 2.28a4.19 4.19 0 0 1-1.606 1.58c-.681.382-1.463.572-2.345.572zm47.983-.18v-1.439l4.452-4.612 1.175-1.317c.313-.381.546-.743.701-1.086a2.63 2.63 0 0 0 .231-1.092c0-.437-.103-.814-.308-1.13-.206-.322-.487-.568-.842-.739a2.67 2.67 0 0 0-1.201-.264c-.471 0-.883.097-1.234.289a1.98 1.98 0 0 0-.809.816c-.189.352-.283.763-.283 1.234h-1.895c0-.801.184-1.501.553-2.101a3.75 3.75 0 0 1 1.516-1.394c.642-.334 1.372-.501 2.19-.501.827 0 1.555.165 2.184.495s1.129.771 1.484 1.336a3.49 3.49 0 0 1 .534 1.901c0 .489-.093.966-.277 1.433s-.494.987-.944 1.561-1.075 1.261-1.876 2.075l-2.614 2.737v.096h5.923v1.702h-8.66zm15.687.18c-.586-.008-1.165-.116-1.734-.321s-1.079-.548-1.542-1.028-.833-1.124-1.111-1.934-.411-1.82-.411-3.032c0-1.147.113-2.167.34-3.058s.563-1.642.996-2.254.955-1.086 1.567-1.407 1.3-.482 2.062-.482c.784 0 1.48.154 2.088.463a3.93 3.93 0 0 1 1.478 1.278c.377.544.623 1.163.726 1.856h-1.96c-.132-.548-.396-.995-.79-1.342s-.908-.521-1.542-.521c-.963 0-1.715.42-2.254 1.26s-.806 2.006-.81 3.501h.097a3.54 3.54 0 0 1 .835-.951 3.71 3.71 0 0 1 1.117-.61 3.93 3.93 0 0 1 1.311-.219c.762 0 1.452.187 2.068.559s1.116.878 1.484 1.529.553 1.396.553 2.236-.191 1.599-.572 2.28a4.19 4.19 0 0 1-1.593 1.619c-.685.394-1.486.587-2.403.578zm-.006-1.67c.505 0 .957-.124 1.355-.373a2.7 2.7 0 0 0 .945-1.002 2.87 2.87 0 0 0 .347-1.407c0-.505-.114-.965-.341-1.381s-.531-.745-.925-.989-.835-.366-1.336-.366c-.381 0-.735.072-1.06.218a2.7 2.7 0 0 0-.848.604 2.93 2.93 0 0 0-.578.886c-.137.33-.206.679-.206 1.048a2.83 2.83 0 0 0 .341 1.368 2.79 2.79 0 0 0 .944 1.015c.403.253.857.379 1.362.379zm47.739 1.49v-1.439l4.452-4.612 1.175-1.317c.313-.381.546-.743.701-1.086a2.63 2.63 0 0 0 .231-1.092c0-.437-.103-.814-.309-1.13-.205-.322-.486-.568-.841-.739s-.756-.264-1.201-.264c-.471 0-.883.097-1.234.289a1.98 1.98 0 0 0-.809.816c-.189.352-.283.763-.283 1.234h-1.895c0-.801.184-1.501.552-2.101a3.76 3.76 0 0 1 1.517-1.394c.642-.334 1.372-.501 2.19-.501.827 0 1.555.165 2.184.495s1.129.771 1.484 1.336a3.49 3.49 0 0 1 .533 1.901c0 .489-.092.966-.276 1.433s-.494.987-.944 1.561-1.075 1.261-1.876 2.075l-2.615 2.737v.096h5.923v1.702h-8.659zm11.537 0l5.743-11.357v-.097h-6.642v-1.702h8.698v1.76l-5.724 11.396h-2.075zm51.883 0v-1.439l4.452-4.612 1.175-1.317a4.92 4.92 0 0 0 .7-1.086c.155-.342.232-.706.232-1.092 0-.437-.103-.814-.309-1.13-.205-.322-.486-.568-.841-.739s-.756-.264-1.201-.264c-.472 0-.883.097-1.234.289a1.98 1.98 0 0 0-.809.816c-.189.352-.283.763-.283 1.234h-1.895c0-.801.184-1.501.552-2.101a3.75 3.75 0 0 1 1.516-1.394c.642-.33 1.373-.501 2.191-.501.827 0 1.555.165 2.184.495s1.129.771 1.484 1.336a3.49 3.49 0 0 1 .533 1.901c0 .489-.092.966-.276 1.433s-.495.987-.944 1.561-1.075 1.261-1.876 2.075l-2.615 2.737v.096h5.923v1.702h-8.659zm15.539.18c-.92 0-1.734-.158-2.441-.475s-1.252-.754-1.651-1.311-.595-1.19-.591-1.901a3.36 3.36 0 0 1 1.298-2.711 2.97 2.97 0 0 1 1.349-.604v-.077a2.66 2.66 0 0 1-1.574-1.054c-.394-.544-.589-1.169-.584-1.875a3.07 3.07 0 0 1 .533-1.799 3.72 3.72 0 0 1 1.497-1.253c.633-.304 1.355-.456 2.164-.456.801 0 1.517.154 2.146.463.634.304 1.133.721 1.497 1.252a3.12 3.12 0 0 1 .552 1.793c-.004.706-.205 1.331-.604 1.875a2.68 2.68 0 0 1-1.554 1.054v.077a2.88 2.88 0 0 1 1.33.604 3.4 3.4 0 0 1 .95 1.175c.24.467.362.979.367 1.536-.005.711-.206 1.345-.604 1.901s-.951.994-1.658 1.311-1.509.475-2.422.475zm0-1.625c.544 0 1.015-.09 1.414-.27a2.16 2.16 0 0 0 .925-.764c.218-.33.33-.716.334-1.157a2.16 2.16 0 0 0-.36-1.214 2.41 2.41 0 0 0-.944-.829c-.399-.201-.855-.301-1.369-.301s-.978.1-1.381.301a2.4 2.4 0 0 0-.95.829c-.232.351-.345.756-.341 1.214-.004.441.101.827.315 1.157s.529.58.931.764.878.27 1.426.27zm0-6.122c.437 0 .825-.088 1.163-.264a2 2 0 0 0 .797-.732c.193-.313.297-.679.302-1.098-.005-.412-.103-.771-.296-1.08a1.9 1.9 0 0 0-.79-.713c-.338-.167-.73-.257-1.176-.257-.453 0-.852.086-1.194.257a1.88 1.88 0 0 0-.791.713c-.188.309-.28.668-.276 1.08-.004.419.09.785.283 1.098a1.99 1.99 0 0 0 .796.732c.343.176.737.264 1.182.264zm-396.06 50.023v-1.439l4.452-4.612 1.176-1.317a4.92 4.92 0 0 0 .7-1.086 2.63 2.63 0 0 0 .231-1.092c0-.437-.103-.813-.308-1.13a2.04 2.04 0 0 0-.841-.739 2.67 2.67 0 0 0-1.201-.264c-.471 0-.882.097-1.233.29a1.98 1.98 0 0 0-.809.815c-.188.351-.283.763-.283 1.234h-1.895c0-.801.184-1.501.553-2.101s.874-1.064 1.516-1.394 1.373-.501 2.191-.501c.826 0 1.555.165 2.184.495.634.325 1.128.771 1.484 1.336s.533 1.195.533 1.901a3.87 3.87 0 0 1-.276 1.433c-.18.467-.495.987-.944 1.561s-1.075 1.261-1.876 2.075l-2.615 2.737v.096h5.923v1.702h-8.659zm15.469-13.336a5.08 5.08 0 0 1 1.735.321c.57.21 1.084.553 1.542 1.028s.831 1.118 1.105 1.927.42 1.808.424 3.007c0 1.152-.116 2.177-.347 3.077s-.563 1.651-.996 2.268-.949 1.085-1.561 1.406-1.302.482-2.068.482c-.784 0-1.48-.154-2.088-.462s-1.103-.735-1.484-1.279-.619-1.177-.713-1.888h1.959c.129.565.39 1.023.784 1.374s.912.521 1.542.521c.964 0 1.715-.42 2.255-1.259s.812-2.022.816-3.534h-.103a3.54 3.54 0 0 1-.835.951c-.334.265-.7.471-1.111.617a3.93 3.93 0 0 1-1.317.218 3.94 3.94 0 0 1-2.069-.559c-.621-.372-1.116-.884-1.484-1.535s-.552-1.394-.552-2.229.188-1.585.565-2.261.912-1.212 1.593-1.606 1.488-.593 2.409-.585zm.006 1.67a2.53 2.53 0 0 0-1.355.373c-.402.248-.713.576-.944.996s-.347.878-.347 1.387a2.89 2.89 0 0 0 .334 1.388 2.65 2.65 0 0 0 .925.983 2.55 2.55 0 0 0 1.349.359 2.54 2.54 0 0 0 1.053-.218 2.68 2.68 0 0 0 .854-.604 2.9 2.9 0 0 0 .572-.886c.137-.329.206-.677.206-1.041a2.73 2.73 0 0 0-.347-1.349 2.69 2.69 0 0 0-.938-1.002c-.398-.257-.852-.386-1.362-.386zm52.526 11.846c-.883 0-1.671-.152-2.365-.456s-1.235-.726-1.638-1.265a3.36 3.36 0 0 1-.642-1.889h2.017c.026.39.156.728.392 1.015s.552.501.938.655.814.231 1.285.231c.518 0 .976-.09 1.374-.269a2.25 2.25 0 0 0 .945-.752c.227-.326.34-.7.34-1.124 0-.441-.113-.829-.34-1.163s-.551-.604-.983-.797-.947-.289-1.555-.289H102.1v-1.618h1.111c.488 0 .917-.088 1.285-.264.373-.175.664-.42.874-.732s.315-.688.315-1.112c0-.406-.093-.76-.277-1.06s-.437-.541-.771-.713c-.329-.171-.719-.257-1.169-.257-.428 0-.828.08-1.201.238s-.668.377-.899.668a1.73 1.73 0 0 0-.373 1.035h-1.921c.021-.711.231-1.337.63-1.876s.933-.962 1.593-1.266 1.392-.456 2.197-.456c.844 0 1.572.165 2.184.495.617.325 1.092.76 1.426 1.304a3.26 3.26 0 0 1 .501 1.786c.005.736-.201 1.362-.616 1.875s-.96.859-1.645 1.035v.103c.874.132 1.55.479 2.03 1.04s.724 1.257.72 2.088c.004.724-.197 1.373-.604 1.946s-.953 1.026-1.651 1.356-1.497.488-2.396.488zm11.659.039c-1.015-.005-1.882-.272-2.602-.803s-1.269-1.304-1.651-2.319-.571-2.238-.571-3.668.19-2.645.571-3.656.938-1.781 1.658-2.312 1.589-.797 2.595-.797 1.869.268 2.589.803 1.27 1.302 1.651 2.313.578 2.222.578 3.649c0 1.434-.19 2.659-.572 3.674s-.931 1.784-1.651 2.319-1.584.797-2.595.797zm0-1.715c.891 0 1.587-.435 2.088-1.305s.758-2.126.758-3.77c0-1.093-.116-2.015-.347-2.769s-.555-1.332-.983-1.722a2.15 2.15 0 0 0-1.516-.591c-.886 0-1.582.437-2.088 1.311s-.76 2.13-.764 3.771c0 1.096.113 2.023.34 2.781s.559 1.326.983 1.715.934.579 1.529.579zm51.76 1.676c-.882 0-1.67-.152-2.364-.456-.689-.304-1.235-.726-1.638-1.265s-.612-1.174-.642-1.889h2.017c.026.39.156.728.392 1.015s.552.501.938.655.814.231 1.285.231c.518 0 .976-.09 1.374-.269a2.25 2.25 0 0 0 .945-.752c.227-.326.34-.7.34-1.124 0-.441-.113-.829-.34-1.163s-.551-.604-.983-.797-.947-.289-1.555-.289h-1.111v-1.618h1.111c.488 0 .917-.088 1.285-.264s.664-.42.874-.732.314-.688.314-1.112c0-.406-.092-.76-.276-1.06s-.437-.541-.771-.713-.719-.257-1.169-.257c-.428 0-.829.08-1.201.238s-.668.377-.9.668a1.72 1.72 0 0 0-.372 1.035h-1.921c.022-.711.231-1.337.63-1.876a4.06 4.06 0 0 1 1.593-1.266c.659-.304 1.392-.456 2.197-.456.844 0 1.572.165 2.184.495s1.092.76 1.426 1.304a3.28 3.28 0 0 1 .501 1.786c.004.736-.201 1.362-.617 1.875s-.959.859-1.644 1.035v.103c.874.132 1.55.479 2.03 1.04s.724 1.257.719 2.088c.005.724-.197 1.373-.603 1.946s-.953 1.026-1.651 1.356-1.497.488-2.397.488zm12.071-13.336v13.156h-1.991v-11.165h-.077l-3.148 2.056v-1.901l3.283-2.146h1.933z" fill="#000"/><path d="M230.694 310.081v13.156h-1.991v-11.165h-.077l-3.148 2.056v-1.901l3.283-2.146h1.933zm58.429 13.156v-1.439l4.452-4.612 1.175-1.317c.313-.381.546-.743.701-1.086a2.63 2.63 0 0 0 .231-1.092c0-.437-.103-.813-.308-1.13s-.487-.568-.842-.739a2.67 2.67 0 0 0-1.201-.264c-.471 0-.883.097-1.234.29a1.98 1.98 0 0 0-.809.815c-.188.351-.283.763-.283 1.234h-1.895c0-.801.184-1.501.553-2.101a3.75 3.75 0 0 1 1.516-1.394c.642-.334 1.372-.501 2.19-.501.827 0 1.555.165 2.184.495s1.129.771 1.484 1.336a3.49 3.49 0 0 1 .534 1.901c0 .489-.093.966-.277 1.433s-.494.987-.944 1.561-1.075 1.261-1.876 2.075l-2.614 2.737v.096h5.923v1.702h-8.66zm68 .18c-.882 0-1.67-.152-2.364-.456s-1.235-.726-1.638-1.265-.612-1.174-.642-1.889h2.017a1.73 1.73 0 0 0 .392 1.015 2.33 2.33 0 0 0 .938.655c.385.154.813.231 1.284.231.519 0 .977-.09 1.375-.269a2.27 2.27 0 0 0 .944-.752c.227-.326.341-.7.341-1.124a2.02 2.02 0 0 0-.341-1.163c-.222-.338-.55-.604-.982-.797s-.947-.289-1.555-.289h-1.111v-1.618h1.111c.488 0 .916-.088 1.285-.264a2.1 2.1 0 0 0 .873-.732c.21-.317.315-.688.315-1.112 0-.406-.092-.76-.276-1.06s-.437-.541-.771-.713-.719-.257-1.169-.257c-.428 0-.829.08-1.201.238s-.669.377-.9.668a1.72 1.72 0 0 0-.372 1.035h-1.921c.021-.711.231-1.337.629-1.876a4.07 4.07 0 0 1 1.594-1.266c.659-.304 1.391-.456 2.197-.456.843 0 1.571.165 2.184.495s1.092.76 1.426 1.304a3.28 3.28 0 0 1 .501 1.786c.004.736-.201 1.362-.617 1.875s-.959.859-1.644 1.035v.103c.873.132 1.55.479 2.03 1.04s.723 1.257.719 2.088c.004.724-.197 1.373-.604 1.946s-.953 1.026-1.651 1.356-1.496.488-2.396.488zm58.564-2.749v-1.606l5.685-8.981h1.265v2.364h-.803l-4.066 6.437v.103h7.792v1.683h-9.873zm6.237 2.569v-3.058l.013-.732v-9.366h1.882v13.156h-1.895z" fill="#b2b2b2"/><path d="M55.082 32.123l-7.34 7.34 7.34 7.34" stroke="#000" stroke-width="2.114" stroke-linecap="round" stroke-linejoin="round"/><path d="M186.798 47.689c-.962 0-1.811-.18-2.548-.541a5.33 5.33 0 0 1-1.804-1.511l2.075-1.984c.27.391.593.691.969.902.391.195.819.293 1.286.293s.871-.098 1.217-.293c.361-.195.632-.481.812-.857.195-.376.293-.834.293-1.375V31.612h3.089v10.531c0 1.112-.225 2.09-.676 2.931-.436.827-1.06 1.473-1.872 1.939-.796.451-1.744.676-2.841.676zm12.734 0c-.963 0-1.819-.203-2.571-.609-.737-.406-1.315-.97-1.736-1.691s-.632-1.556-.632-2.503v-6.314h2.977v6.246c0 .451.075.842.225 1.173.151.316.376.556.677.721s.654.248 1.06.248c.616 0 1.097-.188 1.443-.564s.518-.902.518-1.578v-6.246h2.954v6.314c0 .962-.21 1.804-.631 2.526a4.28 4.28 0 0 1-1.736 1.691c-.737.391-1.586.586-2.548.586zm7.268-.225V31.161h2.954v16.303H206.8zm5.548 2.683l1.601-2.977.925-.248c-.105.195-.225.361-.361.496s-.293.203-.473.203c-.376 0-.729-.165-1.06-.496a1.68 1.68 0 0 1-.496-1.24 1.91 1.91 0 0 1 .541-1.375c.361-.376.812-.564 1.353-.564.496 0 .932.188 1.308.564a1.87 1.87 0 0 1 .564 1.375c0 .211-.046.466-.136.767-.09.286-.255.654-.496 1.105l-1.736 3.202-1.534-.812zm10.026-4.442l5.975-6.246 1.015-1.195c.271-.361.466-.699.586-1.015.12-.331.181-.662.181-.992 0-.661-.218-1.18-.654-1.556-.421-.376-.97-.564-1.646-.564-.692 0-1.308.18-1.849.541-.527.361-1.023.932-1.489 1.714l-2.097-1.781c.632-1.067 1.413-1.872 2.345-2.413.947-.556 2.03-.834 3.247-.834 1.038 0 1.94.203 2.706.609.782.406 1.383.97 1.804 1.691s.632 1.563.632 2.526c0 .646-.083 1.233-.248 1.759a5.19 5.19 0 0 1-.79 1.578c-.36.511-.864 1.09-1.51 1.736l-4.352 4.442h-3.856zm0 1.759v-1.759l2.615-.902h8.479v2.661h-11.094zm19.364.225a5.93 5.93 0 0 1-3.383-1.015c-1.007-.676-1.811-1.631-2.413-2.864-.586-1.233-.879-2.668-.879-4.307s.293-3.067.879-4.284 1.376-2.165 2.368-2.841c1.007-.677 2.127-1.015 3.36-1.015 1.263 0 2.39.338 3.382 1.015 1.008.676 1.804 1.631 2.391 2.864.586 1.218.879 2.653.879 4.307 0 1.639-.293 3.074-.879 4.307-.587 1.218-1.376 2.165-2.368 2.841-.992.661-2.105.992-3.337.992zm-.046-2.774c.722 0 1.346-.203 1.872-.609s.932-1.007 1.218-1.804c.3-.797.451-1.789.451-2.977s-.151-2.18-.451-2.977c-.286-.797-.699-1.391-1.24-1.781-.527-.406-1.15-.609-1.872-.609-.707 0-1.323.203-1.849.609-.526.391-.94.985-1.24 1.781-.286.782-.429 1.766-.429 2.954 0 1.203.143 2.202.429 2.999.3.797.714 1.398 1.24 1.804s1.15.609 1.871.609zm8.032.789l5.975-6.246 1.015-1.195c.271-.361.466-.699.586-1.015.12-.331.181-.662.181-.992 0-.661-.218-1.18-.654-1.556-.421-.376-.97-.564-1.646-.564a3.26 3.26 0 0 0-1.85.541c-.526.361-1.022.932-1.488 1.714l-2.097-1.781c.632-1.067 1.413-1.872 2.345-2.413.947-.556 2.03-.834 3.247-.834 1.038 0 1.94.203 2.706.609.782.406 1.383.97 1.804 1.691s.632 1.563.632 2.526c0 .646-.083 1.233-.248 1.759a5.19 5.19 0 0 1-.79 1.578c-.36.511-.864 1.09-1.51 1.736l-4.352 4.442h-3.856zm0 1.759v-1.759l2.615-.902h8.479v2.661h-11.094zm12.441-5.592l5.412-10.26h3.382l-5.547 10.26h-3.247zm0 1.804v-1.804l1.127-.879h11.365v2.683h-12.492zm7.486 3.788V37.362h3.022v10.102h-3.022z" fill="#000"/><g stroke-width="2.114" stroke-linecap="round"><path d="M402.954 46.804l7.34-7.34-7.34-7.34" stroke="#000" stroke-linejoin="round"/><path d="M234.545 108.694h10.661" stroke="#5700fa"/></g><g clip-path="url(#A)"><g fill="#000"><path d="M27.913 88.93h1.893l3.291 8.036h.121l3.291-8.036h1.893v10.338h-1.484v-7.481h-.096l-3.049 7.466h-1.232l-3.049-7.471h-.096v7.486h-1.484V88.93zm15.902 10.495c-.727 0-1.361-.167-1.903-.5a3.37 3.37 0 0 1-1.262-1.398c-.299-.599-.449-1.299-.449-2.1s.15-1.508.449-2.11.72-1.07 1.262-1.403 1.176-.5 1.903-.5 1.361.167 1.903.5.962.801 1.262 1.403.449 1.306.449 2.11-.15 1.501-.449 2.1a3.37 3.37 0 0 1-1.262 1.398c-.542.333-1.176.5-1.903.5zm.005-1.267c.471 0 .861-.124 1.171-.373s.538-.581.687-.995.227-.87.227-1.368-.076-.949-.227-1.363a2.22 2.22 0 0 0-.687-1.004c-.31-.252-.7-.379-1.171-.379s-.868.126-1.181.379-.54.587-.692 1.004-.222.868-.222 1.363.074.954.222 1.368a2.2 2.2 0 0 0 .692.995c.31.25.707.373 1.181.373zm6.803-3.493v4.604h-1.509v-7.754h1.449v1.262h.096a2.21 2.21 0 0 1 .838-.989c.38-.249.867-.374 1.449-.374.528 0 .991.111 1.388.333s.705.545.924.979.328.971.328 1.61v4.932h-1.509v-4.75c0-.562-.146-1.001-.439-1.317s-.695-.48-1.206-.48a1.89 1.89 0 0 0-.934.227c-.269.151-.483.374-.641.666s-.232.639-.232 1.05zm44.128-4.393V88.93h8.001v1.343h-3.226v8.995h-1.555v-8.995H94.75zm13.504 5.78v-4.538h1.515v7.754h-1.484v-1.343h-.081a2.43 2.43 0 0 1-.858 1.035c-.391.273-.877.409-1.459.409-.498 0-.939-.109-1.323-.328s-.679-.55-.898-.984-.323-.971-.323-1.61v-4.932h1.509v4.75c0 .528.146.949.439 1.262s.673.469 1.141.469a1.85 1.85 0 0 0 .843-.212 1.77 1.77 0 0 0 .702-.641c.185-.286.281-.649.277-1.09zm6.884 3.372c-.764 0-1.421-.163-1.973-.49s-.973-.792-1.272-1.388-.445-1.301-.445-2.105c0-.794.148-1.494.445-2.1s.716-1.079 1.251-1.418 1.168-.51 1.888-.51c.438 0 .862.072 1.272.217s.78.372 1.106.681.584.712.772 1.206.283 1.089.283 1.792v.535h-6.164v-1.131h4.685c0-.397-.081-.749-.242-1.055a1.85 1.85 0 0 0-.682-.732c-.293-.178-.629-.268-1.02-.268-.424 0-.794.104-1.11.313a2.11 2.11 0 0 0-.727.808c-.172.333-.252.688-.252 1.075v.883c0 .518.091.959.272 1.323a1.97 1.97 0 0 0 .773.833c.329.188.715.283 1.156.283a2.4 2.4 0 0 0 .782-.121 1.69 1.69 0 0 0 .611-.374 1.62 1.62 0 0 0 .393-.611l1.429.257a2.59 2.59 0 0 1-.616 1.106c-.296.317-.661.557-1.105.732s-.944.257-1.51.257zm45.494-.156l-2.868-10.338h1.641l2.014 8.006h.096l2.095-8.006h1.625l2.095 8.011h.096l2.009-8.011h1.646l-2.872 10.338h-1.57l-2.176-7.743h-.081l-2.175 7.743h-1.575zm14.328.156c-.764 0-1.422-.163-1.974-.49s-.972-.792-1.272-1.388-.444-1.301-.444-2.105c0-.794.148-1.494.444-2.1s.717-1.079 1.252-1.418 1.168-.51 1.888-.51c.438 0 .862.072 1.272.217s.779.372 1.106.681.584.712.772 1.206.283 1.089.283 1.792v.535h-6.164v-1.131h4.685c0-.397-.081-.749-.243-1.055s-.388-.554-.681-.732-.629-.268-1.02-.268c-.424 0-.794.104-1.11.313a2.1 2.1 0 0 0-.727.808c-.171.333-.253.688-.253 1.075v.883c0 .518.091.959.273 1.323a1.97 1.97 0 0 0 .772.833c.33.188.715.283 1.156.283a2.4 2.4 0 0 0 .783-.121c.236-.081.439-.209.61-.374a1.62 1.62 0 0 0 .394-.611l1.429.257a2.6 2.6 0 0 1-.616 1.106c-.296.317-.661.557-1.106.732s-.944.257-1.509.257zm7.904-.005c-.626 0-1.185-.16-1.676-.48s-.872-.782-1.151-1.378-.414-1.318-.414-2.156.14-1.555.419-2.15.67-1.052 1.161-1.368a3.02 3.02 0 0 1 1.671-.475c.481 0 .868.081 1.161.242s.525.343.686.555a4.7 4.7 0 0 1 .384.56h.091V88.93h1.509v10.338h-1.474v-1.207h-.126c-.091.165-.222.353-.394.565s-.4.397-.696.555-.68.237-1.151.237zm.333-1.287c.434 0 .801-.114 1.1-.343s.532-.553.687-.964.237-.888.237-1.434c0-.538-.077-1.01-.232-1.413s-.382-.719-.681-.944-.67-.338-1.111-.338c-.454 0-.833.118-1.136.353s-.531.557-.686.964a3.92 3.92 0 0 0-.227 1.378c0 .518.077.984.232 1.398s.383.742.686.984.683.358 1.131.358z"/></g><path d="M226.455 90.403v-1.766h9.28v1.766h-3.595v9.865h-2.09v-9.865h-3.595zm13.033 4.753v5.111h-2.055V88.637h2.01v4.39h.102c.205-.492.521-.88.949-1.164s.98-.432 1.646-.432c.606 0 1.134.127 1.585.38s.799.625 1.045 1.113.375 1.085.375 1.789v5.554h-2.056v-5.236c0-.587-.152-1.043-.454-1.369s-.72-.494-1.261-.494c-.364 0-.689.08-.977.239a1.67 1.67 0 0 0-.67.676c-.159.295-.239.653-.239 1.073zm13.312 1.442v-5.054h2.055v8.723h-1.993v-1.551h-.091a2.62 2.62 0 0 1-.971 1.198c-.447.311-.997.466-1.652.466-.572 0-1.077-.127-1.517-.38s-.776-.631-1.022-1.119-.369-1.087-.369-1.783v-5.554h2.056v5.236c0 .553.151.992.454 1.318s.701.488 1.193.488c.303 0 .596-.074.88-.221s.517-.367.698-.659c.186-.295.279-.664.279-1.107zm-25.924 22.669v-8.723h1.993v1.454h.091c.159-.504.431-.892.818-1.165s.834-.414 1.334-.414l.381.017c.143.007.263.021.357.04v1.891c-.087-.031-.225-.057-.414-.08s-.366-.04-.54-.04a2.08 2.08 0 0 0-1.011.245c-.295.159-.528.38-.698.664s-.256.612-.256.983v5.128h-2.055z" fill="#5700fa"/><g fill="#000"><path d="M295.309 99.268V88.93h6.41v1.343h-4.851v3.15h4.392v1.338h-4.392v4.508h-1.559zm8.11 0v-7.754h1.459v1.232h.081a1.87 1.87 0 0 1 .747-.984 2.14 2.14 0 0 1 1.222-.363l.333.01.308.025v1.444a2.76 2.76 0 0 0-.323-.056 3.1 3.1 0 0 0-.465-.035 1.97 1.97 0 0 0-.954.227 1.68 1.68 0 0 0-.656.621c-.161.266-.242.562-.242.899v4.735h-1.51zm5.456 0v-7.754h1.509v7.754h-1.509zm.762-8.95a.96.96 0 0 1-.676-.263c-.185-.178-.278-.39-.278-.636s.093-.461.278-.636a.95.95 0 0 1 .676-.267.93.93 0 0 1 .671.267c.189.175.283.387.283.636a.84.84 0 0 1-.283.636.94.94 0 0 1-.671.263zm46.658 1.327c-.054-.478-.276-.848-.667-1.111s-.881-.399-1.474-.399c-.424 0-.79.067-1.1.202s-.55.313-.722.545a1.29 1.29 0 0 0-.252.782c0 .246.057.458.171.636a1.54 1.54 0 0 0 .46.449 3.47 3.47 0 0 0 .616.298l.631.192 1.009.263a7.7 7.7 0 0 1 1.015.328c.346.138.668.32.964.545s.535.505.717.838.277.732.277 1.196c0 .585-.151 1.106-.454 1.56s-.735.813-1.307 1.075-1.257.394-2.065.394c-.774 0-1.444-.123-2.009-.368s-1.008-.594-1.328-1.045-.496-.993-.53-1.615h1.565c.031.374.152.685.364.934s.489.429.823.55.705.177 1.105.177c.441 0 .833-.069 1.176-.207s.619-.337.818-.586a1.39 1.39 0 0 0 .298-.883c0-.306-.088-.557-.263-.752s-.405-.357-.701-.485a6.88 6.88 0 0 0-.995-.338l-1.221-.333c-.828-.225-1.485-.557-1.969-.994s-.722-1.016-.722-1.737c0-.596.162-1.116.485-1.56a3.18 3.18 0 0 1 1.312-1.035c.552-.249 1.175-.374 1.868-.374.7 0 1.317.123 1.852.368s.963.584 1.272 1.015a2.55 2.55 0 0 1 .485 1.474h-1.504zm5.645 7.794c-.492 0-.936-.091-1.333-.273s-.712-.453-.944-.803-.343-.779-.343-1.287c0-.437.084-.798.252-1.08s.396-.506.682-.671a3.55 3.55 0 0 1 .959-.374 9.53 9.53 0 0 1 1.08-.192l1.131-.131c.289-.037.499-.096.631-.177s.197-.212.197-.394v-.035c0-.441-.125-.782-.374-1.025s-.612-.363-1.1-.363c-.509 0-.909.113-1.202.338s-.49.469-.601.742l-1.418-.323c.168-.471.414-.851.737-1.141a3 3 0 0 1 1.126-.636 4.51 4.51 0 0 1 1.337-.202c.31 0 .638.037.985.111a2.88 2.88 0 0 1 .979.394c.306.192.557.466.752.823s.293.813.293 1.378v5.149h-1.474v-1.06h-.061a2.14 2.14 0 0 1-.439.576c-.195.188-.446.345-.752.469s-.673.187-1.1.187zm.328-1.212c.417 0 .774-.082 1.07-.247s.527-.38.681-.646a1.68 1.68 0 0 0 .238-.863v-.999c-.054.054-.159.104-.313.151a4.37 4.37 0 0 1-.52.116l-.571.086-.464.061a3.75 3.75 0 0 0-.803.187c-.239.088-.431.214-.575.379s-.212.377-.212.646c0 .374.138.656.414.848s.627.283 1.055.283zm9.128-6.714v1.212h-4.236v-1.212h4.236zm-3.1-1.858h1.509v7.335c0 .293.044.513.132.661a.67.67 0 0 0 .338.298 1.35 1.35 0 0 0 .459.076 1.77 1.77 0 0 0 .318-.025l.212-.04.273 1.247c-.088.034-.212.067-.374.101a3.16 3.16 0 0 1-.605.06c-.397.007-.768-.064-1.111-.212a1.91 1.91 0 0 1-.833-.686c-.212-.309-.318-.698-.318-1.166v-7.647zm48.345 1.99a1.47 1.47 0 0 0-.666-1.111c-.39-.266-.882-.399-1.474-.399-.424 0-.791.067-1.1.202s-.551.313-.722.545a1.29 1.29 0 0 0-.253.782c0 .246.058.458.172.636s.271.328.459.449a3.19 3.19 0 0 0 .616.298l.631.192 1.01.263a7.64 7.64 0 0 1 1.014.328 4.08 4.08 0 0 1 .965.545 2.6 2.6 0 0 1 .716.838c.186.333.278.732.278 1.196 0 .585-.151 1.106-.454 1.56s-.736.813-1.308 1.075-1.257.394-2.064.394c-.774 0-1.444-.123-2.009-.368s-1.008-.594-1.328-1.045-.496-.993-.53-1.615h1.565c.03.374.151.685.363.934a1.97 1.97 0 0 0 .823.55 3.33 3.33 0 0 0 1.106.177c.441 0 .833-.069 1.176-.207s.619-.337.818-.586a1.39 1.39 0 0 0 .297-.883c0-.306-.087-.557-.262-.752s-.406-.357-.702-.485-.624-.241-.994-.338l-1.222-.333c-.828-.225-1.484-.557-1.968-.994s-.722-1.016-.722-1.737a2.58 2.58 0 0 1 .484-1.56c.323-.444.761-.789 1.313-1.035s1.174-.374 1.867-.374c.7 0 1.318.123 1.853.368s.963.584 1.272 1.015.471.919.485 1.474h-1.505zm8.3 4.407v-4.538h1.515v7.754h-1.484v-1.343h-.081c-.178.414-.464.759-.858 1.035s-.877.409-1.459.409c-.498 0-.939-.109-1.323-.328s-.679-.55-.898-.984-.323-.971-.323-1.61v-4.932h1.509v4.75c0 .528.147.949.439 1.262s.673.469 1.141.469a1.85 1.85 0 0 0 .843-.212 1.77 1.77 0 0 0 .702-.641c.185-.286.281-.649.277-1.09zm5.052-1.388v4.604h-1.509v-7.754h1.449v1.262h.095a2.22 2.22 0 0 1 .838-.989c.384-.249.867-.374 1.449-.374.529 0 .991.111 1.388.333a2.23 2.23 0 0 1 .924.979c.219.434.328.971.328 1.61v4.932h-1.509v-4.75c0-.562-.146-1.001-.439-1.317s-.695-.48-1.207-.48c-.35 0-.661.076-.934.227a1.64 1.64 0 0 0-.641.666c-.154.289-.232.639-.232 1.05z"/></g></g><path d="M611.544 101h-2.097l4.711-13.091h2.282L621.151 101h-2.096l-3.701-10.713h-.103L611.544 101zm.352-5.126h6.801v1.662h-6.801v-1.662zm11.146-7.965h2.397l4.167 10.176h.154l4.167-10.176h2.397V101h-1.879v-9.473h-.121l-3.861 9.454h-1.56l-3.861-9.46h-.121V101h-1.879V87.909zm-106.556-39.72a5.93 5.93 0 0 1-3.382-1.015c-1.007-.676-1.811-1.631-2.413-2.864-.586-1.233-.879-2.668-.879-4.307s.293-3.067.879-4.284 1.376-2.165 2.368-2.841a5.89 5.89 0 0 1 3.36-1.015c1.263 0 2.39.338 3.382 1.015 1.007.676 1.804 1.631 2.39 2.864.587 1.218.88 2.653.88 4.307 0 1.639-.293 3.074-.88 4.307-.586 1.218-1.375 2.165-2.367 2.841-.992.661-2.105.992-3.338.992zm-.045-2.774c.722 0 1.346-.203 1.872-.609s.932-1.007 1.218-1.804c.3-.797.451-1.789.451-2.977s-.151-2.18-.451-2.977c-.286-.797-.699-1.391-1.241-1.781-.526-.406-1.15-.609-1.871-.609-.707 0-1.323.203-1.849.609-.526.391-.94.985-1.241 1.781-.285.782-.428 1.766-.428 2.954 0 1.203.143 2.202.428 2.999.301.797.715 1.398 1.241 1.804s1.15.609 1.871.609zm13.06 2.774c-1.067 0-2.045-.188-2.931-.564a6.02 6.02 0 0 1-2.233-1.669l2.03-2.007c.3.451.729.812 1.285 1.082s1.157.406 1.804.406c.601 0 1.12-.105 1.556-.316.436-.225.774-.534 1.014-.925.256-.406.384-.872.384-1.398 0-.556-.128-1.03-.384-1.421-.24-.391-.593-.691-1.059-.902s-1.023-.316-1.669-.316a5.91 5.91 0 0 0-.879.068c-.301.03-.557.083-.767.158l1.353-1.714a10.94 10.94 0 0 1 1.105-.293c.376-.09.721-.135 1.037-.135.812 0 1.541.195 2.187.586.662.376 1.18.917 1.556 1.624.391.691.587 1.511.587 2.458 0 1.052-.249 1.977-.745 2.774-.496.782-1.195 1.398-2.097 1.849-.887.436-1.931.654-3.134.654zm-1.849-7.802v-1.759l4.059-4.713 3.517-.045-4.194 4.803-3.382 1.714zm-2.435-5.615v-2.661h10.011v1.759l-2.502.902h-7.509zm14.224 13.417c-.541 0-.985-.18-1.331-.541a1.82 1.82 0 0 1-.518-1.308c0-.541.173-.992.518-1.353s.79-.541 1.331-.541.984.18 1.33.541.519.812.519 1.353a1.82 1.82 0 0 1-.519 1.308c-.346.361-.789.541-1.33.541zm0-6.81c-.541 0-.985-.18-1.331-.541s-.518-.804-.518-1.33c0-.541.173-.985.518-1.33.346-.361.79-.541 1.331-.541s.984.18 1.33.541c.346.346.519.789.519 1.33 0 .526-.173.97-.519 1.33s-.789.541-1.33.541zm6.815 6.585V32.112h3.022v15.852h-3.022zm-3.111-13.191v-2.661h5.908v2.661h-5.908zm13.398 13.417c-1.097 0-2.097-.188-2.999-.564-.902-.391-1.654-.947-2.255-1.669l2.03-2.007c.3.451.729.812 1.285 1.082.571.271 1.195.406 1.871.406.617 0 1.151-.113 1.602-.338a2.56 2.56 0 0 0 1.082-.947c.27-.421.406-.91.406-1.466 0-.586-.136-1.082-.406-1.488a2.47 2.47 0 0 0-1.037-.924 3.33 3.33 0 0 0-1.466-.316c-.571 0-1.09.075-1.556.226a4.19 4.19 0 0 0-1.308.676l.181-1.939a3.96 3.96 0 0 1 .901-.722 3.47 3.47 0 0 1 1.06-.428c.406-.105.88-.158 1.421-.158 1.157 0 2.12.24 2.886.722.782.466 1.376 1.097 1.782 1.894a5.54 5.54 0 0 1 .608 2.593c0 1.037-.255 1.962-.766 2.774s-1.225 1.451-2.142 1.917c-.902.451-1.962.676-3.18.676zm-2.751-7.329l-1.466-1.443.722-7.306h2.774l-.812 7.419-1.218 1.33zm-.27-6.088l-.474-2.661h8.704v2.661h-8.23zm18.13 7.306v-2.503h3.676a2.89 2.89 0 0 0 1.308-.293 2.25 2.25 0 0 0 .924-.834c.226-.376.338-.827.338-1.353 0-.511-.112-.955-.338-1.331s-.533-.661-.924-.857-.827-.293-1.308-.293h-3.676v-2.503h3.992c1.007 0 1.909.203 2.705.609a4.66 4.66 0 0 1 1.917 1.736c.466.737.699 1.616.699 2.638s-.233 1.909-.699 2.661c-.466.737-1.105 1.308-1.917 1.714-.796.406-1.698.609-2.705.609h-3.992zm-2.255 5.885V32.112h3.067v15.852h-3.067zm13.741 0V32.112h2.165l6.427 10.283h-1.24l6.404-10.283h2.164v15.852h-3.044V37.366l.586.18-4.464 7.171h-2.075l-4.465-7.171.609-.18v10.598h-3.067z" fill="#000"/><g stroke="#ede3ff"><path d="M1 62h659.5M1 351h659.5"/><path d="M458 3v348m68-289v289m67-289v289"/></g><g fill="#f8ddff"><rect x="472" y="82" width="41" height="24" rx="6"/><rect x="539" y="82" width="41" height="24" rx="6"/><rect x="603" y="115" width="41" height="24" rx="6"/></g><path d="M485.817 101.217c-1.01-.004-1.873-.27-2.589-.799s-1.264-1.297-1.643-2.307-.569-2.227-.569-3.65.19-2.631.569-3.637.933-1.773 1.649-2.301 1.581-.793 2.583-.793 1.86.266 2.576.799 1.263 1.296 1.643 2.301.575 2.212.575 3.631c0 1.428-.19 2.646-.569 3.656s-.927 1.775-1.643 2.308-1.577.792-2.582.792zm0-1.706c.886 0 1.579-.433 2.077-1.298s.754-2.116.754-3.752c0-1.087-.115-2.005-.345-2.755s-.552-1.325-.978-1.713-.924-.588-1.508-.588c-.882 0-1.575.435-2.078 1.304s-.756 2.12-.76 3.752c0 1.091.113 2.014.338 2.768.231.75.557 1.319.978 1.707a2.16 2.16 0 0 0 1.522.575zm11.619 1.668c-.878 0-1.662-.151-2.352-.454s-1.23-.722-1.63-1.259-.61-1.168-.64-1.879h2.008c.025.388.155.724.389 1.01s.55.499.934.652a3.41 3.41 0 0 0 1.278.23c.516 0 .972-.09 1.368-.269s.714-.428.94-.748.338-.697.338-1.119c0-.439-.113-.825-.338-1.157s-.548-.601-.978-.793-.942-.288-1.547-.288H496.1v-1.611h1.106c.486 0 .912-.087 1.278-.262a2.1 2.1 0 0 0 .87-.729c.209-.311.313-.684.313-1.106 0-.405-.092-.756-.275-1.055a1.85 1.85 0 0 0-.767-.71c-.328-.17-.716-.256-1.164-.256a3.02 3.02 0 0 0-1.195.236 2.21 2.21 0 0 0-.895.665 1.71 1.71 0 0 0-.37 1.029h-1.912c.022-.707.23-1.33.627-1.867s.929-.957 1.585-1.259 1.385-.454 2.186-.454c.84 0 1.564.164 2.173.492s1.087.756 1.419 1.298a3.3 3.3 0 0 1 .499 1.777c.004.733-.2 1.355-.614 1.867s-.954.854-1.636 1.029v.102c.869.132 1.543.477 2.02 1.036s.72 1.251.716 2.077c.004.72-.196 1.366-.601 1.937s-.948 1.02-1.643 1.349-1.489.486-2.384.486zm-11.619 32.038c-1.01-.004-1.873-.27-2.589-.799s-1.264-1.297-1.643-2.307-.569-2.227-.569-3.65.19-2.631.569-3.637.933-1.773 1.649-2.301 1.581-.793 2.583-.793 1.86.266 2.576.799 1.263 1.296 1.643 2.301.575 2.212.575 3.631c0 1.427-.19 2.646-.569 3.656s-.927 1.775-1.643 2.308-1.577.792-2.582.792zm0-1.706c.886 0 1.579-.433 2.077-1.298s.754-2.116.754-3.752c0-1.087-.115-2.005-.345-2.755s-.552-1.325-.978-1.713-.924-.588-1.508-.588c-.882 0-1.575.434-2.078 1.304s-.756 2.12-.76 3.752c0 1.091.113 2.013.338 2.768.231.75.557 1.319.978 1.706a2.18 2.18 0 0 0 1.522.576zm6.787-1.068v-1.598l5.656-8.936h1.26v2.352h-.799l-4.046 6.405v.102h7.753v1.675h-9.824zM498.81 133v-3.043l.013-.728v-9.32h1.873V133h-1.886zm-12.993 32.217c-1.01-.004-1.873-.27-2.589-.799s-1.264-1.297-1.643-2.307-.569-2.227-.569-3.65.19-2.631.569-3.637.933-1.773 1.649-2.301 1.581-.793 2.583-.793 1.86.266 2.576.799 1.263 1.296 1.643 2.301.575 2.212.575 3.631c0 1.427-.19 2.646-.569 3.656s-.927 1.775-1.643 2.308-1.577.792-2.582.792zm0-1.706c.886 0 1.579-.433 2.077-1.298s.754-2.116.754-3.752c0-1.087-.115-2.005-.345-2.755s-.552-1.325-.978-1.713-.924-.588-1.508-.588c-.882 0-1.575.434-2.078 1.304s-.756 2.12-.76 3.752c0 1.091.113 2.013.338 2.768.231.75.557 1.319.978 1.706a2.18 2.18 0 0 0 1.522.576zm11.382 1.668c-.801 0-1.521-.153-2.16-.46s-1.142-.737-1.521-1.279-.582-1.159-.608-1.853h1.918c.047.562.296 1.025.748 1.387s.993.543 1.623.543c.503 0 .949-.115 1.336-.345a2.48 2.48 0 0 0 .921-.965c.226-.409.339-.876.339-1.4 0-.533-.115-1.008-.346-1.426a2.55 2.55 0 0 0-.952-.984c-.401-.239-.861-.36-1.381-.364a3.7 3.7 0 0 0-1.195.204c-.401.137-.724.316-.972.537l-1.809-.268.736-6.597h7.197v1.694h-5.555l-.415 3.663h.077c.255-.248.594-.454 1.016-.62a3.72 3.72 0 0 1 1.368-.25c.797 0 1.506.19 2.128.569a4.04 4.04 0 0 1 1.477 1.553c.362.652.541 1.402.537 2.25.004.848-.188 1.605-.575 2.27a4.17 4.17 0 0 1-1.599 1.572c-.677.379-1.455.569-2.333.569zm-11.382 32.038c-1.01-.004-1.873-.27-2.589-.799s-1.264-1.297-1.643-2.307-.569-2.227-.569-3.65.19-2.631.569-3.637.933-1.773 1.649-2.301 1.581-.793 2.583-.793 1.86.266 2.576.799 1.263 1.296 1.643 2.301.575 2.212.575 3.631c0 1.427-.19 2.646-.569 3.656s-.927 1.775-1.643 2.308-1.577.792-2.582.792zm0-1.706c.886 0 1.579-.433 2.077-1.298s.754-2.116.754-3.752c0-1.087-.115-2.005-.345-2.755s-.552-1.325-.978-1.713-.924-.588-1.508-.588c-.882 0-1.575.434-2.078 1.304s-.756 2.12-.76 3.752c0 1.091.113 2.013.338 2.768.231.75.557 1.319.978 1.706a2.18 2.18 0 0 0 1.522.576zm11.632 1.668a5.28 5.28 0 0 1-1.726-.32c-.563-.204-1.074-.545-1.534-1.022s-.829-1.119-1.106-1.924-.409-1.811-.409-3.017c0-1.142.113-2.157.339-3.043s.56-1.634.99-2.244.951-1.08 1.56-1.399 1.293-.48 2.052-.48c.78 0 1.472.154 2.077.46a3.9 3.9 0 0 1 1.47 1.272 4.26 4.26 0 0 1 .723 1.848h-1.95c-.132-.546-.394-.991-.786-1.336s-.903-.518-1.534-.518c-.959 0-1.707.418-2.244 1.253-.532.835-.801 1.996-.805 3.483h.096a3.57 3.57 0 0 1 .831-.946 3.72 3.72 0 0 1 1.112-.607 3.91 3.91 0 0 1 1.304-.217c.758 0 1.445.185 2.058.556s1.11.874 1.477 1.521.549 1.389.549 2.225-.189 1.591-.568 2.269a4.18 4.18 0 0 1-1.586 1.611c-.682.392-1.478.584-2.39.575zm-.007-1.662c.503 0 .953-.124 1.349-.371s.71-.579.94-.997a2.85 2.85 0 0 0 .345-1.4c0-.503-.113-.961-.339-1.374a2.56 2.56 0 0 0-.92-.984c-.388-.243-.831-.365-1.33-.365-.379 0-.731.073-1.055.218s-.601.345-.843.6a2.93 2.93 0 0 0-.576.883 2.69 2.69 0 0 0-.204 1.041c0 .491.113.944.339 1.362s.543.754.939 1.01a2.5 2.5 0 0 0 1.355.377zm-11.625 33.7c-1.01-.004-1.873-.27-2.589-.799s-1.264-1.297-1.643-2.307-.569-2.227-.569-3.65.19-2.631.569-3.637.933-1.773 1.649-2.301 1.581-.793 2.583-.793 1.86.266 2.576.799 1.263 1.296 1.643 2.301.575 2.212.575 3.631c0 1.427-.19 2.646-.569 3.656s-.927 1.775-1.643 2.308-1.577.792-2.582.792zm0-1.706c.886 0 1.579-.433 2.077-1.298s.754-2.116.754-3.752c0-1.087-.115-2.005-.345-2.755s-.552-1.325-.978-1.713-.924-.588-1.508-.588c-.882 0-1.575.434-2.078 1.304s-.756 2.12-.76 3.752c0 1.091.113 2.013.338 2.768.231.75.557 1.319.978 1.706a2.18 2.18 0 0 0 1.522.576zm7.151 1.489l5.714-11.301v-.096h-6.609v-1.694h8.655v1.752L495.032 229h-2.064zm-7.151 32.217c-1.01-.004-1.873-.27-2.589-.799s-1.264-1.297-1.643-2.307-.569-2.227-.569-3.65.19-2.631.569-3.637.933-1.773 1.649-2.301 1.581-.793 2.583-.793 1.86.266 2.576.799 1.263 1.296 1.643 2.301.575 2.212.575 3.631c0 1.427-.19 2.646-.569 3.656s-.927 1.775-1.643 2.308-1.577.792-2.582.792zm0-1.706c.886 0 1.579-.433 2.077-1.298s.754-2.116.754-3.752c0-1.087-.115-2.005-.345-2.755s-.552-1.325-.978-1.713-.924-.588-1.508-.588c-.882 0-1.575.434-2.078 1.304s-.756 2.12-.76 3.752c0 1.091.113 2.013.338 2.768.231.75.557 1.319.978 1.706a2.18 2.18 0 0 0 1.522.576zm11.485 1.668c-.917 0-1.726-.158-2.429-.473s-1.247-.75-1.643-1.304a3.14 3.14 0 0 1-.588-1.892c-.004-.554.109-1.063.339-1.528a3.36 3.36 0 0 1 .952-1.17 2.95 2.95 0 0 1 1.342-.6v-.077c-.652-.158-1.174-.507-1.566-1.048s-.586-1.164-.581-1.867c-.005-.669.172-1.265.53-1.79s.859-.943 1.49-1.246 1.348-.454 2.154-.454c.797 0 1.508.154 2.135.46s1.127.718 1.489 1.247c.362.524.545 1.118.55 1.783a3.12 3.12 0 0 1-.601 1.867c-.396.541-.912.89-1.547 1.048v.077a2.86 2.86 0 0 1 1.323.6 3.4 3.4 0 0 1 .946 1.17c.239.465.36.974.364 1.528-.004.707-.204 1.338-.6 1.892s-.946.989-1.65 1.304c-.698.315-1.502.473-2.409.473zm0-1.617c.541 0 1.01-.09 1.406-.269s.703-.436.92-.76.328-.712.333-1.151c-.005-.456-.124-.859-.358-1.208a2.43 2.43 0 0 0-.94-.825c-.396-.201-.85-.3-1.361-.3-.516 0-.974.1-1.375.3s-.716.476-.946.825-.343.752-.338 1.208c-.005.439.1.823.313 1.151s.526.577.927.76.873.269 1.419.269zm0-6.092c.434 0 .82-.087 1.157-.262a1.99 1.99 0 0 0 .792-.729c.196-.311.296-.675.301-1.093-.005-.409-.103-.767-.294-1.074s-.45-.543-.787-.709-.726-.256-1.169-.256c-.452 0-.848.086-1.189.256s-.599.403-.786.709-.28.665-.275 1.074c-.005.418.089.782.281 1.093s.456.554.793.729.732.262 1.176.262zm-11.485 39.747c-1.01-.004-1.873-.27-2.589-.799s-1.264-1.297-1.643-2.307-.569-2.227-.569-3.65.19-2.631.569-3.637.933-1.773 1.649-2.301 1.581-.793 2.583-.793 1.86.266 2.576.799 1.263 1.296 1.643 2.301.575 2.212.575 3.631c0 1.427-.19 2.646-.569 3.656s-.927 1.775-1.643 2.308-1.577.792-2.582.792zm0-1.706c.886 0 1.579-.433 2.077-1.298s.754-2.116.754-3.752c0-1.087-.115-2.005-.345-2.755s-.552-1.325-.978-1.713-.924-.588-1.508-.588c-.882 0-1.575.434-2.078 1.304s-.756 2.12-.76 3.752c0 1.091.113 2.013.338 2.768.231.75.557 1.319.978 1.706a2.18 2.18 0 0 0 1.522.576zm11.414-11.781c.584.004 1.159.111 1.726.32s1.078.549 1.534 1.022.827 1.113 1.1 1.918.417 1.798.422 2.992c0 1.146-.115 2.166-.346 3.061s-.56 1.643-.99 2.257a4.34 4.34 0 0 1-1.554 1.4c-.609.319-1.295.479-2.058.479-.78 0-1.472-.153-2.077-.46a3.96 3.96 0 0 1-1.477-1.272c-.379-.546-.616-1.172-.709-1.88h1.949c.128.563.388 1.019.78 1.368s.908.518 1.534.518c.959 0 1.707-.417 2.244-1.253s.807-2.011.812-3.515h-.103c-.221.366-.498.681-.831.946a3.77 3.77 0 0 1-1.106.613 3.89 3.89 0 0 1-1.31.218 3.93 3.93 0 0 1-2.058-.556c-.618-.371-1.11-.88-1.477-1.528s-.549-1.387-.549-2.218.187-1.577.562-2.25a4.2 4.2 0 0 1 1.585-1.598c.682-.397 1.481-.59 2.397-.582zm.007 1.662a2.52 2.52 0 0 0-1.349.371c-.396.243-.709.573-.94.991s-.345.873-.345 1.38.111.968.333 1.381a2.63 2.63 0 0 0 .92.978c.392.239.84.358 1.342.358.375 0 .725-.073 1.049-.217a2.67 2.67 0 0 0 .85-.601 2.94 2.94 0 0 0 .569-.882c.136-.329.204-.674.204-1.036 0-.481-.115-.929-.345-1.342s-.537-.746-.933-.997-.848-.384-1.355-.384zm-11.012 30.517V325h-1.982v-11.109h-.076l-3.132 2.045v-1.892l3.266-2.135h1.924zm8.099 13.308c-1.01-.004-1.873-.27-2.589-.799s-1.264-1.297-1.643-2.307-.569-2.227-.569-3.65.19-2.631.569-3.637.933-1.773 1.649-2.301 1.581-.793 2.583-.793 1.86.266 2.576.799 1.263 1.296 1.642 2.301.576 2.212.576 3.631c0 1.427-.19 2.646-.569 3.656s-.927 1.775-1.643 2.308-1.577.792-2.582.792zm0-1.706c.886 0 1.578-.433 2.077-1.298s.754-2.116.754-3.752c0-1.087-.115-2.005-.345-2.755s-.552-1.325-.978-1.713a2.14 2.14 0 0 0-1.508-.588c-.883 0-1.575.434-2.078 1.304s-.756 2.12-.76 3.752c0 1.091.112 2.013.338 2.768s.556 1.319.978 1.706a2.18 2.18 0 0 0 1.522.576zm59.901-235.602V101h-1.982V89.891h-.076l-3.132 2.045v-1.892l3.266-2.135h1.924zm7.862 13.27c-.801 0-1.521-.153-2.16-.46s-1.142-.737-1.522-1.279a3.38 3.38 0 0 1-.607-1.854h1.918c.046.563.296 1.025.747 1.387s.993.543 1.624.543c.503 0 .948-.115 1.336-.345a2.47 2.47 0 0 0 .92-.965c.226-.409.339-.876.339-1.4 0-.533-.115-1.008-.345-1.425a2.55 2.55 0 0 0-.952-.984c-.404-.238-.861-.36-1.381-.364a3.69 3.69 0 0 0-1.195.204c-.401.136-.725.315-.972.537l-1.809-.268.735-6.597h7.198v1.694h-5.555l-.416 3.663h.077c.256-.247.595-.454 1.017-.62a3.73 3.73 0 0 1 1.367-.249c.797 0 1.507.19 2.129.569a4.05 4.05 0 0 1 1.477 1.553c.362.652.541 1.402.536 2.25.005.848-.187 1.604-.575 2.269a4.19 4.19 0 0 1-1.598 1.572c-.682.383-1.455.569-2.333.569zm-7.862 18.73V133h-1.982v-11.109h-.076l-3.132 2.045v-1.892l3.266-2.135h1.924zm8.111 13.27c-.583-.009-1.159-.115-1.725-.32s-1.074-.545-1.535-1.022-.828-1.119-1.105-1.924-.41-1.811-.41-3.017c0-1.142.113-2.157.339-3.043s.561-1.634.991-2.244.95-1.08 1.56-1.399 1.293-.48 2.052-.48c.779 0 1.472.154 2.077.46a3.9 3.9 0 0 1 1.47 1.272 4.26 4.26 0 0 1 .722 1.848h-1.949c-.132-.546-.394-.991-.786-1.336s-.904-.518-1.534-.518c-.959 0-1.707.418-2.244 1.253s-.801 1.996-.805 3.483h.095a3.57 3.57 0 0 1 .831-.946c.333-.264.704-.466 1.113-.607a3.91 3.91 0 0 1 1.304-.217c.758 0 1.444.185 2.058.556s1.11.874 1.476 1.521.55 1.389.55 2.225-.19 1.591-.569 2.269a4.2 4.2 0 0 1-1.585 1.611c-.682.392-1.479.584-2.391.575zm-.006-1.662a2.5 2.5 0 0 0 1.349-.371 2.67 2.67 0 0 0 .939-.997 2.85 2.85 0 0 0 .345-1.4c0-.503-.112-.961-.338-1.374s-.529-.741-.921-.984a2.46 2.46 0 0 0-1.329-.365 2.55 2.55 0 0 0-1.055.218 2.67 2.67 0 0 0-.844.6c-.243.256-.434.55-.575.883a2.69 2.69 0 0 0-.205 1.041c0 .491.113.944.339 1.362a2.78 2.78 0 0 0 .94 1.01c.4.251.852.377 1.355.377zm-8.105 20.392V165h-1.982v-11.109h-.076l-3.132 2.045v-1.892l3.266-2.135h1.924zM558.208 165l5.715-11.301v-.096h-6.61v-1.694h8.655v1.752L560.273 165h-2.065zm-3.982 18.909V197h-1.982v-11.109h-.076l-3.132 2.045v-1.892l3.266-2.135h1.924zm7.964 13.27c-.916 0-1.726-.158-2.429-.473s-1.246-.75-1.642-1.304-.593-1.185-.588-1.892c-.005-.554.108-1.063.338-1.528s.552-.858.953-1.17.848-.515 1.342-.6v-.077c-.652-.158-1.174-.507-1.566-1.048a3.07 3.07 0 0 1-.582-1.867c-.004-.669.173-1.265.531-1.79s.859-.943 1.489-1.246 1.349-.454 2.154-.454c.797 0 1.509.154 2.135.46s1.127.718 1.49 1.247c.362.524.545 1.118.549 1.783-.004.703-.204 1.325-.601 1.867a2.66 2.66 0 0 1-1.546 1.048v.077a2.86 2.86 0 0 1 1.323.6 3.41 3.41 0 0 1 .946 1.17c.238.465.36.974.364 1.528a3.2 3.2 0 0 1-.601 1.892c-.396.554-.946.989-1.649 1.304s-1.502.473-2.41.473zm0-1.617c.542 0 1.01-.09 1.407-.269s.703-.436.92-.76.328-.712.332-1.151c-.004-.456-.123-.859-.358-1.208a2.4 2.4 0 0 0-.939-.825c-.396-.2-.85-.3-1.362-.3s-.973.1-1.374.3-.716.476-.946.825a2.11 2.11 0 0 0-.339 1.208c-.004.439.1.823.313 1.151s.527.577.927.76.874.269 1.419.269zm0-6.092c.435 0 .821-.087 1.157-.262s.601-.418.793-.729a2.08 2.08 0 0 0 .3-1.093c-.004-.409-.102-.767-.294-1.074a1.89 1.89 0 0 0-.786-.709c-.337-.166-.726-.256-1.17-.256-.451 0-.848.086-1.189.256s-.598.403-.786.709-.279.665-.275 1.074c-.004.418.09.782.282 1.093a1.99 1.99 0 0 0 .792.729 2.54 2.54 0 0 0 1.176.262zm-7.964 26.439V229h-1.982v-11.109h-.076l-3.132 2.045v-1.892l3.266-2.135h1.924zm7.894-.179c.584.004 1.159.111 1.726.32s1.078.549 1.534 1.022.827 1.113 1.099 1.918.418 1.798.422 2.992c0 1.146-.115 2.166-.345 3.061s-.56 1.643-.991 2.257-.944 1.08-1.553 1.4-1.295.479-2.058.479c-.78 0-1.472-.153-2.078-.46a3.95 3.95 0 0 1-1.476-1.272c-.379-.541-.616-1.172-.71-1.88h1.95c.128.563.388 1.019.78 1.368s.907.518 1.534.518c.959 0 1.707-.417 2.243-1.253s.808-2.011.812-3.515h-.102a3.57 3.57 0 0 1-.831.946c-.328.264-.697.468-1.106.613s-.846.218-1.31.218c-.754 0-1.441-.186-2.058-.556s-1.111-.88-1.477-1.528-.55-1.387-.55-2.218.188-1.577.563-2.25.907-1.206 1.585-1.598 1.481-.59 2.397-.582zm.006 1.662c-.498 0-.948.124-1.348.371a2.62 2.62 0 0 0-.94.991c-.23.413-.345.873-.345 1.38s.111.968.332 1.381a2.64 2.64 0 0 0 .921.978c.392.239.839.358 1.342.358.375 0 .725-.073 1.048-.217a2.67 2.67 0 0 0 .851-.601c.243-.255.432-.554.568-.882a2.68 2.68 0 0 0 .205-1.036c0-.481-.115-.929-.345-1.342s-.537-.746-.933-.997-.848-.384-1.356-.384zM549.259 261v-1.432l4.43-4.589 1.17-1.311c.311-.379.543-.739.696-1.08a2.61 2.61 0 0 0 .231-1.087c0-.434-.103-.809-.307-1.125a2.03 2.03 0 0 0-.838-.735 2.67 2.67 0 0 0-1.195-.262c-.469 0-.878.096-1.227.288a1.97 1.97 0 0 0-.806.812c-.187.349-.281.758-.281 1.227h-1.886c0-.797.184-1.494.55-2.09a3.73 3.73 0 0 1 1.509-1.387c.639-.333 1.365-.499 2.179-.499.823 0 1.547.164 2.174.492s1.123.767 1.476 1.33.531 1.189.531 1.892c0 .486-.092.961-.275 1.425s-.492.983-.94 1.554-1.069 1.255-1.866 2.064l-2.602 2.723v.096h5.894V261h-8.617zm15.597.217c-1.01-.004-1.873-.27-2.589-.799s-1.263-1.297-1.643-2.307-.569-2.227-.569-3.65.19-2.631.569-3.637.934-1.773 1.649-2.301c.721-.529 1.581-.793 2.583-.793s1.86.266 2.576.799 1.263 1.296 1.643 2.301.575 2.212.575 3.631c0 1.427-.19 2.646-.569 3.656s-.927 1.775-1.643 2.308-1.576.792-2.582.792zm0-1.706c.886 0 1.579-.433 2.077-1.298s.755-2.116.755-3.752c0-1.087-.116-2.005-.346-2.755s-.552-1.325-.978-1.713-.924-.588-1.508-.588c-.882 0-1.575.434-2.078 1.304s-.756 2.12-.76 3.752c0 1.091.113 2.013.339 2.768s.556 1.319.978 1.706.928.576 1.521.576zM549.259 293v-1.432l4.43-4.589 1.17-1.311c.311-.379.543-.739.696-1.08a2.61 2.61 0 0 0 .231-1.087c0-.434-.103-.809-.307-1.125a2.03 2.03 0 0 0-.838-.735 2.67 2.67 0 0 0-1.195-.262c-.469 0-.878.096-1.227.288a1.97 1.97 0 0 0-.806.812c-.187.349-.281.758-.281 1.227h-1.886c0-.797.184-1.494.55-2.09a3.73 3.73 0 0 1 1.509-1.387c.639-.333 1.365-.499 2.179-.499.823 0 1.547.164 2.174.492s1.123.767 1.476 1.33.531 1.189.531 1.892c0 .486-.092.961-.275 1.425s-.492.983-.94 1.554-1.069 1.255-1.866 2.064l-2.602 2.723v.096h5.894V293h-8.617zm16.006-13.091V293h-1.982v-11.109h-.076l-3.132 2.045v-1.892l3.266-2.135h1.924zM549.259 325v-1.432l4.43-4.589 1.17-1.311c.311-.379.543-.739.696-1.08a2.61 2.61 0 0 0 .231-1.087c0-.434-.103-.809-.307-1.125a2.03 2.03 0 0 0-.838-.735 2.67 2.67 0 0 0-1.195-.262c-.469 0-.878.096-1.227.288a1.97 1.97 0 0 0-.806.812c-.187.349-.281.758-.281 1.227h-1.886c0-.797.184-1.494.55-2.09a3.73 3.73 0 0 1 1.509-1.387c.639-.333 1.365-.499 2.179-.499.823 0 1.547.164 2.174.492s1.123.767 1.476 1.33.531 1.189.531 1.892c0 .486-.092.961-.275 1.425s-.492.983-.94 1.554-1.069 1.255-1.866 2.064l-2.602 2.723v.096h5.894V325h-8.617zm11.039 0v-1.432l4.43-4.589 1.17-1.311c.311-.379.543-.739.696-1.08a2.61 2.61 0 0 0 .231-1.087c0-.434-.103-.809-.307-1.125a2.03 2.03 0 0 0-.838-.735 2.67 2.67 0 0 0-1.195-.262c-.469 0-.878.096-1.227.288a1.97 1.97 0 0 0-.806.812c-.187.349-.281.758-.281 1.227h-1.885c0-.797.183-1.494.549-2.09s.87-1.059 1.509-1.387 1.366-.499 2.179-.499c.823 0 1.547.164 2.174.492s1.123.767 1.476 1.33.531 1.189.531 1.892c0 .486-.092.961-.275 1.425s-.492.983-.94 1.554-1.069 1.255-1.866 2.064l-2.602 2.723v.096h5.894V325h-8.617zm50.14-192v-13.091h4.666c1.019 0 1.863.185 2.532.556s1.169.878 1.502 1.522.498 1.359.498 2.16-.168 1.53-.505 2.173a3.66 3.66 0 0 1-1.508 1.522c-.669.37-1.511.556-2.525.556h-3.209v-1.675h3.03c.644 0 1.166-.111 1.566-.332.401-.226.695-.533.882-.921a3.01 3.01 0 0 0 .281-1.323c0-.494-.093-.933-.281-1.317s-.483-.684-.888-.901-.929-.326-1.586-.326h-2.48V133h-1.975zm11.514-13.091h2.397l4.168 10.176h.153l4.168-10.176h2.397V133h-1.88v-9.473h-.121l-3.861 9.454h-1.56l-3.86-9.46h-.122V133h-1.879v-13.091z" fill="#000"/><rect x="568" y="370" width="63" height="29" rx="4" fill="#90f"/><path d="M596.06 390.137a4.8 4.8 0 0 1-1.917-.383 4.97 4.97 0 0 1-1.561-1.055c-.447-.456-.798-.981-1.054-1.574-.246-.602-.369-1.246-.369-1.93s.123-1.324.369-1.917c.256-.593.603-1.113 1.041-1.56a4.71 4.71 0 0 1 1.547-1.055 4.8 4.8 0 0 1 1.916-.383c.685 0 1.319.128 1.903.383.593.247 1.114.598 1.561 1.055.447.447.794.972 1.04 1.574.256.593.384 1.232.384 1.916s-.128 1.328-.384 1.931c-.246.593-.593 1.113-1.04 1.56-.438.448-.954.799-1.547 1.055a4.67 4.67 0 0 1-1.889.383zm-.028-1.506c.648 0 1.214-.146 1.698-.438.493-.292.876-.694 1.15-1.205.283-.52.424-1.118.424-1.793 0-.502-.082-.958-.246-1.369a3.05 3.05 0 0 0-.671-1.082 2.95 2.95 0 0 0-1.041-.712c-.392-.164-.83-.246-1.314-.246-.639 0-1.204.146-1.697.438-.484.283-.867.68-1.15 1.191-.274.511-.411 1.104-.411 1.78 0 .502.078.967.233 1.396.164.42.388.781.671 1.082.292.301.638.538 1.04.712.402.164.84.246 1.314.246zM608.311 390l-4.435-4.997 4.34-4.586h2.012l-4.791 4.983.013-.862 4.915 5.462h-2.054zm-5.79 0v-9.583h1.574V390h-1.574z" fill="#fff"/><path d="M32.182 390v-9.583h1.095l.479 1.807V390h-1.574zm6.64 0l-5.736-7.488.192-2.095 5.736 7.488-.192 2.095zm0 0l-.479-1.684v-7.899h1.574V390h-1.095zm7.582.137a4.8 4.8 0 0 1-1.917-.383c-.593-.256-1.114-.607-1.561-1.055-.447-.456-.799-.981-1.054-1.574-.246-.602-.37-1.246-.37-1.93s.123-1.324.37-1.917c.256-.593.602-1.113 1.04-1.56a4.71 4.71 0 0 1 1.547-1.055 4.8 4.8 0 0 1 1.917-.383c.684 0 1.319.128 1.903.383.593.247 1.114.598 1.561 1.055.447.447.794.972 1.04 1.574a4.79 4.79 0 0 1 .383 1.916c0 .685-.128 1.328-.383 1.931a4.77 4.77 0 0 1-1.04 1.56c-.438.448-.954.799-1.547 1.055a4.67 4.67 0 0 1-1.889.383zm-.027-1.506c.648 0 1.214-.146 1.698-.438.493-.292.876-.694 1.15-1.205.283-.52.424-1.118.424-1.793 0-.502-.082-.958-.246-1.369a3.05 3.05 0 0 0-.671-1.082c-.292-.31-.639-.547-1.041-.712-.392-.164-.831-.246-1.314-.246-.639 0-1.205.146-1.698.438-.484.283-.867.68-1.15 1.191-.274.511-.411 1.104-.411 1.78 0 .502.078.967.233 1.396.164.42.388.781.671 1.082a3.21 3.21 0 0 0 1.041.712c.401.164.84.246 1.314.246zM54.914 390l-3.149-9.583h1.547l2.368 7.379h-.411l2.314-7.379h1.095l2.314 7.379h-.411l2.368-7.379h1.547L61.348 390h-1.095l-2.327-7.365h.411L56.009 390h-1.095z" fill="#90f"/><defs><clipPath id="A"><path fill="#fff" transform="translate(0 78.926)" d="M0 0h458.035v29.596H0z"/></clipPath></defs></svg>