<svg width="789" height="435" viewBox="0 0 789 435" fill="none" xmlns="http://www.w3.org/2000/svg">
<g filter="url(#filter0_f_3_492)">
<line x1="20" y1="152" x2="763" y2="152" stroke="#D9D9D9" stroke-width="2"/>
<g clip-path="url(#clip0_3_492)">
<mask id="mask0_3_492" style="mask-type:luminance" maskUnits="userSpaceOnUse" x="20" y="100" width="40" height="40">
<path d="M20 100H60V140H20V100Z" fill="white"/>
</mask>
<g mask="url(#mask0_3_492)">
<path d="M59.5 120C59.5 130.77 50.7696 139.5 40 139.5C29.2304 139.5 20.5 130.77 20.5 120C20.5 109.23 29.2304 100.5 40 100.5C50.7696 100.5 59.5 109.23 59.5 120Z" fill="#D9E1ED" stroke="#7A2EEE"/>
<path d="M53 120.079C53 126.608 48.246 132.019 42.031 133V123.86H45.06L45.636 120.079H42.03V117.626C42.03 116.591 42.534 115.583 44.149 115.583H45.788V112.364C45.788 112.364 44.3 112.109 42.878 112.109C39.909 112.109 37.968 113.92 37.968 117.198V120.079H34.667V123.86H37.968V133C31.754 132.019 27 126.608 27 120.079C27 112.856 32.821 107 40 107C47.179 107 53 112.856 53 120.079Z" fill="#1877F2"/>
<path d="M45.06 123.758L45.637 120H42.031V117.561C42.031 116.533 42.535 115.531 44.15 115.531H45.789V112.332C45.789 112.332 44.301 112.078 42.879 112.078C39.91 112.078 37.969 113.878 37.969 117.136V120H34.668V123.758H37.969V132.842C39.3147 133.053 40.6852 133.053 42.031 132.842V123.758H45.06Z" fill="white"/>
</g>
</g>
<g clip-path="url(#clip1_3_492)">
<path d="M90 140C101.046 140 110 131.046 110 120C110 108.954 101.046 100 90 100C78.9543 100 70 108.954 70 120C70 131.046 78.9543 140 90 140Z" fill="#FFE6DE"/>
<path d="M95.255 107H84.746C80.475 107 77 110.475 77 114.746V125.255C77 129.525 80.475 133 84.746 133H95.255C99.525 133 103 129.525 103 125.255V114.746C103 110.475 99.525 107 95.255 107ZM100.385 125.255C100.385 126.616 99.8445 127.92 98.8825 128.882C97.9204 129.845 96.6156 130.385 95.255 130.385H84.746C83.3854 130.385 82.0806 129.845 81.1185 128.882C80.1565 127.92 79.616 126.616 79.616 125.255V114.746C79.616 113.385 80.1565 112.081 81.1185 111.119C82.0806 110.156 83.3854 109.616 84.746 109.616H95.255C96.6156 109.616 97.9204 110.156 98.8825 111.119C99.8445 112.081 100.385 113.385 100.385 114.746V125.255Z" fill="url(#paint0_linear_3_492)"/>
<path d="M89.9999 113.276C86.2919 113.276 83.2749 116.293 83.2749 120.001C83.2749 123.709 86.2919 126.725 89.9999 126.725C93.7079 126.725 96.7239 123.708 96.7239 120.001C96.7239 116.294 93.7069 113.276 89.9999 113.276ZM89.9999 124.109C88.9102 124.109 87.8652 123.676 87.0947 122.905C86.3242 122.135 85.8912 121.09 85.8909 120C85.8912 118.91 86.3242 117.865 87.0947 117.095C87.8652 116.324 88.9102 115.891 89.9999 115.891C91.0896 115.891 92.1346 116.324 92.9051 117.095C93.6756 117.865 94.1086 118.91 94.1089 120C94.1086 121.09 93.6756 122.135 92.9051 122.905C92.1346 123.676 91.0896 124.109 89.9999 124.109Z" fill="url(#paint1_linear_3_492)"/>
<path d="M96.738 114.937C97.1654 114.937 97.5753 114.767 97.8775 114.465C98.1797 114.163 98.3495 113.753 98.3495 113.325C98.3495 112.898 98.1797 112.488 97.8775 112.186C97.5753 111.884 97.1654 111.714 96.738 111.714C96.5263 111.714 96.3168 111.756 96.1213 111.837C95.9258 111.918 95.7481 112.036 95.5985 112.186C95.4488 112.336 95.3301 112.513 95.2491 112.709C95.1681 112.904 95.1265 113.114 95.1265 113.325C95.1265 113.537 95.1681 113.747 95.2491 113.942C95.3301 114.138 95.4488 114.315 95.5985 114.465C95.7481 114.615 95.9258 114.733 96.1213 114.814C96.3168 114.895 96.5263 114.937 96.738 114.937Z" fill="url(#paint2_linear_3_492)"/>
</g>
<g clip-path="url(#clip2_3_492)">
<path d="M140 140C151.046 140 160 131.046 160 120C160 108.954 151.046 100 140 100C128.954 100 120 108.954 120 120C120 131.046 128.954 140 140 140Z" fill="#D3F0FF"/>
<path d="M140 133C147.18 133 153 127.18 153 120C153 112.82 147.18 107 140 107C132.82 107 127 112.82 127 120C127 127.18 132.82 133 140 133Z" fill="#007AB9"/>
<path d="M147.767 121.046V126.406H144.66V121.406C144.66 120.15 144.211 119.293 143.086 119.293C142.227 119.293 141.717 119.87 141.492 120.429C141.41 120.629 141.389 120.906 141.389 121.186V126.406H138.281V117.06H141.389V118.384C141.383 118.394 141.374 118.405 141.368 118.415H141.389V118.384C141.802 117.749 142.538 116.84 144.19 116.84C146.234 116.84 147.767 118.176 147.767 121.046ZM135.031 112.555C133.968 112.555 133.273 113.253 133.273 114.17C133.273 115.067 133.948 115.785 134.991 115.785H135.011C136.095 115.785 136.769 115.067 136.769 114.17C136.748 113.253 136.094 112.555 135.031 112.555ZM133.457 126.406H136.564V117.06H133.457V126.406Z" fill="#F1F2F2"/>
</g>
<g clip-path="url(#clip3_3_492)">
<path d="M190 140C201.046 140 210 131.046 210 120C210 108.954 201.046 100 190 100C178.954 100 170 108.954 170 120C170 131.046 178.954 140 190 140Z" fill="#D4F2FF"/>
<path d="M203 111.501C202.033 111.925 201.003 112.206 199.929 112.343C201.045 111.681 201.879 110.633 202.274 109.397C201.244 110.011 200.106 110.445 198.894 110.687C198.395 110.155 197.792 109.73 197.122 109.44C196.452 109.15 195.73 109 195 109C193.587 109.001 192.231 109.563 191.232 110.563C190.233 111.563 189.672 112.919 189.673 114.332C189.673 114.754 189.709 115.161 189.796 115.548C185.365 115.332 181.443 113.208 178.809 109.973C178.349 110.771 178.079 111.684 178.079 112.667C178.079 114.513 179.03 116.149 180.447 117.097C179.591 117.081 178.751 116.832 178.039 116.441V116.499C178.039 119.089 179.887 121.241 182.31 121.736C181.876 121.855 181.403 121.911 180.913 121.911C180.572 121.911 180.227 121.892 179.904 121.82C180.595 123.931 182.554 125.483 184.885 125.533C182.998 127.008 180.671 127.809 178.276 127.806C177.839 127.806 177.42 127.786 177 127.733C179.361 129.256 182.159 130.125 185.177 130.125C194.985 130.125 200.348 122 200.348 114.957C200.348 114.721 200.34 114.494 200.328 114.268C201.386 113.517 202.275 112.58 203 111.501Z" fill="#03A9F4"/>
</g>
<path d="M21.148 46V36.284H22.072L22.464 37.81V46H21.148ZM27.868 46L21.904 38.034L22.072 36.284L28.05 44.236L27.868 46ZM27.868 46L27.476 44.558V36.284H28.792V46H27.868ZM33.6915 46.14C33.0848 46.14 32.5341 45.9907 32.0395 45.692C31.5448 45.384 31.1528 44.9687 30.8635 44.446C30.5835 43.9233 30.4435 43.3353 30.4435 42.682C30.4435 42.0287 30.5835 41.4407 30.8635 40.918C31.1528 40.3953 31.5401 39.98 32.0255 39.672C32.5201 39.364 33.0755 39.21 33.6915 39.21C34.1955 39.21 34.6435 39.3173 35.0355 39.532C35.4368 39.7373 35.7588 40.0267 36.0015 40.4C36.2441 40.764 36.3795 41.1887 36.4075 41.674V43.676C36.3795 44.152 36.2441 44.5767 36.0015 44.95C35.7681 45.3233 35.4508 45.6173 35.0495 45.832C34.6575 46.0373 34.2048 46.14 33.6915 46.14ZM33.9015 44.95C34.5268 44.95 35.0308 44.74 35.4135 44.32C35.7961 43.8907 35.9875 43.3447 35.9875 42.682C35.9875 42.2247 35.8988 41.828 35.7215 41.492C35.5535 41.1467 35.3108 40.8807 34.9935 40.694C34.6761 40.498 34.3075 40.4 33.8875 40.4C33.4675 40.4 33.0941 40.498 32.7675 40.694C32.4501 40.89 32.1981 41.1607 32.0115 41.506C31.8341 41.842 31.7455 42.2293 31.7455 42.668C31.7455 43.116 31.8341 43.5127 32.0115 43.858C32.1981 44.194 32.4548 44.46 32.7815 44.656C33.1081 44.852 33.4815 44.95 33.9015 44.95ZM35.9035 46V44.208L36.1415 42.584L35.9035 40.974V39.35H37.1775V46H35.9035ZM39.0119 46V39.35H40.2719V46H39.0119ZM43.5059 46V41.982C43.5059 41.4873 43.3519 41.1 43.0439 40.82C42.7452 40.5307 42.3672 40.386 41.9099 40.386C41.6019 40.386 41.3266 40.4513 41.0839 40.582C40.8412 40.7127 40.6452 40.8947 40.4959 41.128C40.3466 41.3613 40.2719 41.6413 40.2719 41.968L39.7539 41.716C39.7539 41.212 39.8612 40.7733 40.0759 40.4C40.2999 40.0267 40.6032 39.7373 40.9859 39.532C41.3686 39.3173 41.7979 39.21 42.2739 39.21C42.7406 39.21 43.1606 39.3127 43.5339 39.518C43.9166 39.7233 44.2152 40.0127 44.4299 40.386C44.6539 40.7593 44.7659 41.2027 44.7659 41.716V46H43.5059ZM47.9999 46V41.982C47.9999 41.4873 47.8459 41.1 47.5379 40.82C47.2392 40.5307 46.8659 40.386 46.4179 40.386C46.1099 40.386 45.8299 40.4513 45.5779 40.582C45.3352 40.7127 45.1392 40.8947 44.9899 41.128C44.8406 41.3613 44.7659 41.6413 44.7659 41.968L44.0519 41.716C44.0799 41.2027 44.2152 40.764 44.4579 40.4C44.7099 40.0267 45.0319 39.7373 45.4239 39.532C45.8159 39.3173 46.2452 39.21 46.7119 39.21C47.1972 39.21 47.6312 39.3127 48.0139 39.518C48.3966 39.7233 48.6999 40.0127 48.9239 40.386C49.1572 40.7593 49.2739 41.2073 49.2739 41.73V46H47.9999ZM54.0685 46.14C53.4058 46.14 52.8085 45.9907 52.2765 45.692C51.7445 45.384 51.3245 44.9687 51.0165 44.446C50.7085 43.9233 50.5545 43.3307 50.5545 42.668C50.5545 42.0147 50.7038 41.4267 51.0025 40.904C51.3105 40.3813 51.7211 39.9707 52.2345 39.672C52.7571 39.364 53.3405 39.21 53.9845 39.21C54.6005 39.21 55.1418 39.35 55.6085 39.63C56.0845 39.91 56.4531 40.2973 56.7145 40.792C56.9851 41.2867 57.1205 41.8467 57.1205 42.472C57.1205 42.5653 57.1158 42.668 57.1065 42.78C57.0971 42.8827 57.0785 43.004 57.0505 43.144H51.4365V42.094H56.3785L55.9165 42.5C55.9165 42.052 55.8371 41.674 55.6785 41.366C55.5198 41.0487 55.2958 40.806 55.0065 40.638C54.7171 40.4607 54.3671 40.372 53.9565 40.372C53.5271 40.372 53.1491 40.4653 52.8225 40.652C52.4958 40.8387 52.2438 41.1 52.0665 41.436C51.8891 41.772 51.8005 42.1687 51.8005 42.626C51.8005 43.0927 51.8938 43.5033 52.0805 43.858C52.2671 44.2033 52.5331 44.474 52.8785 44.67C53.2238 44.8567 53.6205 44.95 54.0685 44.95C54.4418 44.95 54.7825 44.8847 55.0905 44.754C55.4078 44.6233 55.6785 44.4273 55.9025 44.166L56.7145 44.992C56.3971 45.3653 56.0051 45.65 55.5385 45.846C55.0811 46.042 54.5911 46.14 54.0685 46.14Z" fill="#2B3136"/>
<rect x="20" y="151" width="40" height="2" fill="#7A2EEE"/>
<rect x="409.5" y="168.5" width="99" height="99" rx="9.5" stroke="#D9D9D9" stroke-dasharray="9 9"/>
<path d="M449.87 219.249V217.445H465.942V219.249H449.87ZM456.963 209.901H458.849V226.793H456.963V209.901Z" fill="#2B3136"/>
<rect x="21" y="169" width="356" height="145" rx="9" stroke="#D9D9D9" stroke-width="2"/>
<rect x="676" y="398" width="87" height="29" rx="10" fill="#6817FF"/>
<rect x="492.5" y="398.5" width="86" height="28" rx="9.5" stroke="#D9D9D9" stroke-dasharray="2 2"/>
<path d="M510.3 417.12C509.644 417.12 509.084 417 508.62 416.76C508.156 416.52 507.744 416.172 507.384 415.716L508.152 414.948C508.416 415.316 508.72 415.596 509.064 415.788C509.408 415.972 509.832 416.064 510.336 416.064C510.832 416.064 511.228 415.956 511.524 415.74C511.828 415.524 511.98 415.228 511.98 414.852C511.98 414.54 511.908 414.288 511.764 414.096C511.62 413.904 511.424 413.748 511.176 413.628C510.936 413.5 510.672 413.388 510.384 413.292C510.096 413.188 509.808 413.08 509.52 412.968C509.232 412.848 508.968 412.704 508.728 412.536C508.488 412.36 508.292 412.132 508.14 411.852C507.996 411.572 507.924 411.22 507.924 410.796C507.924 410.324 508.036 409.924 508.26 409.596C508.492 409.26 508.804 409.004 509.196 408.828C509.596 408.644 510.044 408.552 510.54 408.552C511.084 408.552 511.572 408.66 512.004 408.876C512.436 409.084 512.788 409.36 513.06 409.704L512.292 410.472C512.044 410.184 511.776 409.968 511.488 409.824C511.208 409.68 510.884 409.608 510.516 409.608C510.068 409.608 509.712 409.708 509.448 409.908C509.184 410.1 509.052 410.372 509.052 410.724C509.052 411.004 509.124 411.232 509.268 411.408C509.42 411.576 509.616 411.72 509.856 411.84C510.096 411.96 510.36 412.072 510.648 412.176C510.944 412.272 511.236 412.38 511.524 412.5C511.812 412.62 512.076 412.772 512.316 412.956C512.556 413.14 512.748 413.38 512.892 413.676C513.044 413.964 513.12 414.328 513.12 414.768C513.12 415.504 512.864 416.08 512.352 416.496C511.848 416.912 511.164 417.12 510.3 417.12ZM516.79 417.12C516.27 417.12 515.798 416.992 515.374 416.736C514.95 416.472 514.614 416.116 514.366 415.668C514.126 415.22 514.006 414.716 514.006 414.156C514.006 413.596 514.126 413.092 514.366 412.644C514.614 412.196 514.946 411.84 515.362 411.576C515.786 411.312 516.262 411.18 516.79 411.18C517.222 411.18 517.606 411.272 517.942 411.456C518.286 411.632 518.562 411.88 518.77 412.2C518.978 412.512 519.094 412.876 519.118 413.292V415.008C519.094 415.416 518.978 415.78 518.77 416.1C518.57 416.42 518.298 416.672 517.954 416.856C517.618 417.032 517.23 417.12 516.79 417.12ZM516.97 416.1C517.506 416.1 517.938 415.92 518.266 415.56C518.594 415.192 518.758 414.724 518.758 414.156C518.758 413.764 518.682 413.424 518.53 413.136C518.386 412.84 518.178 412.612 517.906 412.452C517.634 412.284 517.318 412.2 516.958 412.2C516.598 412.2 516.278 412.284 515.998 412.452C515.726 412.62 515.51 412.852 515.35 413.148C515.198 413.436 515.122 413.768 515.122 414.144C515.122 414.528 515.198 414.868 515.35 415.164C515.51 415.452 515.73 415.68 516.01 415.848C516.29 416.016 516.61 416.1 516.97 416.1ZM518.686 417V415.464L518.89 414.072L518.686 412.692V411.3H519.778V417H518.686ZM523.307 417L520.691 411.3H521.891L523.991 416.112H523.295L525.407 411.3H526.559L523.943 417H523.307ZM529.897 417.12C529.329 417.12 528.817 416.992 528.361 416.736C527.905 416.472 527.545 416.116 527.281 415.668C527.017 415.22 526.885 414.712 526.885 414.144C526.885 413.584 527.013 413.08 527.269 412.632C527.533 412.184 527.885 411.832 528.325 411.576C528.773 411.312 529.273 411.18 529.825 411.18C530.353 411.18 530.817 411.3 531.217 411.54C531.625 411.78 531.941 412.112 532.165 412.536C532.397 412.96 532.513 413.44 532.513 413.976C532.513 414.056 532.509 414.144 532.501 414.24C532.493 414.328 532.477 414.432 532.453 414.552H527.641V413.652H531.877L531.481 414C531.481 413.616 531.413 413.292 531.277 413.028C531.141 412.756 530.949 412.548 530.701 412.404C530.453 412.252 530.153 412.176 529.801 412.176C529.433 412.176 529.109 412.256 528.829 412.416C528.549 412.576 528.333 412.8 528.181 413.088C528.029 413.376 527.953 413.716 527.953 414.108C527.953 414.508 528.033 414.86 528.193 415.164C528.353 415.46 528.581 415.692 528.877 415.86C529.173 416.02 529.513 416.1 529.897 416.1C530.217 416.1 530.509 416.044 530.773 415.932C531.045 415.82 531.277 415.652 531.469 415.428L532.165 416.136C531.893 416.456 531.557 416.7 531.157 416.868C530.765 417.036 530.345 417.12 529.897 417.12ZM537.123 417V415.968H539.439C540.055 415.968 540.595 415.836 541.059 415.572C541.523 415.3 541.883 414.928 542.139 414.456C542.403 413.984 542.535 413.44 542.535 412.824C542.535 412.216 542.403 411.676 542.139 411.204C541.875 410.732 541.511 410.364 541.047 410.1C540.583 409.836 540.047 409.704 539.439 409.704H537.135V408.672H539.463C540.071 408.672 540.631 408.776 541.143 408.984C541.663 409.192 542.111 409.484 542.487 409.86C542.871 410.236 543.167 410.676 543.375 411.18C543.591 411.684 543.699 412.236 543.699 412.836C543.699 413.428 543.591 413.98 543.375 414.492C543.167 414.996 542.875 415.436 542.499 415.812C542.123 416.188 541.675 416.48 541.155 416.688C540.643 416.896 540.087 417 539.487 417H537.123ZM536.379 417V408.672H537.507V417H536.379ZM545.069 417V411.3H546.149V417H545.069ZM546.149 413.748L545.741 413.568C545.741 412.84 545.909 412.26 546.245 411.828C546.581 411.396 547.065 411.18 547.697 411.18C547.985 411.18 548.245 411.232 548.477 411.336C548.709 411.432 548.925 411.596 549.125 411.828L548.417 412.56C548.297 412.432 548.165 412.34 548.021 412.284C547.877 412.228 547.709 412.2 547.517 412.2C547.117 412.2 546.789 412.328 546.533 412.584C546.277 412.84 546.149 413.228 546.149 413.748ZM552.122 417.12C551.602 417.12 551.13 416.992 550.706 416.736C550.282 416.472 549.946 416.116 549.698 415.668C549.458 415.22 549.338 414.716 549.338 414.156C549.338 413.596 549.458 413.092 549.698 412.644C549.946 412.196 550.278 411.84 550.694 411.576C551.118 411.312 551.594 411.18 552.122 411.18C552.554 411.18 552.938 411.272 553.274 411.456C553.618 411.632 553.894 411.88 554.102 412.2C554.31 412.512 554.426 412.876 554.45 413.292V415.008C554.426 415.416 554.31 415.78 554.102 416.1C553.902 416.42 553.63 416.672 553.286 416.856C552.95 417.032 552.562 417.12 552.122 417.12ZM552.302 416.1C552.838 416.1 553.27 415.92 553.598 415.56C553.926 415.192 554.09 414.724 554.09 414.156C554.09 413.764 554.014 413.424 553.862 413.136C553.718 412.84 553.51 412.612 553.238 412.452C552.966 412.284 552.65 412.2 552.29 412.2C551.93 412.2 551.61 412.284 551.33 412.452C551.058 412.62 550.842 412.852 550.682 413.148C550.53 413.436 550.454 413.768 550.454 414.144C550.454 414.528 550.53 414.868 550.682 415.164C550.842 415.452 551.062 415.68 551.342 415.848C551.622 416.016 551.942 416.1 552.302 416.1ZM554.018 417V415.464L554.222 414.072L554.018 412.692V411.3H555.11V417H554.018ZM557.475 417V410.448C557.475 410.024 557.567 409.656 557.751 409.344C557.935 409.024 558.187 408.772 558.507 408.588C558.835 408.404 559.215 408.312 559.647 408.312C559.975 408.312 560.259 408.368 560.499 408.48C560.739 408.592 560.959 408.756 561.159 408.972L560.451 409.668C560.347 409.556 560.231 409.472 560.103 409.416C559.975 409.352 559.819 409.32 559.635 409.32C559.291 409.32 559.023 409.42 558.831 409.62C558.647 409.82 558.555 410.096 558.555 410.448V417H557.475ZM556.071 412.284V411.3H560.367V412.284H556.071ZM561.988 417V408.912H563.068V417H561.988ZM560.584 412.284V411.3H564.472V412.284H560.584Z" fill="#2B3136"/>
<rect x="584.5" y="398.5" width="86" height="28" rx="9.5" stroke="#D9D9D9"/>
<path d="M607.3 417.12C606.644 417.12 606.084 417 605.62 416.76C605.156 416.52 604.744 416.172 604.384 415.716L605.152 414.948C605.416 415.316 605.72 415.596 606.064 415.788C606.408 415.972 606.832 416.064 607.336 416.064C607.832 416.064 608.228 415.956 608.524 415.74C608.828 415.524 608.98 415.228 608.98 414.852C608.98 414.54 608.908 414.288 608.764 414.096C608.62 413.904 608.424 413.748 608.176 413.628C607.936 413.5 607.672 413.388 607.384 413.292C607.096 413.188 606.808 413.08 606.52 412.968C606.232 412.848 605.968 412.704 605.728 412.536C605.488 412.36 605.292 412.132 605.14 411.852C604.996 411.572 604.924 411.22 604.924 410.796C604.924 410.324 605.036 409.924 605.26 409.596C605.492 409.26 605.804 409.004 606.196 408.828C606.596 408.644 607.044 408.552 607.54 408.552C608.084 408.552 608.572 408.66 609.004 408.876C609.436 409.084 609.788 409.36 610.06 409.704L609.292 410.472C609.044 410.184 608.776 409.968 608.488 409.824C608.208 409.68 607.884 409.608 607.516 409.608C607.068 409.608 606.712 409.708 606.448 409.908C606.184 410.1 606.052 410.372 606.052 410.724C606.052 411.004 606.124 411.232 606.268 411.408C606.42 411.576 606.616 411.72 606.856 411.84C607.096 411.96 607.36 412.072 607.648 412.176C607.944 412.272 608.236 412.38 608.524 412.5C608.812 412.62 609.076 412.772 609.316 412.956C609.556 413.14 609.748 413.38 609.892 413.676C610.044 413.964 610.12 414.328 610.12 414.768C610.12 415.504 609.864 416.08 609.352 416.496C608.848 416.912 608.164 417.12 607.3 417.12ZM613.97 417.12C613.41 417.12 612.902 416.988 612.446 416.724C611.998 416.46 611.642 416.104 611.378 415.656C611.122 415.2 610.994 414.696 610.994 414.144C610.994 413.584 611.122 413.08 611.378 412.632C611.642 412.184 611.998 411.832 612.446 411.576C612.902 411.312 613.41 411.18 613.97 411.18C614.41 411.18 614.818 411.264 615.194 411.432C615.57 411.592 615.894 411.828 616.166 412.14L615.446 412.86C615.27 412.652 615.054 412.496 614.798 412.392C614.55 412.28 614.274 412.224 613.97 412.224C613.61 412.224 613.29 412.308 613.01 412.476C612.73 412.636 612.51 412.86 612.35 413.148C612.19 413.436 612.11 413.768 612.11 414.144C612.11 414.52 612.19 414.852 612.35 415.14C612.51 415.428 612.73 415.656 613.01 415.824C613.29 415.992 613.61 416.076 613.97 416.076C614.274 416.076 614.55 416.024 614.798 415.92C615.054 415.808 615.274 415.648 615.458 415.44L616.166 416.16C615.902 416.464 615.578 416.7 615.194 416.868C614.818 417.036 614.41 417.12 613.97 417.12ZM621.269 417V413.676C621.269 413.244 621.133 412.888 620.861 412.608C620.589 412.328 620.237 412.188 619.805 412.188C619.517 412.188 619.261 412.252 619.037 412.38C618.813 412.508 618.637 412.684 618.509 412.908C618.381 413.132 618.317 413.388 618.317 413.676L617.873 413.424C617.873 412.992 617.969 412.608 618.161 412.272C618.353 411.936 618.621 411.672 618.965 411.48C619.309 411.28 619.697 411.18 620.129 411.18C620.561 411.18 620.941 411.276 621.269 411.468C621.605 411.66 621.869 411.928 622.061 412.272C622.253 412.616 622.349 413.012 622.349 413.46V417H621.269ZM617.237 417V408.432H618.317V417H617.237ZM626.452 417.12C625.884 417.12 625.372 416.992 624.916 416.736C624.46 416.472 624.1 416.116 623.836 415.668C623.572 415.22 623.44 414.712 623.44 414.144C623.44 413.584 623.568 413.08 623.824 412.632C624.088 412.184 624.44 411.832 624.88 411.576C625.328 411.312 625.828 411.18 626.38 411.18C626.908 411.18 627.372 411.3 627.772 411.54C628.18 411.78 628.496 412.112 628.72 412.536C628.952 412.96 629.068 413.44 629.068 413.976C629.068 414.056 629.064 414.144 629.056 414.24C629.048 414.328 629.032 414.432 629.008 414.552H624.196V413.652H628.432L628.036 414C628.036 413.616 627.968 413.292 627.832 413.028C627.696 412.756 627.504 412.548 627.256 412.404C627.008 412.252 626.708 412.176 626.356 412.176C625.988 412.176 625.664 412.256 625.384 412.416C625.104 412.576 624.888 412.8 624.736 413.088C624.584 413.376 624.508 413.716 624.508 414.108C624.508 414.508 624.588 414.86 624.748 415.164C624.908 415.46 625.136 415.692 625.432 415.86C625.728 416.02 626.068 416.1 626.452 416.1C626.772 416.1 627.064 416.044 627.328 415.932C627.6 415.82 627.832 415.652 628.024 415.428L628.72 416.136C628.448 416.456 628.112 416.7 627.712 416.868C627.32 417.036 626.9 417.12 626.452 417.12ZM632.657 417.12C632.129 417.12 631.657 416.992 631.241 416.736C630.825 416.472 630.493 416.116 630.245 415.668C630.005 415.22 629.885 414.716 629.885 414.156C629.885 413.596 630.005 413.092 630.245 412.644C630.493 412.196 630.825 411.84 631.241 411.576C631.657 411.312 632.129 411.18 632.657 411.18C633.081 411.18 633.465 411.272 633.809 411.456C634.153 411.632 634.429 411.88 634.637 412.2C634.853 412.512 634.973 412.876 634.997 413.292V415.008C634.973 415.416 634.857 415.78 634.649 416.1C634.441 416.42 634.165 416.672 633.821 416.856C633.477 417.032 633.089 417.12 632.657 417.12ZM632.837 416.1C633.197 416.1 633.509 416.016 633.773 415.848C634.045 415.68 634.257 415.452 634.409 415.164C634.561 414.868 634.637 414.532 634.637 414.156C634.637 413.764 634.557 413.424 634.397 413.136C634.245 412.848 634.033 412.62 633.761 412.452C633.497 412.284 633.185 412.2 632.825 412.2C632.465 412.2 632.149 412.284 631.877 412.452C631.605 412.62 631.389 412.852 631.229 413.148C631.077 413.436 631.001 413.768 631.001 414.144C631.001 414.528 631.077 414.868 631.229 415.164C631.389 415.452 631.605 415.68 631.877 415.848C632.157 416.016 632.477 416.1 632.837 416.1ZM635.657 417H634.565V415.464L634.769 414.072L634.565 412.692V408.432H635.657V417ZM639.521 417.12C639.058 417.12 638.638 417.016 638.262 416.808C637.894 416.592 637.606 416.296 637.398 415.92C637.19 415.544 637.086 415.108 637.086 414.612V411.3H638.166V414.564C638.166 414.876 638.218 415.148 638.322 415.38C638.434 415.604 638.594 415.776 638.802 415.896C639.01 416.016 639.254 416.076 639.534 416.076C639.958 416.076 640.29 415.944 640.53 415.68C640.77 415.408 640.89 415.036 640.89 414.564V411.3H641.97V414.612C641.97 415.108 641.866 415.544 641.658 415.92C641.45 416.296 641.162 416.592 640.794 416.808C640.434 417.016 640.01 417.12 639.521 417.12ZM643.417 417V408.432H644.497V417H643.417ZM648.717 417.12C648.149 417.12 647.637 416.992 647.181 416.736C646.725 416.472 646.365 416.116 646.101 415.668C645.837 415.22 645.705 414.712 645.705 414.144C645.705 413.584 645.833 413.08 646.089 412.632C646.353 412.184 646.705 411.832 647.145 411.576C647.593 411.312 648.093 411.18 648.645 411.18C649.173 411.18 649.637 411.3 650.037 411.54C650.445 411.78 650.761 412.112 650.985 412.536C651.217 412.96 651.333 413.44 651.333 413.976C651.333 414.056 651.329 414.144 651.321 414.24C651.313 414.328 651.297 414.432 651.273 414.552H646.461V413.652H650.697L650.301 414C650.301 413.616 650.233 413.292 650.097 413.028C649.961 412.756 649.769 412.548 649.521 412.404C649.273 412.252 648.973 412.176 648.621 412.176C648.253 412.176 647.929 412.256 647.649 412.416C647.369 412.576 647.153 412.8 647.001 413.088C646.849 413.376 646.773 413.716 646.773 414.108C646.773 414.508 646.853 414.86 647.013 415.164C647.173 415.46 647.401 415.692 647.697 415.86C647.993 416.02 648.333 416.1 648.717 416.1C649.037 416.1 649.329 416.044 649.593 415.932C649.865 415.82 650.097 415.652 650.289 415.428L650.985 416.136C650.713 416.456 650.377 416.7 649.977 416.868C649.585 417.036 649.165 417.12 648.717 417.12Z" fill="#2B3136"/>
<path d="M702.86 413.832V412.632H704.96C705.248 412.632 705.5 412.576 705.716 412.464C705.94 412.344 706.116 412.18 706.244 411.972C706.372 411.756 706.436 411.504 706.436 411.216C706.436 410.928 706.372 410.68 706.244 410.472C706.116 410.256 705.94 410.092 705.716 409.98C705.5 409.86 705.248 409.8 704.96 409.8H702.86V408.6H705.032C705.56 408.6 706.032 408.708 706.448 408.924C706.872 409.14 707.204 409.444 707.444 409.836C707.692 410.228 707.816 410.688 707.816 411.216C707.816 411.744 707.692 412.204 707.444 412.596C707.204 412.988 706.872 413.292 706.448 413.508C706.032 413.724 705.56 413.832 705.032 413.832H702.86ZM701.912 417V408.6H703.292V417H701.912ZM711.35 417.12C710.862 417.12 710.426 417.012 710.042 416.796C709.666 416.58 709.37 416.284 709.154 415.908C708.946 415.524 708.842 415.084 708.842 414.588V411.24H710.162V414.528C710.162 414.808 710.206 415.048 710.294 415.248C710.39 415.44 710.526 415.588 710.702 415.692C710.886 415.796 711.102 415.848 711.35 415.848C711.734 415.848 712.026 415.736 712.226 415.512C712.434 415.28 712.538 414.952 712.538 414.528V411.24H713.858V414.588C713.858 415.092 713.75 415.536 713.534 415.92C713.326 416.296 713.034 416.592 712.658 416.808C712.282 417.016 711.846 417.12 711.35 417.12ZM718.269 417.12C717.829 417.12 717.437 417.028 717.093 416.844C716.749 416.652 716.477 416.392 716.277 416.064C716.085 415.736 715.989 415.364 715.989 414.948V413.292C715.989 412.876 716.089 412.504 716.289 412.176C716.489 411.848 716.761 411.592 717.105 411.408C717.449 411.216 717.837 411.12 718.269 411.12C718.789 411.12 719.257 411.256 719.673 411.528C720.097 411.792 720.429 412.152 720.669 412.608C720.917 413.056 721.041 413.564 721.041 414.132C721.041 414.692 720.917 415.2 720.669 415.656C720.429 416.104 720.097 416.46 719.673 416.724C719.257 416.988 718.789 417.12 718.269 417.12ZM718.053 415.872C718.373 415.872 718.653 415.8 718.893 415.656C719.141 415.504 719.333 415.296 719.469 415.032C719.613 414.768 719.685 414.464 719.685 414.12C719.685 413.776 719.613 413.472 719.469 413.208C719.333 412.944 719.141 412.74 718.893 412.596C718.653 412.444 718.373 412.368 718.053 412.368C717.733 412.368 717.449 412.444 717.201 412.596C716.953 412.74 716.761 412.944 716.625 413.208C716.489 413.472 716.421 413.776 716.421 414.12C716.421 414.464 716.489 414.768 716.625 415.032C716.761 415.296 716.953 415.504 717.201 415.656C717.449 415.8 717.733 415.872 718.053 415.872ZM715.185 417V408.36H716.505V412.656L716.277 414.048L716.505 415.452V417H715.185ZM722.146 417V408.36H723.466V417H722.146ZM724.947 417V411.24H726.267V417H724.947ZM725.607 410.184C725.383 410.184 725.195 410.108 725.043 409.956C724.899 409.804 724.827 409.616 724.827 409.392C724.827 409.168 724.899 408.98 725.043 408.828C725.195 408.676 725.383 408.6 725.607 408.6C725.839 408.6 726.027 408.676 726.171 408.828C726.315 408.98 726.387 409.168 726.387 409.392C726.387 409.616 726.315 409.804 726.171 409.956C726.027 410.108 725.839 410.184 725.607 410.184ZM729.632 417.12C729.312 417.12 729.004 417.08 728.708 417C728.412 416.912 728.14 416.792 727.892 416.64C727.644 416.48 727.428 416.288 727.244 416.064L728.084 415.224C728.284 415.456 728.512 415.632 728.768 415.752C729.032 415.864 729.328 415.92 729.656 415.92C729.952 415.92 730.176 415.876 730.328 415.788C730.48 415.7 730.556 415.572 730.556 415.404C730.556 415.228 730.484 415.092 730.34 414.996C730.196 414.9 730.008 414.82 729.776 414.756C729.552 414.684 729.312 414.612 729.056 414.54C728.808 414.468 728.568 414.372 728.336 414.252C728.112 414.124 727.928 413.952 727.784 413.736C727.64 413.52 727.568 413.24 727.568 412.896C727.568 412.528 727.652 412.212 727.82 411.948C727.996 411.684 728.24 411.48 728.552 411.336C728.872 411.192 729.252 411.12 729.692 411.12C730.156 411.12 730.564 411.204 730.916 411.372C731.276 411.532 731.576 411.776 731.816 412.104L730.976 412.944C730.808 412.736 730.616 412.58 730.4 412.476C730.184 412.372 729.936 412.32 729.656 412.32C729.392 412.32 729.188 412.36 729.044 412.44C728.9 412.52 728.828 412.636 728.828 412.788C728.828 412.948 728.9 413.072 729.044 413.16C729.188 413.248 729.372 413.324 729.596 413.388C729.828 413.452 730.068 413.524 730.316 413.604C730.572 413.676 730.812 413.78 731.036 413.916C731.268 414.044 731.456 414.22 731.6 414.444C731.744 414.66 731.816 414.944 731.816 415.296C731.816 415.856 731.62 416.3 731.228 416.628C730.836 416.956 730.304 417.12 729.632 417.12ZM736.852 417V413.676C736.852 413.292 736.728 412.976 736.48 412.728C736.24 412.48 735.928 412.356 735.544 412.356C735.288 412.356 735.06 412.412 734.86 412.524C734.66 412.636 734.504 412.792 734.392 412.992C734.28 413.192 734.224 413.42 734.224 413.676L733.708 413.388C733.708 412.948 733.804 412.56 733.996 412.224C734.188 411.88 734.452 411.612 734.788 411.42C735.132 411.22 735.516 411.12 735.94 411.12C736.372 411.12 736.756 411.216 737.092 411.408C737.428 411.6 737.692 411.868 737.884 412.212C738.076 412.548 738.172 412.94 738.172 413.388V417H736.852ZM732.904 417V408.36H734.224V417H732.904Z" fill="white"/>
<path d="M21.148 344V334.284H22.464V344H21.148ZM22.044 344V342.796H27.252V344H22.044ZM28.6626 344V337.35H29.9226V344H28.6626ZM29.2926 336.02C29.0593 336.02 28.8679 335.945 28.7186 335.796C28.5693 335.637 28.4946 335.441 28.4946 335.208C28.4946 334.984 28.5693 334.797 28.7186 334.648C28.8679 334.489 29.0593 334.41 29.2926 334.41C29.5259 334.41 29.7173 334.489 29.8666 334.648C30.0159 334.797 30.0906 334.984 30.0906 335.208C30.0906 335.441 30.0159 335.637 29.8666 335.796C29.7173 335.945 29.5259 336.02 29.2926 336.02ZM36.4835 344V340.122C36.4835 339.618 36.3248 339.203 36.0075 338.876C35.6901 338.549 35.2795 338.386 34.7755 338.386C34.4395 338.386 34.1408 338.461 33.8795 338.61C33.6181 338.759 33.4128 338.965 33.2635 339.226C33.1141 339.487 33.0395 339.786 33.0395 340.122L32.5215 339.828C32.5215 339.324 32.6335 338.876 32.8575 338.484C33.0815 338.092 33.3941 337.784 33.7955 337.56C34.1968 337.327 34.6495 337.21 35.1535 337.21C35.6575 337.21 36.1008 337.336 36.4835 337.588C36.8755 337.84 37.1835 338.171 37.4075 338.582C37.6315 338.983 37.7435 339.413 37.7435 339.87V344H36.4835ZM31.7795 344V337.35H33.0395V344H31.7795ZM43.7054 344L40.5974 340.598L43.6774 337.35H45.2034L41.7734 340.934L41.8294 340.206L45.3294 344H43.7054ZM39.4494 344V334.004H40.7094V344H39.4494Z" fill="#2B3136"/>
<rect x="21" y="355" width="355.741" height="29" rx="9" stroke="#D9D9D9" stroke-width="2"/>
<rect x="21" y="55" width="741" height="29" rx="9" stroke="#D9D9D9" stroke-width="2"/>
</g>
<g clip-path="url(#clip4_3_492)">
<mask id="mask1_3_492" style="mask-type:luminance" maskUnits="userSpaceOnUse" x="299" y="171" width="40" height="40">
<path d="M299 171H339V211H299V171Z" fill="white"/>
</mask>
<g mask="url(#mask1_3_492)">
<path d="M319 211C330.046 211 339 202.046 339 191C339 179.954 330.046 171 319 171C307.954 171 299 179.954 299 191C299 202.046 307.954 211 319 211Z" fill="#D9E1ED"/>
<path d="M332 191.079C332 197.608 327.246 203.019 321.031 204V194.86H324.06L324.636 191.079H321.03V188.626C321.03 187.591 321.534 186.583 323.149 186.583H324.788V183.364C324.788 183.364 323.3 183.109 321.878 183.109C318.909 183.109 316.968 184.92 316.968 188.198V191.079H313.667V194.86H316.968V204C310.754 203.019 306 197.608 306 191.079C306 183.856 311.821 178 319 178C326.179 178 332 183.856 332 191.079Z" fill="#1877F2"/>
<path d="M324.06 194.758L324.637 191H321.031V188.561C321.031 187.533 321.535 186.531 323.15 186.531H324.789V183.332C324.789 183.332 323.301 183.078 321.879 183.078C318.91 183.078 316.969 184.878 316.969 188.136V191H313.668V194.758H316.969V203.842C318.315 204.053 319.685 204.053 321.031 203.842V194.758H324.06Z" fill="white"/>
</g>
</g>
<g clip-path="url(#clip5_3_492)">
<path d="M369 211C380.046 211 389 202.046 389 191C389 179.954 380.046 171 369 171C357.954 171 349 179.954 349 191C349 202.046 357.954 211 369 211Z" fill="#FFE6DE"/>
<path d="M374.255 178H363.746C359.475 178 356 181.475 356 185.746V196.255C356 200.525 359.475 204 363.746 204H374.255C378.525 204 382 200.525 382 196.255V185.746C382 181.475 378.525 178 374.255 178ZM379.385 196.255C379.385 197.616 378.845 198.92 377.882 199.882C376.92 200.845 375.616 201.385 374.255 201.385H363.746C362.385 201.385 361.081 200.845 360.119 199.882C359.156 198.92 358.616 197.616 358.616 196.255V185.746C358.616 184.385 359.156 183.081 360.119 182.119C361.081 181.156 362.385 180.616 363.746 180.616H374.255C375.616 180.616 376.92 181.156 377.882 182.119C378.845 183.081 379.385 184.385 379.385 185.746V196.255Z" fill="url(#paint3_linear_3_492)"/>
<path d="M369 184.276C365.292 184.276 362.275 187.293 362.275 191.001C362.275 194.709 365.292 197.725 369 197.725C372.708 197.725 375.724 194.708 375.724 191.001C375.724 187.294 372.707 184.276 369 184.276ZM369 195.109C367.91 195.109 366.865 194.676 366.095 193.905C365.324 193.135 364.891 192.09 364.891 191C364.891 189.91 365.324 188.865 366.095 188.095C366.865 187.324 367.91 186.891 369 186.891C370.09 186.891 371.135 187.324 371.905 188.095C372.676 188.865 373.109 189.91 373.109 191C373.109 192.09 372.676 193.135 371.905 193.905C371.135 194.676 370.09 195.109 369 195.109Z" fill="url(#paint4_linear_3_492)"/>
<path d="M375.738 185.937C376.165 185.937 376.575 185.767 376.877 185.465C377.18 185.163 377.349 184.753 377.349 184.325C377.349 183.898 377.18 183.488 376.877 183.186C376.575 182.884 376.165 182.714 375.738 182.714C375.526 182.714 375.317 182.756 375.121 182.837C374.926 182.918 374.748 183.036 374.598 183.186C374.449 183.336 374.33 183.513 374.249 183.709C374.168 183.904 374.126 184.114 374.126 184.325C374.126 184.537 374.168 184.747 374.249 184.942C374.33 185.138 374.449 185.315 374.598 185.465C374.748 185.615 374.926 185.733 375.121 185.814C375.317 185.895 375.526 185.937 375.738 185.937Z" fill="url(#paint5_linear_3_492)"/>
</g>
<g clip-path="url(#clip6_3_492)">
<path d="M419 211C430.046 211 439 202.046 439 191C439 179.954 430.046 171 419 171C407.954 171 399 179.954 399 191C399 202.046 407.954 211 419 211Z" fill="#D3F0FF"/>
<path d="M419 204C426.18 204 432 198.18 432 191C432 183.82 426.18 178 419 178C411.82 178 406 183.82 406 191C406 198.18 411.82 204 419 204Z" fill="#007AB9"/>
<path d="M426.767 192.046V197.406H423.66V192.406C423.66 191.15 423.211 190.293 422.086 190.293C421.227 190.293 420.717 190.87 420.492 191.429C420.41 191.629 420.389 191.906 420.389 192.186V197.406H417.281V188.06H420.389V189.384C420.383 189.394 420.374 189.405 420.368 189.415H420.389V189.384C420.802 188.749 421.538 187.84 423.19 187.84C425.234 187.84 426.767 189.176 426.767 192.046ZM414.031 183.555C412.968 183.555 412.273 184.253 412.273 185.17C412.273 186.067 412.948 186.785 413.991 186.785H414.011C415.095 186.785 415.769 186.067 415.769 185.17C415.748 184.253 415.094 183.555 414.031 183.555ZM412.457 197.406H415.564V188.06H412.457V197.406Z" fill="#F1F2F2"/>
</g>
<g clip-path="url(#clip7_3_492)">
<path d="M469 211C480.046 211 489 202.046 489 191C489 179.954 480.046 171 469 171C457.954 171 449 179.954 449 191C449 202.046 457.954 211 469 211Z" fill="#D4F2FF"/>
<path d="M482 182.501C481.033 182.925 480.003 183.206 478.929 183.343C480.045 182.681 480.879 181.633 481.274 180.397C480.244 181.011 479.106 181.445 477.894 181.687C477.395 181.155 476.792 180.73 476.122 180.44C475.452 180.15 474.73 180 474 180C472.587 180.001 471.231 180.563 470.232 181.563C469.233 182.563 468.672 183.919 468.673 185.332C468.673 185.754 468.709 186.161 468.796 186.548C464.365 186.332 460.443 184.208 457.809 180.973C457.349 181.771 457.079 182.684 457.079 183.667C457.079 185.513 458.03 187.149 459.447 188.097C458.591 188.081 457.751 187.832 457.039 187.441V187.499C457.039 190.089 458.887 192.241 461.31 192.736C460.876 192.855 460.403 192.911 459.913 192.911C459.572 192.911 459.227 192.892 458.904 192.82C459.595 194.931 461.554 196.483 463.885 196.533C461.998 198.008 459.671 198.809 457.276 198.806C456.839 198.806 456.42 198.786 456 198.733C458.361 200.256 461.159 201.125 464.177 201.125C473.985 201.125 479.348 193 479.348 185.957C479.348 185.721 479.34 185.494 479.328 185.268C480.386 184.517 481.275 183.58 482 182.501Z" fill="#03A9F4"/>
</g>
<path d="M260.075 256.33C258.271 256.33 256.731 256 255.455 255.34C254.179 254.68 253.046 253.723 252.056 252.469L254.168 250.357C254.894 251.369 255.73 252.139 256.676 252.667C257.622 253.173 258.788 253.426 260.174 253.426C261.538 253.426 262.627 253.129 263.441 252.535C264.277 251.941 264.695 251.127 264.695 250.093C264.695 249.235 264.497 248.542 264.101 248.014C263.705 247.486 263.166 247.057 262.484 246.727C261.824 246.375 261.098 246.067 260.306 245.803C259.514 245.517 258.722 245.22 257.93 244.912C257.138 244.582 256.412 244.186 255.752 243.724C255.092 243.24 254.553 242.613 254.135 241.843C253.739 241.073 253.541 240.105 253.541 238.939C253.541 237.641 253.849 236.541 254.465 235.639C255.103 234.715 255.961 234.011 257.039 233.527C258.139 233.021 259.371 232.768 260.735 232.768C262.231 232.768 263.573 233.065 264.761 233.659C265.949 234.231 266.917 234.99 267.665 235.936L265.553 238.048C264.871 237.256 264.134 236.662 263.342 236.266C262.572 235.87 261.681 235.672 260.669 235.672C259.437 235.672 258.458 235.947 257.732 236.497C257.006 237.025 256.643 237.773 256.643 238.741C256.643 239.511 256.841 240.138 257.237 240.622C257.655 241.084 258.194 241.48 258.854 241.81C259.514 242.14 260.24 242.448 261.032 242.734C261.846 242.998 262.649 243.295 263.441 243.625C264.233 243.955 264.959 244.373 265.619 244.879C266.279 245.385 266.807 246.045 267.203 246.859C267.621 247.651 267.83 248.652 267.83 249.862C267.83 251.886 267.126 253.47 265.718 254.614C264.332 255.758 262.451 256.33 260.075 256.33ZM278.517 256.33C276.955 256.33 275.547 255.978 274.293 255.274C273.039 254.548 272.049 253.569 271.323 252.337C270.597 251.105 270.234 249.708 270.234 248.146C270.234 246.606 270.586 245.22 271.29 243.988C272.016 242.756 272.984 241.788 274.194 241.084C275.426 240.358 276.801 239.995 278.319 239.995C279.771 239.995 281.047 240.325 282.147 240.985C283.269 241.645 284.138 242.558 284.754 243.724C285.392 244.89 285.711 246.21 285.711 247.684C285.711 247.904 285.7 248.146 285.678 248.41C285.656 248.652 285.612 248.938 285.546 249.268H272.313V246.793H283.962L282.873 247.75C282.873 246.694 282.686 245.803 282.312 245.077C281.938 244.329 281.41 243.757 280.728 243.361C280.046 242.943 279.221 242.734 278.253 242.734C277.241 242.734 276.35 242.954 275.58 243.394C274.81 243.834 274.216 244.45 273.798 245.242C273.38 246.034 273.171 246.969 273.171 248.047C273.171 249.147 273.391 250.115 273.831 250.951C274.271 251.765 274.898 252.403 275.712 252.865C276.526 253.305 277.461 253.525 278.517 253.525C279.397 253.525 280.2 253.371 280.926 253.063C281.674 252.755 282.312 252.293 282.84 251.677L284.754 253.624C284.006 254.504 283.082 255.175 281.982 255.637C280.904 256.099 279.749 256.33 278.517 256.33ZM288.949 256V232.438H291.919V256H288.949ZM303.525 256.33C301.963 256.33 300.555 255.978 299.301 255.274C298.047 254.548 297.057 253.569 296.331 252.337C295.605 251.105 295.242 249.708 295.242 248.146C295.242 246.606 295.594 245.22 296.298 243.988C297.024 242.756 297.992 241.788 299.202 241.084C300.434 240.358 301.809 239.995 303.327 239.995C304.779 239.995 306.055 240.325 307.155 240.985C308.277 241.645 309.146 242.558 309.762 243.724C310.4 244.89 310.719 246.21 310.719 247.684C310.719 247.904 310.708 248.146 310.686 248.41C310.664 248.652 310.62 248.938 310.554 249.268H297.321V246.793H308.97L307.881 247.75C307.881 246.694 307.694 245.803 307.32 245.077C306.946 244.329 306.418 243.757 305.736 243.361C305.054 242.943 304.229 242.734 303.261 242.734C302.249 242.734 301.358 242.954 300.588 243.394C299.818 243.834 299.224 244.45 298.806 245.242C298.388 246.034 298.179 246.969 298.179 248.047C298.179 249.147 298.399 250.115 298.839 250.951C299.279 251.765 299.906 252.403 300.72 252.865C301.534 253.305 302.469 253.525 303.525 253.525C304.405 253.525 305.208 253.371 305.934 253.063C306.682 252.755 307.32 252.293 307.848 251.677L309.762 253.624C309.014 254.504 308.09 255.175 306.99 255.637C305.912 256.099 304.757 256.33 303.525 256.33ZM321.118 256.33C319.578 256.33 318.181 255.967 316.927 255.241C315.695 254.515 314.716 253.536 313.99 252.304C313.286 251.05 312.934 249.664 312.934 248.146C312.934 246.606 313.286 245.22 313.99 243.988C314.716 242.756 315.695 241.788 316.927 241.084C318.181 240.358 319.578 239.995 321.118 239.995C322.328 239.995 323.45 240.226 324.484 240.688C325.518 241.128 326.409 241.777 327.157 242.635L325.177 244.615C324.693 244.043 324.099 243.614 323.395 243.328C322.713 243.02 321.954 242.866 321.118 242.866C320.128 242.866 319.248 243.097 318.478 243.559C317.708 243.999 317.103 244.615 316.663 245.407C316.223 246.199 316.003 247.112 316.003 248.146C316.003 249.18 316.223 250.093 316.663 250.885C317.103 251.677 317.708 252.304 318.478 252.766C319.248 253.228 320.128 253.459 321.118 253.459C321.954 253.459 322.713 253.316 323.395 253.03C324.099 252.722 324.704 252.282 325.21 251.71L327.157 253.69C326.431 254.526 325.54 255.175 324.484 255.637C323.45 256.099 322.328 256.33 321.118 256.33ZM332.318 256V233.758H335.288V256H332.318ZM328.457 243.031V240.325H339.149V243.031H328.457ZM346.834 256L356.206 233.098H358.45L367.789 256H364.423L356.734 236.629H357.889L350.134 256H346.834ZM351.289 250.819V248.113H363.334V250.819H351.289ZM377.128 256.33C375.588 256.33 374.191 255.967 372.937 255.241C371.705 254.515 370.726 253.536 370 252.304C369.296 251.05 368.944 249.664 368.944 248.146C368.944 246.606 369.296 245.22 370 243.988C370.726 242.756 371.705 241.788 372.937 241.084C374.191 240.358 375.588 239.995 377.128 239.995C378.338 239.995 379.46 240.226 380.494 240.688C381.528 241.128 382.419 241.777 383.167 242.635L381.187 244.615C380.703 244.043 380.109 243.614 379.405 243.328C378.723 243.02 377.964 242.866 377.128 242.866C376.138 242.866 375.258 243.097 374.488 243.559C373.718 243.999 373.113 244.615 372.673 245.407C372.233 246.199 372.013 247.112 372.013 248.146C372.013 249.18 372.233 250.093 372.673 250.885C373.113 251.677 373.718 252.304 374.488 252.766C375.258 253.228 376.138 253.459 377.128 253.459C377.964 253.459 378.723 253.316 379.405 253.03C380.109 252.722 380.714 252.282 381.22 251.71L383.167 253.69C382.441 254.526 381.55 255.175 380.494 255.637C379.46 256.099 378.338 256.33 377.128 256.33ZM392.951 256.33C391.411 256.33 390.014 255.967 388.76 255.241C387.528 254.515 386.549 253.536 385.823 252.304C385.119 251.05 384.767 249.664 384.767 248.146C384.767 246.606 385.119 245.22 385.823 243.988C386.549 242.756 387.528 241.788 388.76 241.084C390.014 240.358 391.411 239.995 392.951 239.995C394.161 239.995 395.283 240.226 396.317 240.688C397.351 241.128 398.242 241.777 398.99 242.635L397.01 244.615C396.526 244.043 395.932 243.614 395.228 243.328C394.546 243.02 393.787 242.866 392.951 242.866C391.961 242.866 391.081 243.097 390.311 243.559C389.541 243.999 388.936 244.615 388.496 245.407C388.056 246.199 387.836 247.112 387.836 248.146C387.836 249.18 388.056 250.093 388.496 250.885C388.936 251.677 389.541 252.304 390.311 252.766C391.081 253.228 391.961 253.459 392.951 253.459C393.787 253.459 394.546 253.316 395.228 253.03C395.932 252.722 396.537 252.282 397.043 251.71L398.99 253.69C398.264 254.526 397.373 255.175 396.317 255.637C395.283 256.099 394.161 256.33 392.951 256.33ZM408.775 256.33C407.235 256.33 405.849 255.967 404.617 255.241C403.385 254.515 402.406 253.536 401.68 252.304C400.954 251.05 400.591 249.653 400.591 248.113C400.591 246.595 400.954 245.231 401.68 244.021C402.406 242.789 403.385 241.81 404.617 241.084C405.849 240.358 407.235 239.995 408.775 239.995C410.293 239.995 411.668 240.358 412.9 241.084C414.154 241.788 415.144 242.756 415.87 243.988C416.596 245.22 416.959 246.595 416.959 248.113C416.959 249.653 416.596 251.05 415.87 252.304C415.144 253.536 414.154 254.515 412.9 255.241C411.668 255.967 410.293 256.33 408.775 256.33ZM408.775 253.459C409.765 253.459 410.645 253.228 411.415 252.766C412.185 252.304 412.79 251.677 413.23 250.885C413.67 250.071 413.89 249.147 413.89 248.113C413.89 247.101 413.659 246.199 413.197 245.407C412.757 244.615 412.152 243.999 411.382 243.559C410.634 243.097 409.765 242.866 408.775 242.866C407.785 242.866 406.905 243.097 406.135 243.559C405.365 243.999 404.76 244.615 404.32 245.407C403.88 246.199 403.66 247.101 403.66 248.113C403.66 249.147 403.88 250.071 404.32 250.885C404.76 251.677 405.365 252.304 406.135 252.766C406.905 253.228 407.785 253.459 408.775 253.459ZM426.608 256.33C425.332 256.33 424.177 256.044 423.143 255.472C422.131 254.878 421.339 254.064 420.767 253.03C420.195 251.996 419.909 250.797 419.909 249.433V240.325H422.879V249.301C422.879 250.159 423.022 250.907 423.308 251.545C423.616 252.161 424.056 252.634 424.628 252.964C425.2 253.294 425.871 253.459 426.641 253.459C427.807 253.459 428.72 253.096 429.38 252.37C430.04 251.622 430.37 250.599 430.37 249.301V240.325H433.34V249.433C433.34 250.797 433.054 251.996 432.482 253.03C431.91 254.064 431.118 254.878 430.106 255.472C429.116 256.044 427.95 256.33 426.608 256.33ZM448.409 256V246.859C448.409 245.671 448.035 244.692 447.287 243.922C446.539 243.152 445.571 242.767 444.383 242.767C443.591 242.767 442.887 242.943 442.271 243.295C441.655 243.647 441.171 244.131 440.819 244.747C440.467 245.363 440.291 246.067 440.291 246.859L439.07 246.166C439.07 244.978 439.334 243.922 439.862 242.998C440.39 242.074 441.127 241.348 442.073 240.82C443.019 240.27 444.086 239.995 445.274 239.995C446.462 239.995 447.507 240.292 448.409 240.886C449.333 241.48 450.059 242.261 450.587 243.229C451.115 244.175 451.379 245.187 451.379 246.265V256H448.409ZM437.321 256V240.325H440.291V256H437.321ZM457.615 256V233.758H460.585V256H457.615ZM453.754 243.031V240.325H464.446V243.031H453.754ZM474.748 256V233.098H477.85V256H474.748ZM476.86 245.935V243.097H488.806V245.935H476.86ZM476.86 235.936V233.098H489.367V235.936H476.86ZM492.944 256V240.325H495.914V256H492.944ZM494.429 237.19C493.879 237.19 493.428 237.014 493.076 236.662C492.724 236.288 492.548 235.826 492.548 235.276C492.548 234.748 492.724 234.308 493.076 233.956C493.428 233.582 493.879 233.395 494.429 233.395C494.979 233.395 495.43 233.582 495.782 233.956C496.134 234.308 496.31 234.748 496.31 235.276C496.31 235.826 496.134 236.288 495.782 236.662C495.43 237.014 494.979 237.19 494.429 237.19ZM500.291 256V240.325H503.261V256H500.291ZM503.261 247.057L502.139 246.562C502.139 244.56 502.601 242.965 503.525 241.777C504.449 240.589 505.78 239.995 507.518 239.995C508.31 239.995 509.025 240.138 509.663 240.424C510.301 240.688 510.895 241.139 511.445 241.777L509.498 243.79C509.168 243.438 508.805 243.185 508.409 243.031C508.013 242.877 507.551 242.8 507.023 242.8C505.923 242.8 505.021 243.152 504.317 243.856C503.613 244.56 503.261 245.627 503.261 247.057ZM518.165 256.33C517.285 256.33 516.449 256.22 515.657 256C514.887 255.758 514.172 255.428 513.512 255.01C512.852 254.57 512.28 254.053 511.796 253.459L513.71 251.545C514.282 252.249 514.942 252.777 515.69 253.129C516.438 253.459 517.274 253.624 518.198 253.624C519.122 253.624 519.837 253.47 520.343 253.162C520.849 252.832 521.102 252.381 521.102 251.809C521.102 251.237 520.893 250.797 520.475 250.489C520.079 250.159 519.562 249.895 518.924 249.697C518.286 249.477 517.604 249.268 516.878 249.07C516.174 248.85 515.503 248.575 514.865 248.245C514.227 247.915 513.699 247.464 513.281 246.892C512.885 246.32 512.687 245.561 512.687 244.615C512.687 243.669 512.918 242.855 513.38 242.173C513.842 241.469 514.48 240.93 515.294 240.556C516.13 240.182 517.131 239.995 518.297 239.995C519.529 239.995 520.618 240.215 521.564 240.655C522.532 241.073 523.324 241.711 523.94 242.569L522.026 244.483C521.586 243.911 521.036 243.471 520.376 243.163C519.738 242.855 519.012 242.701 518.198 242.701C517.34 242.701 516.68 242.855 516.218 243.163C515.778 243.449 515.558 243.856 515.558 244.384C515.558 244.912 515.756 245.319 516.152 245.605C516.548 245.891 517.065 246.133 517.703 246.331C518.363 246.529 519.045 246.738 519.749 246.958C520.453 247.156 521.124 247.431 521.762 247.783C522.4 248.135 522.917 248.608 523.313 249.202C523.731 249.796 523.94 250.577 523.94 251.545C523.94 253.019 523.412 254.185 522.356 255.043C521.322 255.901 519.925 256.33 518.165 256.33ZM529.674 256V233.758H532.644V256H529.674ZM525.813 243.031V240.325H536.505V243.031H525.813Z" fill="black"/>
<path d="M6.5 65C152.1 118.6 268.333 186.5 261.5 209.5" stroke="black" stroke-width="2" stroke-linejoin="round" stroke-dasharray="7 7"/>
<path d="M1.49989 63.134C1.0216 63.4101 0.857727 64.0217 1.13387 64.5L5.63387 72.2942C5.91001 72.7725 6.5216 72.9364 6.99989 72.6603C7.47819 72.3841 7.64206 71.7725 7.36592 71.2942L3.36592 64.366L10.2941 60.366C10.7724 60.0899 10.9363 59.4783 10.6601 59C10.384 58.5217 9.77242 58.3578 9.29412 58.634L1.49989 63.134ZM3.22464 63.2929L2.25871 63.0341L1.74108 64.9659L2.707 65.2247L3.22464 63.2929Z" fill="black"/>
<defs>
<filter id="filter0_f_3_492" x="14" y="30.284" width="755" height="402.716" filterUnits="userSpaceOnUse" color-interpolation-filters="sRGB">
<feFlood flood-opacity="0" result="BackgroundImageFix"/>
<feBlend mode="normal" in="SourceGraphic" in2="BackgroundImageFix" result="shape"/>
<feGaussianBlur stdDeviation="3" result="effect1_foregroundBlur_3_492"/>
</filter>
<linearGradient id="paint0_linear_3_492" x1="90" y1="132.924" x2="90" y2="107.202" gradientUnits="userSpaceOnUse">
<stop stop-color="#E09B3D"/>
<stop offset="0.3" stop-color="#C74C4D"/>
<stop offset="0.6" stop-color="#C21975"/>
<stop offset="1" stop-color="#7024C4"/>
</linearGradient>
<linearGradient id="paint1_linear_3_492" x1="89.9999" y1="132.924" x2="89.9999" y2="107.202" gradientUnits="userSpaceOnUse">
<stop stop-color="#E09B3D"/>
<stop offset="0.3" stop-color="#C74C4D"/>
<stop offset="0.6" stop-color="#C21975"/>
<stop offset="1" stop-color="#7024C4"/>
</linearGradient>
<linearGradient id="paint2_linear_3_492" x1="96.738" y1="132.924" x2="96.738" y2="107.202" gradientUnits="userSpaceOnUse">
<stop stop-color="#E09B3D"/>
<stop offset="0.3" stop-color="#C74C4D"/>
<stop offset="0.6" stop-color="#C21975"/>
<stop offset="1" stop-color="#7024C4"/>
</linearGradient>
<linearGradient id="paint3_linear_3_492" x1="369" y1="203.924" x2="369" y2="178.202" gradientUnits="userSpaceOnUse">
<stop stop-color="#E09B3D"/>
<stop offset="0.3" stop-color="#C74C4D"/>
<stop offset="0.6" stop-color="#C21975"/>
<stop offset="1" stop-color="#7024C4"/>
</linearGradient>
<linearGradient id="paint4_linear_3_492" x1="369" y1="203.924" x2="369" y2="178.202" gradientUnits="userSpaceOnUse">
<stop stop-color="#E09B3D"/>
<stop offset="0.3" stop-color="#C74C4D"/>
<stop offset="0.6" stop-color="#C21975"/>
<stop offset="1" stop-color="#7024C4"/>
</linearGradient>
<linearGradient id="paint5_linear_3_492" x1="375.738" y1="203.924" x2="375.738" y2="178.202" gradientUnits="userSpaceOnUse">
<stop stop-color="#E09B3D"/>
<stop offset="0.3" stop-color="#C74C4D"/>
<stop offset="0.6" stop-color="#C21975"/>
<stop offset="1" stop-color="#7024C4"/>
</linearGradient>
<clipPath id="clip0_3_492">
<rect width="40" height="40" fill="white" transform="translate(20 100)"/>
</clipPath>
<clipPath id="clip1_3_492">
<rect width="40" height="40" fill="white" transform="translate(70 100)"/>
</clipPath>
<clipPath id="clip2_3_492">
<rect width="40" height="40" fill="white" transform="translate(120 100)"/>
</clipPath>
<clipPath id="clip3_3_492">
<rect width="40" height="40" fill="white" transform="translate(170 100)"/>
</clipPath>
<clipPath id="clip4_3_492">
<rect width="40" height="40" fill="white" transform="translate(299 171)"/>
</clipPath>
<clipPath id="clip5_3_492">
<rect width="40" height="40" fill="white" transform="translate(349 171)"/>
</clipPath>
<clipPath id="clip6_3_492">
<rect width="40" height="40" fill="white" transform="translate(399 171)"/>
</clipPath>
<clipPath id="clip7_3_492">
<rect width="40" height="40" fill="white" transform="translate(449 171)"/>
</clipPath>
</defs>
</svg>
