<svg xmlns="http://www.w3.org/2000/svg" xmlns:xlink="http://www.w3.org/1999/xlink" width="1829" height="887" fill="none" xmlns:v="https://vecta.io/nano"><style><![CDATA[.B{stroke-linecap:round}.C{stroke:#d1d1d1}.D{fill:#0e0e0e}.E{fill:#fff}.F{fill:#12ec14}.G{fill:#292929}.H{fill:#b421e3}.I{fill:#6b6b6b}.J{fill:#f8f1ff}.K{stroke:#90f}.L{stroke-width:.94}.M{fill:#2b2b2b}.N{stroke:#ff9d38}.O{stroke-width:1.5}.P{stroke-linejoin:round}.Q{stroke:#6817ff}.R{stroke-width:2.33}.S{stroke:#d9d9d9}.T{fill:#393939}.U{fill-opacity:.2}.V{fill:#2d29ff}.W{stroke:#ebccff}.X{stroke-width:1.165}]]></style><path d="M0 0h1829v887H0z" class="E"/><g class="B C"><use xlink:href="#E"/><use xlink:href="#E" y="187"/><use xlink:href="#E" x="256"/><use xlink:href="#E" x="256" y="187"/></g><path d="M480.693 316.175c-.909 0-1.742-.257-2.499-.769-.745-.513-1.339-1.235-1.782-2.167-.443-.943-.664-2.05-.664-3.32s.216-2.37.647-3.302c.442-.932 1.036-1.648 1.782-2.149a4.25 4.25 0 0 1 2.463-.769c.921 0 1.754.256 2.499.769.746.501 1.334 1.217 1.765 2.149.442.932.664 2.039.664 3.32 0 1.27-.222 2.376-.664 3.32-.431.932-1.019 1.654-1.765 2.166a4.24 4.24 0 0 1-2.446.752zm-.035-1.555c.641 0 1.2-.175 1.677-.525.49-.361.874-.891 1.154-1.59s.419-1.56.419-2.586-.14-1.881-.419-2.568c-.28-.699-.664-1.223-1.154-1.573-.489-.361-1.054-.541-1.695-.541a2.75 2.75 0 0 0-1.677.541c-.489.35-.874.874-1.153 1.573-.268.687-.402 1.543-.402 2.568s.134 1.888.402 2.586c.279.699.664 1.229 1.153 1.59.489.35 1.054.525 1.695.525zm10.54 1.555c-.803 0-1.514-.152-2.131-.455-.606-.302-1.078-.722-1.416-1.258s-.506-1.141-.506-1.817a3.55 3.55 0 0 1 .314-1.502 3.07 3.07 0 0 1 .926-1.154c.408-.326.886-.559 1.433-.699l.052.472c-.465-.128-.862-.332-1.188-.611-.326-.292-.576-.629-.751-1.014a3.27 3.27 0 0 1-.245-1.258c0-.629.152-1.182.455-1.66a3.12 3.12 0 0 1 1.24-1.118c.536-.28 1.142-.419 1.817-.419.688 0 1.293.139 1.818.419a3.12 3.12 0 0 1 1.24 1.118c.303.478.454 1.031.454 1.66 0 .443-.087.862-.262 1.258-.163.385-.407.722-.734 1.014-.314.279-.704.483-1.17.611l.035-.472c.559.14 1.036.373 1.433.699a3.07 3.07 0 0 1 .926 1.154c.221.454.332.955.332 1.502a3.33 3.33 0 0 1-.507 1.817c-.338.536-.816.956-1.433 1.258-.606.303-1.316.455-2.132.455zm0-1.485c.49 0 .915-.094 1.276-.28.373-.198.664-.466.874-.804a2.09 2.09 0 0 0 .332-1.17c0-.431-.111-.816-.332-1.154-.21-.337-.501-.6-.874-.786-.361-.198-.786-.297-1.276-.297-.477 0-.902.099-1.275.297a2.24 2.24 0 0 0-.891.786c-.21.338-.315.723-.315 1.154a2.17 2.17 0 0 0 .315 1.17 2.37 2.37 0 0 0 .891.804c.373.186.798.28 1.275.28zm0-5.766c.583 0 1.06-.181 1.433-.542s.559-.827.559-1.398c0-.559-.186-1.013-.559-1.363-.373-.361-.85-.541-1.433-.541-.57 0-1.042.18-1.415.541-.373.35-.559.804-.559 1.363 0 .571.186 1.037.559 1.398s.845.542 1.415.542z" class="D"/><g class="B C"><use xlink:href="#E" x="512"/><use xlink:href="#E" x="512" y="187"/></g><path d="M736.437 316.175a4.37 4.37 0 0 1-2.499-.769c-.745-.513-1.339-1.235-1.782-2.167-.443-.943-.664-2.05-.664-3.32s.216-2.37.647-3.302c.442-.932 1.036-1.648 1.782-2.149a4.25 4.25 0 0 1 2.464-.769c.92 0 1.753.256 2.498.769.746.501 1.334 1.217 1.765 2.149.443.932.664 2.039.664 3.32 0 1.27-.221 2.376-.664 3.32-.431.932-1.019 1.654-1.765 2.166a4.24 4.24 0 0 1-2.446.752zm-.035-1.555c.641 0 1.2-.175 1.677-.525.49-.361.874-.891 1.154-1.59s.419-1.56.419-2.586-.14-1.881-.419-2.568c-.28-.699-.664-1.223-1.154-1.573-.489-.361-1.054-.541-1.694-.541-.629 0-1.189.18-1.678.541-.489.35-.873.874-1.153 1.573-.268.687-.402 1.543-.402 2.568s.134 1.888.402 2.586c.28.699.664 1.229 1.153 1.59.489.35 1.054.525 1.695.525zm8.304 1.38l3.652-4.98.594-.314a2.57 2.57 0 0 1-.507.611c-.198.175-.443.309-.734.402-.279.093-.623.14-1.031.14-.699 0-1.345-.169-1.939-.507-.583-.338-1.048-.803-1.398-1.398-.349-.605-.524-1.287-.524-2.044 0-.78.192-1.485.576-2.114.385-.641.897-1.147 1.538-1.52a4.06 4.06 0 0 1 2.132-.577c.792 0 1.508.187 2.149.559a4.18 4.18 0 0 1 1.52 1.503c.373.617.559 1.316.559 2.097 0 1.071-.373 2.137-1.118 3.197L746.61 316h-1.904zm2.359-5.434c.489 0 .926-.117 1.31-.349.396-.245.705-.565.926-.961.233-.408.35-.857.35-1.346 0-.512-.117-.967-.35-1.363a2.45 2.45 0 0 0-.926-.961c-.384-.233-.821-.349-1.31-.349a2.57 2.57 0 0 0-1.328.349 2.62 2.62 0 0 0-.926.961c-.233.396-.35.851-.35 1.363 0 .501.117.949.35 1.346a2.76 2.76 0 0 0 .943.961c.396.232.833.349 1.311.349z" class="D"/><g class="B C"><use xlink:href="#E" x="768"/><use xlink:href="#E" x="768" y="187"/></g><path d="M993.499 316v-12.126h1.625V316h-1.625zm-2.481-10.658v-1.468h3.931v1.468h-3.931zm11.282 10.833a4.37 4.37 0 0 1-2.499-.769c-.746-.513-1.34-1.235-1.782-2.167-.443-.943-.664-2.05-.664-3.32s.215-2.37.646-3.302c.443-.932 1.037-1.648 1.782-2.149.747-.513 1.567-.769 2.467-.769a4.32 4.32 0 0 1 2.5.769c.74.501 1.33 1.217 1.76 2.149.44.932.66 2.039.66 3.32 0 1.27-.22 2.376-.66 3.32-.43.932-1.02 1.654-1.76 2.166a4.26 4.26 0 0 1-2.45.752zm-.04-1.555c.65 0 1.2-.175 1.68-.525.49-.361.88-.891 1.16-1.59.27-.698.41-1.56.41-2.586s-.14-1.881-.41-2.568c-.28-.699-.67-1.223-1.16-1.573-.49-.361-1.05-.541-1.69-.541-.63 0-1.19.18-1.68.541-.49.35-.874.874-1.153 1.573-.268.687-.402 1.543-.402 2.568s.134 1.888.402 2.586c.279.699.663 1.229 1.153 1.59.49.35 1.05.525 1.69.525z" class="D"/><g class="B C"><use xlink:href="#F"/><use xlink:href="#F" y="187"/></g><path d="M1254.91 316v-12.126h1.62V316h-1.62zm-2.48-10.658v-1.468h3.93v1.468h-3.93zm8.54 10.658v-12.126h1.62V316h-1.62zm-2.49-10.658v-1.468h3.94v1.468h-3.94z" class="D"/><g class="B C"><use xlink:href="#F" x="256"/><use xlink:href="#F" x="256" y="187"/><use xlink:href="#F" x="512"/><use xlink:href="#F" x="512" y="187"/></g><path d="M1763.56 316v-12.126h1.63V316h-1.63zm-2.48-10.658v-1.468h3.93v1.468h-3.93zm9.83 10.833c-.79 0-1.51-.146-2.16-.437-.64-.303-1.19-.74-1.63-1.311l1.12-1.118a2.96 2.96 0 0 0 1.1.979c.47.233.99.349 1.56.349.53 0 .99-.099 1.38-.297.39-.21.7-.501.92-.874.24-.372.35-.803.35-1.293 0-.5-.11-.931-.35-1.293-.22-.372-.53-.658-.94-.856s-.89-.297-1.45-.297c-.21 0-.42.018-.63.053a3.56 3.56 0 0 0-.61.122l.7-.944c.22-.104.46-.186.71-.244.26-.058.52-.088.77-.088.65 0 1.24.152 1.75.455.52.303.94.728 1.24 1.275.31.548.47 1.183.47 1.905 0 .769-.18 1.45-.56 2.044-.36.583-.86 1.043-1.5 1.38-.64.327-1.39.49-2.24.49zm-1.34-6.273v-.996l3.55-4.036 1.95-.018-3.65 4.141-1.85.909zm-1.87-4.56v-1.468h7.37v.978l-1.43.49h-5.94z" class="D"/><g class="B C"><use xlink:href="#E" y="188"/><use xlink:href="#E" y="375"/></g><path d="M226.523 504v-12.126h1.625V504h-1.625zm-2.481-10.658v-1.468h3.931v1.468h-3.931zm6.092 6.482l4.421-7.95h1.852l-4.508 7.95h-1.765zm0 1.013v-1.013l.699-.454h8.596v1.467h-9.295zm5.923 3.163v-8.02h1.625V504h-1.625z" class="D"/><g class="B C"><use xlink:href="#E" x="256" y="188"/><use xlink:href="#E" x="256" y="375"/></g><path d="M483.512 504v-12.126h1.625V504h-1.625zm-2.481-10.658v-1.468h3.932v1.468h-3.932zm9.849 10.833c-.827 0-1.567-.146-2.219-.437-.64-.303-1.182-.74-1.625-1.311l1.118-1.118c.268.408.635.734 1.101.979a3.58 3.58 0 0 0 1.59.349c.548 0 1.025-.105 1.433-.314.419-.21.746-.501.979-.874.244-.384.366-.839.366-1.363 0-.536-.116-.99-.349-1.363s-.548-.652-.944-.838a2.74 2.74 0 0 0-1.275-.298c-.478 0-.914.059-1.311.175a3.3 3.3 0 0 0-1.1.594l.017-1.048c.198-.245.425-.443.682-.594s.547-.268.873-.35.705-.122 1.136-.122c.839 0 1.549.175 2.132.524s1.025.821 1.328 1.416c.314.594.471 1.258.471 1.991 0 .769-.192 1.457-.576 2.062a3.93 3.93 0 0 1-1.555 1.433c-.664.338-1.421.507-2.272.507zm-2.236-5.819l-.891-.891.541-5.591h1.503l-.612 5.748-.541.734zm-.018-5.014l-.332-1.468h6.378v1.468h-6.046z" class="D"/><g class="B C"><use xlink:href="#E" x="512" y="188"/><use xlink:href="#E" x="512" y="375"/><use xlink:href="#E" x="768" y="188"/><use xlink:href="#E" x="768" y="375"/></g><path d="M995.905 504v-12.126h1.625V504h-1.625zm-2.481-10.658v-1.468h3.931v1.468h-3.931zM1001.27 504l4.54-11.165 1.62.052L1003 504h-1.73zm-1.908-10.658v-1.468h8.068v1.013l-.71.455h-7.358z" class="D"/><g class="B C"><use xlink:href="#F" y="188"/><use xlink:href="#F" y="375"/></g><path d="M1251.36 504v-12.126h1.62V504h-1.62zm-2.48-10.658v-1.468h3.93v1.468h-3.93zm10.32 10.833c-.81 0-1.52-.152-2.13-.455s-1.08-.722-1.42-1.258-.51-1.141-.51-1.817c0-.547.11-1.048.32-1.502a3.05 3.05 0 0 1 .93-1.154c.4-.326.88-.559 1.43-.699l.05.472c-.47-.128-.86-.332-1.19-.611a3.19 3.19 0 0 1-.75-1.014c-.16-.396-.24-.815-.24-1.258 0-.629.15-1.182.45-1.66s.72-.85 1.24-1.118c.54-.28 1.14-.419 1.82-.419.69 0 1.29.139 1.82.419.52.268.93.641 1.24 1.118.3.478.45 1.031.45 1.66a3.16 3.16 0 0 1-.26 1.258 2.77 2.77 0 0 1-.74 1.014c-.31.279-.7.483-1.17.611l.04-.472c.56.14 1.04.373 1.43.699a3.05 3.05 0 0 1 .93 1.154 3.4 3.4 0 0 1 .33 1.502c0 .676-.17 1.282-.51 1.817-.33.536-.81.956-1.43 1.258-.61.303-1.32.455-2.13.455zm0-1.485c.49 0 .91-.094 1.27-.28.38-.198.67-.466.88-.804.22-.338.33-.728.33-1.17a2.07 2.07 0 0 0-.33-1.154c-.21-.337-.5-.6-.88-.786-.36-.198-.78-.297-1.27-.297-.48 0-.9.099-1.28.297a2.25 2.25 0 0 0-.89.786c-.21.338-.31.723-.31 1.154 0 .442.1.832.31 1.17.22.338.52.606.89.804.38.186.8.28 1.28.28zm0-5.766c.58 0 1.06-.181 1.43-.542s.56-.827.56-1.398c0-.559-.19-1.013-.56-1.363-.37-.361-.85-.541-1.43-.541-.57 0-1.04.18-1.42.541-.37.35-.56.804-.56 1.363 0 .571.19 1.037.56 1.398.38.361.85.542 1.42.542z" class="D"/><g class="B C"><use xlink:href="#F" x="256" y="188"/><use xlink:href="#F" x="256" y="375"/></g><path d="M1507.1 504v-12.126h1.63V504h-1.63zm-2.48-10.658v-1.468h3.93v1.468h-3.93zm8.09 10.658l3.65-4.98.59-.314c-.14.233-.31.437-.5.611-.2.175-.45.309-.74.402-.28.093-.62.14-1.03.14-.7 0-1.35-.169-1.94-.507-.58-.338-1.05-.803-1.4-1.398-.35-.605-.52-1.287-.52-2.044 0-.78.19-1.485.58-2.114a4.22 4.22 0 0 1 1.53-1.52c.64-.385 1.35-.577 2.13-.577.8 0 1.51.187 2.15.559s1.15.874 1.52 1.503c.38.617.56 1.316.56 2.097 0 1.071-.37 2.137-1.12 3.197l-3.56 4.945h-1.9zm2.35-5.434c.49 0 .93-.117 1.32-.349a2.64 2.64 0 0 0 .92-.961 2.7 2.7 0 0 0 .35-1.346c0-.512-.12-.967-.35-1.363a2.47 2.47 0 0 0-.92-.961c-.39-.233-.83-.349-1.32-.349-.48 0-.93.116-1.32.349a2.57 2.57 0 0 0-.93.961c-.23.396-.35.851-.35 1.363 0 .501.12.949.35 1.346a2.78 2.78 0 0 0 .94.961c.4.232.84.349 1.31.349z" class="D"/><g class="B C"><use xlink:href="#F" x="512" y="188"/><use xlink:href="#F" x="512" y="375"/></g><path d="M1755.66 503.004l4.47-4.718 1.07-1.205c.25-.35.43-.67.54-.961s.17-.594.17-.909c0-.617-.2-1.101-.59-1.45-.4-.349-.91-.524-1.54-.524-.62 0-1.16.151-1.62.454-.47.291-.88.746-1.24 1.363l-1.16-.961c.48-.792 1.06-1.386 1.73-1.782.68-.408 1.46-.612 2.34-.612.75 0 1.4.146 1.94.437.56.291.99.699 1.3 1.223.3.524.45 1.136.45 1.835 0 .501-.06.949-.19 1.345-.12.396-.33.804-.65 1.223-.3.408-.73.897-1.27 1.468l-3.62 3.722-2.13.052zm0 .996v-.996l1.39-.472h6.75V504h-8.14zm14.64.175c-.91 0-1.74-.257-2.5-.769-.74-.513-1.34-1.235-1.78-2.167-.44-.943-.67-2.05-.67-3.32s.22-2.37.65-3.302c.44-.932 1.04-1.648 1.78-2.149.75-.513 1.57-.769 2.47-.769a4.32 4.32 0 0 1 2.5.769c.74.501 1.33 1.217 1.76 2.149.44.932.66 2.039.66 3.32 0 1.27-.22 2.376-.66 3.32-.43.932-1.02 1.654-1.76 2.166a4.26 4.26 0 0 1-2.45.752zm-.04-1.555c.65 0 1.2-.175 1.68-.525.49-.361.88-.891 1.16-1.59.27-.698.41-1.56.41-2.586s-.14-1.881-.41-2.568c-.28-.699-.67-1.223-1.16-1.573-.49-.361-1.05-.541-1.69-.541-.63 0-1.19.18-1.68.541-.49.35-.87.874-1.15 1.573-.27.687-.41 1.543-.41 2.568s.14 1.888.41 2.586c.28.699.66 1.229 1.15 1.59.49.35 1.05.525 1.69.525z" class="D"/><g class="B C"><use xlink:href="#E" y="376"/><use xlink:href="#E" y="563"/></g><path d="M225.066 691.004l4.473-4.718 1.066-1.205c.256-.35.437-.67.542-.961.116-.291.174-.594.174-.909 0-.617-.198-1.101-.594-1.45s-.908-.524-1.537-.524c-.618 0-1.159.151-1.625.454-.466.291-.88.746-1.241 1.363l-1.153-.961c.478-.792 1.054-1.386 1.73-1.782.675-.408 1.456-.612 2.341-.612.746 0 1.392.146 1.94.437.559.291.99.699 1.293 1.223s.454 1.136.454 1.835c0 .501-.064.949-.192 1.345-.117.396-.332.804-.647 1.223-.303.408-.728.897-1.275 1.468l-3.617 3.722-2.132.052zm0 .996v-.996l1.398-.472h6.744V692h-8.142zm11.899 0v-12.126h1.625V692h-1.625zm-2.481-10.658v-1.468h3.932v1.468h-3.932z" class="D"/><g class="B C"><use xlink:href="#E" x="256" y="376"/><use xlink:href="#E" x="256" y="563"/></g><path d="M477.671 691.004l4.473-4.718 1.065-1.205c.257-.35.437-.67.542-.961.117-.291.175-.594.175-.909 0-.617-.198-1.101-.594-1.45s-.909-.524-1.538-.524c-.617 0-1.159.151-1.625.454-.466.291-.879.746-1.24 1.363l-1.154-.961c.478-.792 1.055-1.386 1.73-1.782.676-.408 1.456-.612 2.342-.612.745 0 1.392.146 1.939.437.559.291.99.699 1.293 1.223s.454 1.136.454 1.835c0 .501-.064.949-.192 1.345-.116.396-.332.804-.646 1.223-.303.408-.728.897-1.276 1.468l-3.617 3.722-2.131.052zm0 .996v-.996l1.397-.472h6.745V692h-8.142zm9.453-.996l4.473-4.718 1.065-1.205c.257-.35.437-.67.542-.961.117-.291.175-.594.175-.909 0-.617-.198-1.101-.594-1.45s-.909-.524-1.538-.524c-.617 0-1.159.151-1.625.454-.466.291-.879.746-1.24 1.363l-1.154-.961c.478-.792 1.055-1.386 1.73-1.782.676-.408 1.456-.612 2.342-.612.745 0 1.392.146 1.939.437.559.291.99.699 1.293 1.223s.454 1.136.454 1.835c0 .501-.064.949-.192 1.345-.116.396-.332.804-.646 1.223-.303.408-.728.897-1.276 1.468l-3.617 3.722-2.131.052zm0 .996v-.996l1.397-.472h6.745V692h-8.142z" class="D"/><g class="B C"><use xlink:href="#E" x="512" y="376"/><use xlink:href="#E" x="512" y="563"/></g><path d="M733.722 691.004l4.473-4.718 1.066-1.205c.256-.35.436-.67.541-.961.117-.291.175-.594.175-.909 0-.617-.198-1.101-.594-1.45s-.909-.524-1.538-.524c-.617 0-1.159.151-1.625.454-.466.291-.879.746-1.24 1.363l-1.153-.961c.477-.792 1.054-1.386 1.729-1.782.676-.408 1.456-.612 2.342-.612.745 0 1.392.146 1.939.437.559.291.99.699 1.293 1.223s.454 1.136.454 1.835c0 .501-.064.949-.192 1.345-.116.396-.332.804-.646 1.223-.303.408-.728.897-1.276 1.468l-3.617 3.722-2.131.052zm0 .996v-.996l1.398-.472h6.744V692h-8.142zm13.192.175c-.792 0-1.514-.146-2.167-.437-.64-.303-1.182-.74-1.625-1.311l1.119-1.118c.268.408.634.734 1.1.979a3.43 3.43 0 0 0 1.555.349c.536 0 .996-.099 1.381-.297a2.31 2.31 0 0 0 .926-.874c.233-.372.349-.803.349-1.293 0-.5-.116-.931-.349-1.293-.221-.372-.536-.658-.944-.856s-.891-.297-1.45-.297c-.21 0-.419.018-.629.053-.21.023-.413.064-.611.122l.698-.944c.222-.104.461-.186.717-.244a3.47 3.47 0 0 1 .769-.088c.652 0 1.234.152 1.747.455.524.303.938.728 1.24 1.275.315.548.472 1.183.472 1.905 0 .769-.186 1.45-.559 2.044-.361.583-.862 1.043-1.503 1.38-.64.327-1.386.49-2.236.49zm-1.345-6.273v-.996l3.546-4.036 1.957-.018-3.651 4.141-1.852.909zm-1.87-4.56v-1.468h7.373v.978l-1.432.49h-5.941z" class="D"/><g class="B C"><use xlink:href="#E" x="768" y="376"/><use xlink:href="#E" x="768" y="563"/></g><path d="M988.681 691.004l4.473-4.718 1.066-1.205c.256-.35.437-.67.541-.961.117-.291.175-.594.175-.909 0-.617-.198-1.101-.594-1.45s-.909-.524-1.538-.524c-.617 0-1.159.151-1.625.454-.465.291-.879.746-1.24 1.363l-1.153-.961c.477-.792 1.054-1.386 1.73-1.782.675-.408 1.456-.612 2.341-.612.745 0 1.392.146 1.939.437.559.291.99.699 1.293 1.223s.455 1.136.455 1.835c0 .501-.064.949-.193 1.345-.116.396-.332.804-.646 1.223-.303.408-.728.897-1.276 1.468l-3.616 3.722-2.132.052zm0 .996v-.996l1.398-.472h6.744V692h-8.142zm9.453-4.176l4.416-7.95h1.86l-4.511 7.95h-1.765zm0 1.013v-1.013l.699-.454h8.597v1.467h-9.296zm5.926 3.163v-8.02h1.62V692h-1.62z" class="D"/><g class="B C"><use xlink:href="#F" y="376"/><use xlink:href="#F" y="563"/></g><path d="M1245.67 691.004l4.47-4.718c.46-.466.81-.867 1.07-1.205.26-.35.44-.67.54-.961a2.36 2.36 0 0 0 .18-.909c0-.617-.2-1.101-.6-1.45-.39-.349-.91-.524-1.54-.524-.61 0-1.15.151-1.62.454-.47.291-.88.746-1.24 1.363l-1.15-.961c.47-.792 1.05-1.386 1.73-1.782.67-.408 1.45-.612 2.34-.612.74 0 1.39.146 1.94.437a3.09 3.09 0 0 1 1.29 1.223c.3.524.45 1.136.45 1.835 0 .501-.06.949-.19 1.345-.12.396-.33.804-.65 1.223-.3.408-.72.897-1.27 1.468l-3.62 3.722-2.13.052zm0 .996v-.996l1.4-.472h6.74V692h-8.14zm13.21.175c-.83 0-1.57-.146-2.22-.437-.64-.303-1.18-.74-1.62-1.311l1.11-1.118c.27.408.64.734 1.11.979.47.233 1 .349 1.59.349.54 0 1.02-.105 1.43-.314.42-.21.74-.501.98-.874.24-.384.36-.839.36-1.363 0-.536-.11-.99-.35-1.363a2.14 2.14 0 0 0-.94-.838c-.38-.198-.81-.298-1.28-.298s-.91.059-1.31.175a3.35 3.35 0 0 0-1.1.594l.02-1.048a2.64 2.64 0 0 1 .68-.594c.26-.152.55-.268.88-.35a4.66 4.66 0 0 1 1.13-.122c.84 0 1.55.175 2.13.524a3.39 3.39 0 0 1 1.33 1.416c.32.594.47 1.258.47 1.991 0 .769-.19 1.457-.57 2.062a3.95 3.95 0 0 1-1.56 1.433c-.66.338-1.42.507-2.27.507zm-2.24-5.819l-.89-.891.54-5.591h1.51l-.61 5.748-.55.734zm-.01-5.014l-.34-1.468h6.38v1.468h-6.04z" class="D"/><g class="B C"><use xlink:href="#F" x="256" y="376"/><use xlink:href="#F" x="256" y="563"/><use xlink:href="#F" x="512" y="376"/><use xlink:href="#F" x="512" y="563"/></g><path d="M1758.4 691.004l4.48-4.718 1.06-1.205c.26-.35.44-.67.54-.961a2.36 2.36 0 0 0 .18-.909c0-.617-.2-1.101-.59-1.45-.4-.349-.91-.524-1.54-.524-.62 0-1.16.151-1.63.454-.46.291-.88.746-1.24 1.363l-1.15-.961c.48-.792 1.05-1.386 1.73-1.782.67-.408 1.45-.612 2.34-.612.75 0 1.39.146 1.94.437a3.09 3.09 0 0 1 1.29 1.223c.31.524.46 1.136.46 1.835 0 .501-.07.949-.2 1.345-.11.396-.33.804-.64 1.223-.3.408-.73.897-1.28 1.468l-3.61 3.722-2.14.052zm0 .996v-.996l1.4-.472h6.75V692h-8.15zm10.87 0l4.54-11.165 1.62.052L1771 692h-1.73zm-1.91-10.658v-1.468h8.07v1.013l-.71.455h-7.36z" class="D"/><g class="B C"><use xlink:href="#E" y="-188"/><use xlink:href="#E" y="-1"/></g><path d="M223.447 128.175c-.792 0-1.514-.146-2.166-.437a4.42 4.42 0 0 1-1.625-1.311l1.118-1.118c.268.408.635.734 1.101.979.466.233.984.349 1.555.349.536 0 .996-.099 1.38-.297a2.31 2.31 0 0 0 .926-.874c.233-.372.35-.803.35-1.293 0-.5-.117-.931-.35-1.293a2.17 2.17 0 0 0-.943-.856c-.408-.198-.891-.297-1.45-.297-.21 0-.42.018-.629.053-.21.023-.414.064-.612.122l.699-.944c.221-.104.46-.186.716-.244s.513-.088.769-.088c.652 0 1.235.152 1.747.455.525.303.938.728 1.241 1.275.314.548.472 1.183.472 1.905 0 .769-.187 1.45-.559 2.044a3.82 3.82 0 0 1-1.503 1.38c-.641.327-1.386.49-2.237.49zm-1.345-6.273v-.996l3.547-4.036 1.957-.018-3.652 4.141-1.852.909zm-1.87-4.56v-1.468h7.374v.978l-1.433.49h-5.941zm14.068 10.833c-.909 0-1.742-.257-2.499-.769-.746-.513-1.34-1.235-1.782-2.167-.443-.943-.664-2.05-.664-3.32s.215-2.37.646-3.302c.443-.932 1.037-1.648 1.782-2.149.746-.513 1.567-.769 2.464-.769a4.31 4.31 0 0 1 2.499.769c.745.501 1.333 1.217 1.764 2.149.443.932.664 2.039.664 3.32 0 1.27-.221 2.376-.664 3.32-.431.932-1.019 1.654-1.764 2.166-.734.501-1.55.752-2.446.752zm-.035-1.555c.64 0 1.199-.175 1.677-.525.489-.361.874-.891 1.153-1.59s.419-1.56.419-2.586-.139-1.881-.419-2.568c-.279-.699-.664-1.223-1.153-1.573-.489-.361-1.054-.541-1.695-.541a2.75 2.75 0 0 0-1.677.541c-.49.35-.874.874-1.153 1.573-.268.687-.402 1.543-.402 2.568s.134 1.888.402 2.586c.279.699.663 1.229 1.153 1.59.489.35 1.054.525 1.695.525z" fill="#9e9e9e"/><path d="M227.104 91.175c-.955 0-1.771-.175-2.446-.524s-1.276-.856-1.8-1.52l1.118-1.118c.384.536.827.943 1.328 1.223.501.268 1.118.402 1.852.402.722 0 1.299-.157 1.73-.472a1.5 1.5 0 0 0 .664-1.293c0-.454-.105-.821-.315-1.101s-.495-.507-.856-.681c-.349-.186-.734-.349-1.153-.489l-1.258-.472c-.419-.175-.804-.384-1.153-.629a2.96 2.96 0 0 1-.856-.996c-.21-.408-.315-.92-.315-1.538 0-.687.163-1.27.489-1.747a3.22 3.22 0 0 1 1.363-1.118c.583-.268 1.235-.402 1.957-.402.792 0 1.503.157 2.132.472.629.303 1.141.705 1.537 1.206l-1.118 1.118c-.361-.419-.751-.734-1.17-.944-.408-.21-.88-.314-1.416-.314-.652 0-1.17.146-1.555.437-.384.28-.576.676-.576 1.188 0 .408.104.74.314.996.221.245.507.454.856.629a10.82 10.82 0 0 0 1.153.489l1.276.472a5.12 5.12 0 0 1 1.153.664c.35.268.629.617.839 1.048.221.419.332.949.332 1.59 0 1.072-.373 1.91-1.118 2.516-.734.606-1.73.909-2.988.909zm9.377 0c-.676 0-1.287-.151-1.835-.454a3.36 3.36 0 0 1-1.258-1.293c-.302-.547-.454-1.182-.454-1.905V82.7h1.573v4.753c0 .454.075.85.227 1.188.163.326.396.577.699.751s.658.262 1.066.262c.617 0 1.1-.192 1.45-.577.349-.396.524-.938.524-1.625V82.7h1.573v4.823c0 .722-.152 1.357-.455 1.905s-.722.978-1.258 1.293c-.524.303-1.141.454-1.852.454z" class="I"/><g class="B C"><use xlink:href="#E" x="256" y="-188"/><use xlink:href="#E" x="256" y="-1"/></g><path d="M484.242 128.175a4.37 4.37 0 0 1-2.499-.769c-.745-.513-1.339-1.235-1.782-2.167-.442-.943-.664-2.05-.664-3.32s.216-2.37.647-3.302c.442-.932 1.036-1.648 1.782-2.149a4.25 4.25 0 0 1 2.464-.769c.92 0 1.753.256 2.498.769.746.501 1.334 1.217 1.765 2.149.443.932.664 2.039.664 3.32 0 1.27-.221 2.376-.664 3.32-.431.932-1.019 1.654-1.765 2.166a4.24 4.24 0 0 1-2.446.752zm-.035-1.555c.641 0 1.2-.175 1.678-.525.489-.361.873-.891 1.153-1.59s.419-1.56.419-2.586-.14-1.881-.419-2.568c-.28-.699-.664-1.223-1.153-1.573a2.78 2.78 0 0 0-1.695-.541c-.629 0-1.188.18-1.678.541-.489.35-.873.874-1.153 1.573-.268.687-.402 1.543-.402 2.568s.134 1.888.402 2.586c.28.699.664 1.229 1.153 1.59.49.35 1.054.525 1.695.525zm8.758 1.38v-12.126h1.625V128h-1.625zm-2.481-10.658v-1.468h3.932v1.468h-3.932z" class="D"/><path d="M473.879 91V78.874h1.153l5.137 8.439h-.786l5.137-8.439h1.153V91h-1.643v-9.243l.385.105-4.054 6.657h-1.153l-4.054-6.657.367-.105V91h-1.642zm18.169.175c-.815 0-1.549-.192-2.201-.577s-1.171-.903-1.556-1.555c-.384-.664-.576-1.404-.576-2.219 0-.804.192-1.526.576-2.167a4.33 4.33 0 0 1 1.556-1.555c.652-.384 1.386-.577 2.201-.577.804 0 1.532.192 2.184.577a4.16 4.16 0 0 1 1.573 1.538c.384.652.576 1.38.576 2.184 0 .815-.192 1.555-.576 2.219a4.29 4.29 0 0 1-1.573 1.555c-.652.384-1.38.577-2.184.577zm0-1.52c.524 0 .99-.122 1.398-.367a2.63 2.63 0 0 0 .961-.996c.233-.431.349-.92.349-1.468 0-.536-.122-1.013-.367-1.433a2.5 2.5 0 0 0-.961-.978c-.396-.245-.856-.367-1.38-.367s-.99.122-1.398.367a2.51 2.51 0 0 0-.961.978 2.9 2.9 0 0 0-.349 1.433c0 .547.116 1.037.349 1.468.233.419.554.751.961.996s.874.367 1.398.367z" class="I"/><g class="B C"><use xlink:href="#E" x="512" y="-188"/><use xlink:href="#E" x="512" y="-1"/></g><path d="M736.881 128.175c-.909 0-1.742-.257-2.499-.769-.745-.513-1.34-1.235-1.782-2.167-.443-.943-.664-2.05-.664-3.32s.215-2.37.646-3.302c.443-.932 1.037-1.648 1.783-2.149.745-.513 1.566-.769 2.463-.769a4.31 4.31 0 0 1 2.499.769c.745.501 1.334 1.217 1.765 2.149.442.932.664 2.039.664 3.32 0 1.27-.222 2.376-.664 3.32-.431.932-1.02 1.654-1.765 2.166a4.24 4.24 0 0 1-2.446.752zm-.035-1.555c.64 0 1.199-.175 1.677-.525.489-.361.874-.891 1.153-1.59s.42-1.56.42-2.586-.14-1.881-.42-2.568c-.279-.699-.664-1.223-1.153-1.573-.489-.361-1.054-.541-1.695-.541a2.75 2.75 0 0 0-1.677.541c-.489.35-.874.874-1.153 1.573-.268.687-.402 1.543-.402 2.568s.134 1.888.402 2.586c.279.699.664 1.229 1.153 1.59.489.35 1.054.525 1.695.525zm6.278.384l4.473-4.718 1.065-1.205c.257-.35.437-.67.542-.961.117-.291.175-.594.175-.909 0-.617-.198-1.101-.594-1.45s-.909-.524-1.538-.524c-.617 0-1.159.151-1.625.454-.466.291-.879.746-1.24 1.363l-1.154-.961c.478-.792 1.055-1.386 1.73-1.782.676-.408 1.456-.612 2.342-.612.745 0 1.392.146 1.939.437.559.291.99.699 1.293 1.223s.454 1.136.454 1.835c0 .501-.064.949-.192 1.345-.116.396-.332.804-.646 1.223-.303.408-.728.897-1.276 1.468l-3.617 3.722-2.131.052zm0 .996v-.996l1.397-.472h6.745V128h-8.142z" class="D"/><path d="M730.415 91V79.223h1.642V91h-1.642zm-4.124-10.623v-1.503h9.872v1.503h-9.872zm13.181 10.798c-.676 0-1.287-.151-1.835-.454-.536-.314-.955-.745-1.258-1.293s-.454-1.182-.454-1.905V82.7h1.572v4.753c0 .454.076.85.227 1.188a1.75 1.75 0 0 0 .699.751c.303.175.658.262 1.066.262.618 0 1.101-.192 1.45-.577.35-.396.525-.938.525-1.625V82.7h1.572v4.823c0 .722-.151 1.357-.454 1.905s-.722.978-1.258 1.293c-.524.303-1.142.454-1.852.454zm9.009 0c-.676 0-1.287-.151-1.835-.454a3.36 3.36 0 0 1-1.258-1.293c-.302-.547-.454-1.182-.454-1.905V82.7h1.573v4.753c0 .454.075.85.227 1.188.163.326.396.577.699.751s.658.262 1.066.262c.617 0 1.1-.192 1.45-.577.349-.396.524-.938.524-1.625V82.7h1.573v4.823c0 .722-.152 1.357-.455 1.905s-.722.978-1.258 1.293c-.524.303-1.141.454-1.852.454z" class="I"/><g class="B C"><use xlink:href="#E" x="768" y="-188"/><use xlink:href="#E" x="768" y="-1"/></g><path d="M992.898 128.175c-.909 0-1.742-.257-2.499-.769-.745-.513-1.34-1.235-1.782-2.167-.443-.943-.664-2.05-.664-3.32s.215-2.37.646-3.302c.443-.932 1.037-1.648 1.783-2.149.745-.513 1.566-.769 2.463-.769a4.31 4.31 0 0 1 2.499.769c.745.501 1.334 1.217 1.765 2.149.442.932.664 2.039.664 3.32 0 1.27-.222 2.376-.664 3.32-.431.932-1.02 1.654-1.765 2.166a4.24 4.24 0 0 1-2.446.752zm-.035-1.555c.64 0 1.2-.175 1.677-.525.489-.361.874-.891 1.153-1.59s.42-1.56.42-2.586-.14-1.881-.42-2.568c-.279-.699-.664-1.223-1.153-1.573-.489-.361-1.054-.541-1.695-.541a2.75 2.75 0 0 0-1.677.541c-.489.35-.874.874-1.153 1.573-.268.687-.402 1.543-.402 2.568s.134 1.888.402 2.586c.279.699.664 1.229 1.153 1.59.489.35 1.054.525 1.695.525zm10.047 1.555c-.79 0-1.51-.146-2.16-.437-.64-.303-1.185-.74-1.628-1.311l1.118-1.118a2.96 2.96 0 0 0 1.1.979c.47.233.99.349 1.56.349.53 0 .99-.099 1.38-.297.39-.21.7-.501.92-.874.24-.372.35-.803.35-1.293 0-.5-.11-.931-.35-1.293-.22-.372-.53-.658-.94-.856s-.89-.297-1.45-.297c-.21 0-.42.018-.63.053a3.56 3.56 0 0 0-.61.122l.7-.944c.22-.104.46-.186.71-.244.26-.058.52-.088.77-.088.65 0 1.24.152 1.75.455.52.303.94.728 1.24 1.275.31.548.47 1.183.47 1.905 0 .769-.18 1.45-.56 2.044-.36.583-.86 1.043-1.5 1.38-.64.327-1.39.49-2.24.49zm-1.34-6.273v-.996l3.55-4.036 1.95-.018-3.65 4.141-1.85.909zm-1.871-4.56v-1.468h7.371v.978l-1.43.49h-5.941z" class="D"/><path d="M988.289 91l-3.966-12.126h1.642l3.145 9.89h-.472l3.093-9.89h1.188l3.093 9.89h-.454l3.145-9.89h1.627L996.379 91h-1.171l-3.11-9.872h.454L989.46 91h-1.171zm16.341.175c-.83 0-1.57-.186-2.24-.559-.66-.384-1.19-.903-1.57-1.555s-.58-1.392-.58-2.219c0-.815.19-1.549.56-2.202.39-.652.9-1.165 1.54-1.538a4.21 4.21 0 0 1 2.18-.577c.77 0 1.45.175 2.03.524a3.52 3.52 0 0 1 1.38 1.45c.34.617.51 1.316.51 2.097 0 .116-.01.245-.02.384a3.11 3.11 0 0 1-.07.454h-7.01v-1.31h6.17l-.57.507c0-.559-.1-1.031-.3-1.415-.2-.396-.48-.699-.84-.909-.36-.221-.8-.332-1.31-.332-.54 0-1.01.116-1.42.349a2.42 2.42 0 0 0-.94.978c-.22.419-.33.914-.33 1.485 0 .582.12 1.095.35 1.538a2.5 2.5 0 0 0 .99 1.013c.44.233.93.349 1.49.349a3.26 3.26 0 0 0 1.28-.245 2.68 2.68 0 0 0 1.01-.734l1.01 1.031a3.76 3.76 0 0 1-1.47 1.066 4.59 4.59 0 0 1-1.83.367z" class="I"/><g class="B C"><use xlink:href="#F" y="-188"/><use xlink:href="#F" y="-1"/></g><path d="M1247.86 128.175c-.91 0-1.74-.257-2.5-.769-.75-.513-1.34-1.235-1.78-2.167-.45-.943-.67-2.05-.67-3.32s.22-2.37.65-3.302c.44-.932 1.04-1.648 1.78-2.149.75-.513 1.57-.769 2.46-.769a4.3 4.3 0 0 1 2.5.769c.75.501 1.34 1.217 1.77 2.149.44.932.66 2.039.66 3.32 0 1.27-.22 2.376-.66 3.32-.43.932-1.02 1.654-1.77 2.166a4.23 4.23 0 0 1-2.44.752zm-.04-1.555c.64 0 1.2-.175 1.68-.525.49-.361.87-.891 1.15-1.59s.42-1.56.42-2.586-.14-1.881-.42-2.568c-.28-.699-.66-1.223-1.15-1.573-.49-.361-1.05-.541-1.7-.541a2.75 2.75 0 0 0-1.67.541c-.49.35-.88.874-1.16 1.573-.26.687-.4 1.543-.4 2.568s.14 1.888.4 2.586c.28.699.67 1.229 1.16 1.59.49.35 1.05.525 1.69.525zm6.31-2.796l4.42-7.95h1.86l-4.51 7.95h-1.77zm0 1.013v-1.013l.7-.454h8.6v1.467h-9.3zm5.93 3.163v-8.02h1.62V128h-1.62z" class="D"/><path d="M1249.15 91V79.223h1.65V91h-1.65zm-4.12-10.623v-1.503h9.87v1.503h-9.87zM1262.45 91v-4.84c0-.629-.2-1.147-.59-1.555-.4-.408-.91-.612-1.54-.612-.42 0-.79.093-1.12.28-.32.186-.58.443-.77.769a2.28 2.28 0 0 0-.28 1.118l-.64-.367c0-.629.14-1.188.42-1.677a3.02 3.02 0 0 1 1.17-1.153c.5-.291 1.06-.437 1.69-.437s1.18.14 1.66.419c.49.279.88.67 1.15 1.171.28.501.42 1.078.42 1.73V91h-1.57zm-5.87 0V78.525h1.57V91h-1.57z" class="I"/><g class="B C"><use xlink:href="#F" x="256" y="-188"/><use xlink:href="#F" x="256" y="-1"/></g><path d="M1504.85 128.175c-.91 0-1.74-.257-2.5-.769-.75-.513-1.34-1.235-1.78-2.167-.45-.943-.67-2.05-.67-3.32s.22-2.37.65-3.302c.44-.932 1.03-1.648 1.78-2.149.75-.513 1.57-.769 2.46-.769a4.3 4.3 0 0 1 2.5.769c.75.501 1.34 1.217 1.77 2.149.44.932.66 2.039.66 3.32 0 1.27-.22 2.376-.66 3.32-.43.932-1.02 1.654-1.77 2.166a4.23 4.23 0 0 1-2.44.752zm-.04-1.555c.64 0 1.2-.175 1.68-.525.49-.361.87-.891 1.15-1.59s.42-1.56.42-2.586-.14-1.881-.42-2.568c-.28-.699-.66-1.223-1.15-1.573-.49-.361-1.06-.541-1.7-.541a2.75 2.75 0 0 0-1.67.541c-.49.35-.88.874-1.16 1.573-.26.687-.4 1.543-.4 2.568s.14 1.888.4 2.586c.28.699.67 1.229 1.16 1.59.49.35 1.05.525 1.69.525zm10.07 1.555c-.83 0-1.57-.146-2.22-.437-.64-.303-1.18-.74-1.62-1.311l1.11-1.118c.27.408.64.734 1.11.979.47.233 1 .349 1.59.349.54 0 1.02-.105 1.43-.314.42-.21.74-.501.98-.874.24-.384.36-.839.36-1.363 0-.536-.11-.99-.35-1.363a2.14 2.14 0 0 0-.94-.838c-.38-.198-.81-.298-1.28-.298s-.91.059-1.31.175a3.35 3.35 0 0 0-1.1.594l.02-1.048a2.64 2.64 0 0 1 .68-.594c.26-.152.55-.268.88-.35a4.66 4.66 0 0 1 1.13-.122c.84 0 1.55.175 2.13.524a3.39 3.39 0 0 1 1.33 1.416c.32.594.47 1.258.47 1.991 0 .769-.19 1.457-.57 2.062a3.95 3.95 0 0 1-1.56 1.433c-.66.338-1.42.507-2.27.507zm-2.24-5.819l-.89-.891.54-5.591h1.51l-.61 5.748-.55.734zm-.01-5.014l-.34-1.468h6.38v1.468h-6.04z" class="D"/><path d="M1505.22 91V78.874h1.64V91h-1.64zm1.11-5.329v-1.503h6.33v1.503h-6.33zm0-5.294v-1.503h6.63v1.503h-6.63zm8.5 10.623v-8.3h1.58V91h-1.58zm1.58-4.735l-.6-.262c0-1.06.25-1.904.74-2.534.48-.629 1.19-.944 2.11-.944a2.77 2.77 0 0 1 1.14.227c.33.14.65.379.94.716l-1.03 1.066c-.18-.186-.37-.32-.58-.402s-.45-.122-.73-.122c-.58 0-1.06.186-1.44.559-.37.373-.55.938-.55 1.695z" class="I"/><g class="B C"><use xlink:href="#F" x="512" y="-188"/><use xlink:href="#F" x="512" y="-1"/></g><path d="M1760.44 128.175c-.91 0-1.74-.257-2.5-.769-.75-.513-1.34-1.235-1.78-2.167-.45-.943-.67-2.05-.67-3.32s.22-2.37.65-3.302c.44-.932 1.04-1.648 1.78-2.149.75-.513 1.57-.769 2.46-.769a4.3 4.3 0 0 1 2.5.769c.75.501 1.34 1.217 1.77 2.149.44.932.66 2.039.66 3.32 0 1.27-.22 2.376-.66 3.32-.43.932-1.02 1.654-1.77 2.166a4.23 4.23 0 0 1-2.44.752zm-.04-1.555c.64 0 1.2-.175 1.68-.525.49-.361.87-.891 1.15-1.59s.42-1.56.42-2.586-.14-1.881-.42-2.568c-.28-.699-.66-1.223-1.15-1.573-.49-.361-1.05-.541-1.7-.541a2.75 2.75 0 0 0-1.67.541c-.49.35-.88.874-1.16 1.573-.26.687-.4 1.543-.4 2.568s.14 1.888.4 2.586c.28.699.67 1.229 1.16 1.59.49.35 1.05.525 1.69.525zm10.66 1.555c-.8 0-1.52-.187-2.16-.559-.63-.373-1.13-.874-1.5-1.503-.38-.629-.56-1.328-.56-2.097 0-1.071.37-2.137 1.11-3.197l3.57-4.945h1.9l-3.65 4.98-.59.314c.14-.244.31-.448.5-.611.2-.175.45-.309.74-.402s.63-.14 1.03-.14c.71 0 1.35.169 1.92.507a3.85 3.85 0 0 1 1.4 1.397c.36.583.54 1.264.54 2.045 0 .769-.19 1.473-.58 2.114a4.21 4.21 0 0 1-1.53 1.538c-.64.372-1.35.559-2.14.559zm0-1.538c.49 0 .93-.116 1.32-.349a2.64 2.64 0 0 0 .92-.961 2.73 2.73 0 0 0 .35-1.363c0-.501-.12-.95-.35-1.346a2.47 2.47 0 0 0-.92-.961c-.39-.233-.83-.349-1.32-.349-.48 0-.93.116-1.32.349a2.57 2.57 0 0 0-.93.961c-.22.396-.33.845-.33 1.346s.11.955.33 1.363a2.57 2.57 0 0 0 .93.961c.39.233.84.349 1.32.349z" class="D"/><path d="M1762.06 91.175c-.95 0-1.77-.175-2.44-.524-.68-.349-1.28-.856-1.8-1.52l1.12-1.118c.38.536.82.943 1.32 1.223.5.268 1.12.402 1.86.402.72 0 1.29-.157 1.73-.472s.66-.746.66-1.293c0-.454-.11-.821-.32-1.101s-.49-.507-.85-.681c-.35-.186-.74-.349-1.15-.489l-1.26-.472c-.42-.175-.81-.384-1.16-.629-.35-.256-.63-.588-.85-.996-.21-.408-.32-.92-.32-1.538 0-.687.17-1.27.49-1.747.34-.489.79-.862 1.37-1.118.58-.268 1.23-.402 1.95-.402.79 0 1.5.157 2.13.472.63.303 1.15.705 1.54 1.206l-1.12 1.118c-.36-.419-.75-.734-1.17-.944-.41-.21-.88-.314-1.41-.314-.65 0-1.17.146-1.56.437-.38.28-.57.676-.57 1.188 0 .408.1.74.31.996.22.245.51.454.86.629s.73.338 1.15.489l1.28.472a5.33 5.33 0 0 1 1.15.664c.35.268.63.617.84 1.048.22.419.33.949.33 1.59 0 1.072-.37 1.91-1.12 2.516-.73.606-1.73.909-2.99.909zm9.45 0a3.93 3.93 0 0 1-2.06-.559 4.16 4.16 0 0 1-1.47-1.555c-.35-.652-.52-1.386-.52-2.202s.17-1.549.52-2.202c.36-.652.85-1.171 1.45-1.555.62-.384 1.31-.577 2.08-.577.63 0 1.19.134 1.68.402a3.16 3.16 0 0 1 1.21 1.083 3.11 3.11 0 0 1 .5 1.59V88.1c-.03.594-.2 1.124-.5 1.59s-.69.833-1.19 1.101c-.49.256-1.06.384-1.7.384zm.27-1.485c.78 0 1.4-.262 1.88-.786.48-.536.72-1.217.72-2.044 0-.571-.11-1.066-.33-1.485-.21-.431-.52-.763-.91-.996-.4-.245-.86-.367-1.38-.367-.53 0-.99.122-1.4.367a2.58 2.58 0 0 0-.94 1.013c-.23.419-.34.903-.34 1.45 0 .559.11 1.054.34 1.485a2.59 2.59 0 0 0 .96.996c.4.245.87.367 1.4.367zm2.49 1.311v-2.237l.3-2.027-.3-2.009V82.7h1.59V91h-1.59z" class="I"/><path fill-opacity=".12" d="M6.93 289h240.249v193H6.93z" class="J"/><rect x="14.236" y="305.47" width="111.371" height="26.06" rx="4.189" class="K L"/><path d="M25.925 322.704l3.25-7.898h.903l3.227 7.898h-1.399l-2.527-6.398h.474l-2.55 6.398h-1.377zm1.602-1.523v-1.129h4.186v1.129h-4.186zm8.686 1.636a2.47 2.47 0 0 1-1.331-.372c-.391-.249-.703-.583-.937-1.005-.226-.428-.339-.906-.339-1.433 0-.534.113-1.011.339-1.433.233-.428.545-.767.937-1.015.399-.256.843-.384 1.331-.384.414 0 .779.09 1.094.271a1.97 1.97 0 0 1 .767.722c.188.309.282.658.282 1.049v1.558c0 .391-.094.741-.282 1.049-.18.308-.432.553-.756.733-.323.173-.692.26-1.106.26zm.203-1.174c.308 0 .575-.067.801-.203.233-.143.414-.338.542-.586s.192-.535.192-.858-.064-.609-.192-.858a1.38 1.38 0 0 0-.542-.575c-.226-.143-.493-.214-.801-.214a1.5 1.5 0 0 0-.801.214 1.48 1.48 0 0 0-.542.575c-.128.249-.192.535-.192.858s.064.609.192.858c.135.248.316.443.542.586a1.56 1.56 0 0 0 .801.203zm2.697 1.061h-1.241v-1.455l.214-1.321-.214-1.309v-4.039h1.241v8.124zm3.645.113a2.47 2.47 0 0 1-1.331-.372c-.391-.249-.703-.583-.936-1.005-.226-.428-.339-.906-.339-1.433 0-.534.113-1.011.339-1.433.233-.428.545-.767.936-1.015.399-.256.843-.384 1.331-.384.414 0 .779.09 1.095.271a1.97 1.97 0 0 1 .767.722c.188.309.282.658.282 1.049v1.558c0 .391-.094.741-.282 1.049-.181.308-.432.553-.756.733-.323.173-.692.26-1.106.26zm.203-1.174c.308 0 .575-.067.801-.203.233-.143.414-.338.542-.586s.192-.535.192-.858-.064-.609-.192-.858a1.38 1.38 0 0 0-.542-.575c-.226-.143-.493-.214-.801-.214a1.5 1.5 0 0 0-.801.214 1.48 1.48 0 0 0-.542.575c-.128.249-.192.535-.192.858s.064.609.192.858c.135.248.316.443.542.586a1.56 1.56 0 0 0 .801.203zm2.697 1.061h-1.241v-1.455l.214-1.321-.214-1.309v-4.039h1.241v8.124zm6.006.113c-.624 0-1.155-.113-1.591-.339s-.828-.556-1.173-.993l.88-.88c.218.316.478.565.779.745.301.173.684.26 1.151.26.436 0 .782-.091 1.038-.271.263-.181.395-.429.395-.745 0-.263-.068-.478-.203-.643a1.5 1.5 0 0 0-.542-.406 4.39 4.39 0 0 0-.733-.294l-.801-.293c-.263-.113-.508-.252-.733-.418-.218-.165-.395-.379-.53-.643s-.203-.598-.203-1.004c0-.466.113-.861.339-1.185.233-.331.545-.583.936-.756s.828-.259 1.309-.259c.519 0 .982.101 1.388.304.414.204.749.463 1.004.779l-.88.88c-.226-.256-.463-.444-.711-.564-.241-.128-.519-.192-.835-.192-.391 0-.7.079-.925.237-.218.158-.327.38-.327.666 0 .24.068.436.203.587.135.142.312.267.53.372l.733.282.801.305a2.84 2.84 0 0 1 .733.44c.226.173.406.398.542.677s.203.628.203 1.049c0 .707-.252 1.268-.756 1.681-.496.414-1.17.621-2.02.621zm6.328 0c-.534 0-1.019-.124-1.456-.372-.429-.249-.767-.587-1.016-1.016s-.372-.906-.372-1.433c0-.534.124-1.012.372-1.433.248-.429.587-.767 1.016-1.016.436-.248.921-.372 1.456-.372a2.79 2.79 0 0 1 1.174.248 2.51 2.51 0 0 1 .936.689l-.812.823c-.158-.188-.35-.327-.575-.417-.218-.098-.459-.147-.722-.147-.309 0-.583.072-.824.215a1.47 1.47 0 0 0-.553.564c-.128.24-.192.523-.192.846a1.82 1.82 0 0 0 .192.846 1.56 1.56 0 0 0 .553.576c.241.135.515.203.824.203.263 0 .504-.045.722-.136.226-.097.417-.24.575-.428l.812.823c-.256.301-.568.534-.936.7-.361.158-.752.237-1.174.237zm6.717-.113v-3.125c0-.362-.116-.659-.35-.892a1.17 1.17 0 0 0-.88-.35c-.241 0-.455.053-.643.158a1.13 1.13 0 0 0-.44.44c-.105.188-.158.403-.158.644l-.485-.271c0-.414.09-.779.271-1.095a1.95 1.95 0 0 1 .745-.756c.323-.188.684-.282 1.083-.282a2.14 2.14 0 0 1 1.083.271c.316.18.564.432.745.756.181.316.271.684.271 1.106v3.396H64.71zm-3.712 0v-8.124h1.241v8.124h-1.241zm8.731.113c-.542 0-1.031-.12-1.467-.361-.429-.248-.771-.587-1.027-1.016-.248-.428-.372-.91-.372-1.444s.124-1.012.372-1.433a2.77 2.77 0 0 1 1.004-1.016c.429-.248.903-.372 1.422-.372.504 0 .948.117 1.331.35.391.233.696.553.914.959.226.406.339.869.339 1.388 0 .09-.008.184-.023.282-.008.09-.023.192-.045.305h-4.446v-1.016h3.803l-.463.406c-.015-.331-.079-.609-.192-.835s-.275-.398-.485-.519c-.203-.12-.455-.18-.756-.18-.316 0-.59.067-.824.203a1.38 1.38 0 0 0-.542.575c-.128.241-.192.531-.192.869s.068.636.203.892.327.455.575.598c.248.135.534.203.858.203a1.96 1.96 0 0 0 .767-.147c.241-.098.444-.241.609-.429l.79.801a2.53 2.53 0 0 1-.959.7c-.376.158-.775.237-1.196.237zm5.779 0a2.47 2.47 0 0 1-1.331-.372c-.391-.249-.703-.583-.937-1.005-.226-.428-.338-.906-.338-1.433 0-.534.113-1.011.338-1.433.233-.428.545-.767.937-1.015.399-.256.843-.384 1.331-.384.414 0 .779.09 1.095.271a1.97 1.97 0 0 1 .767.722c.188.309.282.658.282 1.049v1.558c0 .391-.094.741-.282 1.049-.18.308-.433.553-.756.733-.323.173-.692.26-1.106.26zm.203-1.174c.308 0 .576-.067.801-.203.233-.143.414-.338.542-.586s.192-.535.192-.858-.064-.609-.192-.858a1.38 1.38 0 0 0-.542-.575c-.226-.143-.493-.214-.801-.214a1.5 1.5 0 0 0-.801.214 1.48 1.48 0 0 0-.542.575c-.128.249-.192.535-.192.858s.064.609.192.858c.135.248.316.443.542.586a1.56 1.56 0 0 0 .801.203zm2.697 1.061h-1.241v-1.455l.214-1.321-.214-1.309v-4.039h1.241v8.124zm3.6.113c-.459 0-.869-.102-1.23-.305a2.22 2.22 0 0 1-.835-.835c-.196-.361-.293-.775-.293-1.241v-3.148h1.241v3.092c0 .263.041.489.124.677.09.18.218.319.384.417.173.098.376.147.609.147.361 0 .636-.105.824-.316.196-.218.293-.527.293-.925v-3.092h1.241v3.148c0 .474-.102.892-.305 1.253-.196.353-.47.631-.824.835-.354.195-.764.293-1.23.293zm3.606-.113v-8.124h1.241v8.124h-1.241zm5.139.113c-.542 0-1.03-.12-1.467-.361-.429-.248-.771-.587-1.027-1.016-.248-.428-.372-.91-.372-1.444s.124-1.012.372-1.433a2.77 2.77 0 0 1 1.004-1.016c.429-.248.903-.372 1.422-.372.504 0 .948.117 1.332.35.391.233.696.553.914.959a2.81 2.81 0 0 1 .338 1.388c0 .09-.008.184-.023.282-.007.09-.023.192-.045.305h-4.446v-1.016h3.803l-.463.406c-.015-.331-.079-.609-.192-.835a1.21 1.21 0 0 0-.485-.519c-.203-.12-.455-.18-.756-.18-.316 0-.591.067-.824.203a1.38 1.38 0 0 0-.542.575c-.128.241-.192.531-.192.869s.068.636.203.892.327.455.576.598c.248.135.534.203.858.203a1.96 1.96 0 0 0 .767-.147c.241-.098.444-.241.609-.429l.79.801a2.53 2.53 0 0 1-.959.7c-.376.158-.775.237-1.196.237z" class="M"/><g clip-path="url(#A)" class="N O P"><path d="M104.604 313.245c.027-.049.066-.09.114-.118a.32.32 0 0 1 .159-.044c.056 0 .111.016.159.044a.31.31 0 0 1 .115.118l1.845 3.503c.044.081.105.151.18.206s.16.092.25.109a.62.62 0 0 0 .274-.008c.089-.022.172-.065.244-.123l2.673-2.29c.051-.042.114-.067.18-.07a.31.31 0 0 1 .187.05c.056.036.098.089.122.151a.31.31 0 0 1 .009.193l-1.771 6.404c-.036.131-.114.246-.222.329a.62.62 0 0 1-.375.129h-7.738c-.136-.001-.268-.046-.376-.129s-.186-.198-.223-.329l-1.77-6.403c-.017-.064-.014-.132.01-.194a.31.31 0 0 1 .309-.2c.066.003.129.027.181.069l2.672 2.29a.62.62 0 0 0 .244.124c.089.023.183.026.273.008a.63.63 0 0 0 .251-.11c.074-.054.136-.124.18-.206l1.845-3.503z"/><path d="M100.502 324.329h8.75" class="B"/></g><circle cx="17.647" cy="361.237" r="2.912" class="F"/><path d="M31.241 363.432v-1.631h2.854c.391 0 .734-.076 1.027-.228.304-.163.544-.386.718-.669.174-.293.261-.636.261-1.027s-.087-.729-.261-1.011a1.7 1.7 0 0 0-.718-.669c-.293-.163-.636-.244-1.027-.244h-2.854v-1.631h2.952c.718 0 1.359.147 1.924.44.576.294 1.027.707 1.353 1.239.337.533.506 1.158.506 1.876s-.169 1.343-.506 1.875c-.326.533-.777.946-1.353 1.24-.565.293-1.207.44-1.924.44h-2.952zm-1.288 4.305v-11.415h1.875v11.415h-1.875zm12.787.163c-.761 0-1.451-.179-2.071-.538a4.21 4.21 0 0 1-1.484-1.484c-.359-.619-.538-1.31-.538-2.071s.179-1.446.538-2.055c.37-.609.864-1.092 1.484-1.451.62-.37 1.31-.555 2.071-.555.772 0 1.468.18 2.087.539a3.96 3.96 0 0 1 1.468 1.467c.37.609.554 1.294.554 2.055s-.185 1.452-.554 2.071a4.08 4.08 0 0 1-1.468 1.484c-.62.359-1.315.538-2.087.538zm0-1.728c.446 0 .837-.098 1.174-.294.348-.206.614-.489.799-.848.196-.359.294-.766.294-1.223s-.098-.859-.294-1.207-.462-.619-.799-.815c-.337-.207-.728-.31-1.174-.31-.435 0-.826.103-1.174.31-.337.196-.603.467-.799.815-.185.348-.277.75-.277 1.207s.092.864.277 1.223c.196.359.462.642.799.848a2.35 2.35 0 0 0 1.174.294zm8.162 1.728a4.78 4.78 0 0 1-1.256-.163c-.402-.119-.772-.282-1.109-.489a3.77 3.77 0 0 1-.881-.783l1.142-1.141c.272.315.582.554.93.717.359.152.761.229 1.207.229.402 0 .707-.06.913-.18s.31-.293.31-.522c0-.239-.098-.424-.294-.554s-.451-.239-.766-.326l-.979-.294c-.337-.098-.663-.228-.978-.391a2.21 2.21 0 0 1-.75-.701c-.196-.294-.294-.675-.294-1.142 0-.5.114-.93.343-1.288.239-.359.571-.636.995-.832.435-.196.951-.294 1.549-.294.631 0 1.185.115 1.663.343.489.217.897.549 1.223.995l-1.142 1.141a2.29 2.29 0 0 0-.783-.636c-.294-.141-.631-.212-1.011-.212-.359 0-.636.055-.832.163s-.294.267-.294.473c0 .218.098.386.294.506s.446.223.75.31l.978.293a3.92 3.92 0 0 1 .979.424c.315.174.571.413.767.718.196.293.294.679.294 1.158 0 .761-.266 1.364-.799 1.81s-1.256.668-2.169.668zm5.637-.163v-11.089h1.794v11.089h-1.794zm-1.875-6.197v-1.63h5.545v1.63h-5.545zm11.825 6.197v-11.415h1.843v11.415h-1.843zm-2.283-9.736v-1.679h3.963v1.679h-3.963z" class="G"/><circle cx="87.192" cy="361.228" r="10.491" class="H"/><path d="M83.415 364.727v-7.281h.976v7.281h-.976zm-1.49-6.399v-.882h2.36v.882h-2.36zm6.774 6.504c-.546 0-1.046-.154-1.5-.462-.448-.307-.804-.741-1.07-1.301-.266-.566-.399-1.23-.399-1.993s.129-1.423.388-1.983c.266-.559.623-.989 1.07-1.29.448-.308.941-.462 1.479-.462.553 0 1.053.154 1.5.462.448.301.801.731 1.06 1.29.266.56.399 1.224.399 1.994 0 .762-.133 1.426-.399 1.993-.259.559-.612.993-1.06 1.301-.441.301-.93.451-1.469.451zm-.021-.934c.385 0 .72-.105 1.007-.314.294-.217.525-.536.692-.955s.252-.937.252-1.553-.084-1.129-.252-1.542c-.168-.42-.399-.734-.692-.944-.294-.217-.633-.325-1.018-.325a1.65 1.65 0 0 0-1.007.325c-.294.21-.525.524-.692.944-.161.413-.241.927-.241 1.542s.08 1.133.241 1.553c.168.419.399.738.692.955a1.71 1.71 0 0 0 1.018.314z" class="E"/><circle cx="16.635" cy="413.656" r="2.912" class="F"/><path d="M30.229 415.851v-1.631h2.854c.391 0 .734-.076 1.027-.228.304-.163.544-.386.718-.669.174-.293.261-.636.261-1.027s-.087-.729-.261-1.011a1.7 1.7 0 0 0-.718-.669c-.294-.163-.636-.244-1.027-.244h-2.854v-1.631h2.952c.718 0 1.359.146 1.924.44.576.294 1.027.707 1.354 1.239.337.533.506 1.158.506 1.876s-.169 1.343-.506 1.875c-.326.533-.777.946-1.354 1.24-.565.293-1.207.44-1.924.44h-2.952zm-1.288 4.305v-11.415h1.875v11.415h-1.875zm12.787.163c-.761 0-1.451-.179-2.071-.538a4.21 4.21 0 0 1-1.484-1.484c-.359-.62-.538-1.31-.538-2.071s.179-1.446.538-2.055c.37-.609.864-1.092 1.484-1.451.62-.37 1.31-.555 2.071-.555.772 0 1.468.18 2.087.539a3.96 3.96 0 0 1 1.468 1.467c.37.609.555 1.294.555 2.055s-.185 1.451-.555 2.071a4.08 4.08 0 0 1-1.468 1.484c-.62.359-1.315.538-2.087.538zm0-1.728c.446 0 .837-.098 1.174-.294.348-.206.614-.489.799-.848.196-.359.294-.766.294-1.223s-.098-.859-.294-1.207-.462-.619-.799-.815c-.337-.207-.728-.31-1.174-.31a2.25 2.25 0 0 0-1.174.31c-.337.196-.603.467-.799.815-.185.348-.277.75-.277 1.207a2.63 2.63 0 0 0 .277 1.223c.196.359.462.642.799.848a2.35 2.35 0 0 0 1.174.294zm8.162 1.728a4.78 4.78 0 0 1-1.256-.163c-.402-.119-.772-.282-1.109-.489a3.77 3.77 0 0 1-.881-.783l1.142-1.141c.272.315.582.554.93.717.359.152.761.229 1.207.229.402 0 .707-.06.913-.18s.31-.293.31-.522c0-.239-.098-.424-.294-.554s-.451-.239-.767-.326l-.978-.294a5.42 5.42 0 0 1-.978-.391 2.21 2.21 0 0 1-.75-.701c-.196-.294-.293-.675-.293-1.142 0-.5.114-.93.343-1.288.239-.359.571-.636.995-.832.435-.196.951-.294 1.549-.294.631 0 1.185.115 1.663.343.489.217.897.549 1.223.995l-1.142 1.141a2.29 2.29 0 0 0-.783-.636c-.294-.141-.631-.212-1.011-.212-.359 0-.636.055-.832.163s-.294.267-.294.473c0 .218.098.386.294.506s.446.223.75.31l.978.293a3.92 3.92 0 0 1 .979.424c.315.174.571.413.766.718.196.293.294.679.294 1.158 0 .761-.266 1.364-.799 1.81s-1.256.668-2.169.668zm5.638-.163v-11.089h1.794v11.089h-1.794zm-1.875-6.197v-1.631h5.545v1.631h-5.545zm9.575 5.088l4.207-4.468.848-.995c.217-.293.375-.571.473-.832s.147-.527.147-.799c0-.511-.169-.907-.506-1.19-.326-.294-.745-.44-1.256-.44-.544 0-1.022.135-1.435.407s-.783.696-1.109 1.272l-1.305-1.076c.446-.772.995-1.354 1.647-1.745.652-.402 1.408-.603 2.267-.603.707 0 1.326.141 1.859.424s.946.679 1.239 1.19c.294.5.44 1.082.44 1.745 0 .478-.06.908-.179 1.288-.109.37-.299.745-.571 1.126-.272.369-.647.804-1.125 1.304l-3.229 3.343-2.414.049zm0 1.109v-1.109l1.614-.57h6.132v1.679h-7.746z" class="G"/><circle cx="89.181" cy="413.647" r="10.491" class="H"/><path d="M85.404 417.146v-7.281h.976v7.281h-.976zm-1.49-6.4v-.881h2.361v.881h-2.361zm6.774 6.504c-.545 0-1.046-.153-1.5-.461-.448-.308-.804-.742-1.07-1.301-.266-.567-.399-1.231-.399-1.993s.129-1.424.388-1.983c.266-.56.623-.99 1.07-1.291a2.56 2.56 0 0 1 1.479-.461 2.59 2.59 0 0 1 1.5.461c.448.301.801.731 1.06 1.291.266.559.399 1.224.399 1.993 0 .762-.133 1.427-.399 1.993-.259.56-.612.994-1.06 1.301-.441.301-.93.451-1.469.451zm-.021-.933c.385 0 .72-.105 1.007-.315.294-.217.524-.535.692-.955s.252-.937.252-1.552-.084-1.13-.252-1.543c-.168-.419-.399-.734-.692-.944-.294-.217-.633-.325-1.018-.325a1.65 1.65 0 0 0-1.007.325c-.294.21-.525.525-.692.944-.161.413-.241.927-.241 1.543s.08 1.133.241 1.552c.168.42.399.738.692.955.294.21.633.315 1.018.315z" class="E"/><path d="M4.568 290.165H252" class="Q R"/><rect x="1513.5" y="4.5" width="80" height="32" rx="9.5" class="S"/><path d="M1522.61 24.928l4.07-4.321.82-.962c.21-.284.36-.552.45-.804a2.08 2.08 0 0 0 .15-.773c0-.494-.17-.878-.49-1.151-.32-.284-.72-.426-1.22-.426-.52 0-.99.131-1.39.394-.39.263-.75.673-1.07 1.23l-1.26-1.041c.43-.746.96-1.309 1.59-1.687.63-.389 1.37-.583 2.2-.583.68 0 1.28.137 1.79.41.52.273.92.657 1.2 1.151.29.483.43 1.046.43 1.687 0 .462-.06.878-.18 1.246-.1.357-.29.72-.55 1.088a12 12 0 0 1-1.09 1.261l-3.12 3.233-2.33.047zm0 1.072v-1.072l1.56-.552h5.93V26h-7.49zm13.28.158c-.84 0-1.6-.231-2.29-.694-.68-.473-1.23-1.135-1.64-1.987s-.62-1.855-.62-3.012.2-2.155.6-2.996c.41-.852.96-1.508 1.64-1.971.69-.463 1.44-.694 2.27-.694.84 0 1.61.231 2.29.694s1.22 1.12 1.62 1.971c.41.841.62 1.845.62 3.012 0 1.156-.21 2.16-.62 3.012-.4.851-.94 1.509-1.62 1.971a3.87 3.87 0 0 1-2.25.694zm-.04-1.703c.55 0 1.02-.147 1.42-.441s.71-.736.93-1.325c.23-.589.35-1.33.35-2.223 0-.883-.12-1.619-.35-2.207-.22-.589-.53-1.025-.94-1.309-.4-.294-.87-.442-1.41-.442-.53 0-1.01.147-1.42.442-.39.284-.71.72-.93 1.309-.22.578-.33 1.314-.33 2.207s.11 1.635.33 2.223.54 1.03.93 1.325c.41.294.89.441 1.42.441zm5.62.473l4.07-4.321c.34-.357.61-.678.82-.962s.36-.552.46-.804a2.29 2.29 0 0 0 .14-.773c0-.494-.16-.878-.49-1.151-.32-.284-.72-.426-1.21-.426-.53 0-.99.131-1.39.394s-.76.673-1.07 1.23l-1.27-1.041c.44-.746.97-1.309 1.6-1.687.63-.389 1.36-.583 2.19-.583.68 0 1.28.137 1.8.41.51.273.91.657 1.19 1.151.29.483.43 1.046.43 1.687a4.34 4.34 0 0 1-.17 1.246c-.11.357-.29.72-.55 1.088-.27.357-.63.778-1.09 1.261l-3.12 3.233-2.34.047zm0 1.072v-1.072l1.56-.552h5.93V26h-7.49zm8.53-3.942l3.93-7.096h2.05l-4.02 7.096H1550zm0 1.104v-1.104l.77-.52h7.79v1.624H1550zm5.24 2.838v-7.222h1.78V26h-1.78z" class="T"/><path d="M1572.5 18l5 6.5 4.5-6.5" stroke="#b4b4b4" stroke-width="2" class="B"/><rect x="1604.5" y="4.5" width="69" height="32" rx="9.5" class="S"/><path d="M1624.68 26.158c-.64 0-1.22-.126-1.72-.378a3.39 3.39 0 0 1-1.2-1.041l1.28-1.167c.18.273.4.484.68.631a1.84 1.84 0 0 0 .89.221c.36 0 .67-.074.92-.221a1.44 1.44 0 0 0 .58-.631c.14-.273.21-.599.21-.978v-7.632h1.81v7.49c0 .736-.15 1.382-.44 1.939a3.15 3.15 0 0 1-1.2 1.309c-.51.305-1.12.457-1.81.457zm8.58 0c-.64 0-1.22-.142-1.72-.426s-.88-.673-1.17-1.167c-.27-.505-.41-1.083-.41-1.735v-4.399h1.74v4.32c0 .368.05.683.17.946.13.252.3.447.54.583s.52.205.85.205c.5 0 .89-.147 1.15-.442.27-.305.41-.736.41-1.293v-4.32h1.73v4.399c0 .662-.14 1.246-.42 1.75-.28.494-.66.883-1.15 1.167-.5.273-1.07.41-1.72.41zm5.04-.158V14.647h1.73V26h-1.73z" class="T"/><path d="M1652 18l5 6.5 4.5-6.5" stroke="#b4b4b4" stroke-width="2" class="B"/><rect x="1684.5" y="4.5" width="138" height="32" rx="9.5" class="S"/><path d="M1700.5 4.5h59v32h-59c-3.05 0-5.3-.001-7.07-.157s-3.02-.465-4.07-1.054c-1.53-.856-2.79-2.118-3.65-3.647-.59-1.051-.9-2.3-1.05-4.069-.16-1.776-.16-4.027-.16-7.073l.16-7.073c.15-1.769.46-3.018 1.05-4.069.86-1.529 2.12-2.791 3.65-3.647 1.05-.589 2.3-.897 4.07-1.054s4.02-.157 7.07-.157z" stroke="#5700fa"/><path d="M1700.8 26V14.962h1.26l4.59 7.553h-.82l4.59-7.553h1.26V26h-1.81v-7.852l.41.11-3.41 5.598h-1.26l-3.4-5.598.41-.11V26h-1.82zm16.51.158c-.74 0-1.4-.173-2-.52-.6-.357-1.08-.836-1.44-1.435-.34-.599-.52-1.267-.52-2.003s.18-1.398.52-1.987a4.02 4.02 0 0 1 1.44-1.403c.6-.357 1.26-.536 2-.536.75 0 1.42.174 2.02.52a3.85 3.85 0 0 1 1.42 1.419c.35.589.53 1.251.53 1.987a3.9 3.9 0 0 1-.53 2.003 3.97 3.97 0 0 1-1.42 1.435c-.6.347-1.27.52-2.02.52zm0-1.671c.43 0 .81-.095 1.13-.284.34-.2.6-.473.78-.82.19-.347.28-.741.28-1.183s-.09-.831-.28-1.167a2.06 2.06 0 0 0-.78-.788c-.32-.2-.7-.299-1.13-.299a2.21 2.21 0 0 0-1.14.299c-.32.189-.58.452-.77.788-.18.336-.27.725-.27 1.167a2.53 2.53 0 0 0 .27 1.183c.19.347.45.62.77.82.34.189.72.284 1.14.284zm10.6 1.514v-4.368c0-.505-.16-.92-.49-1.246-.31-.326-.72-.489-1.23-.489-.33 0-.63.074-.89.221-.27.147-.47.352-.62.615s-.22.562-.22.899l-.68-.378c0-.578.13-1.088.38-1.529a2.71 2.71 0 0 1 1.04-1.056c.45-.263.96-.394 1.51-.394.57 0 1.08.147 1.52.442.44.284.79.657 1.04 1.12.25.452.38.925.38 1.419V26h-1.74zm-5.18 0v-7.569h1.73V26h-1.73zm9.74 0V15.278h1.73V26h-1.73zm-1.81-5.992v-1.577h5.36v1.577h-5.36zm11.8 5.992v-4.368c0-.505-.16-.92-.48-1.246s-.73-.489-1.23-.489c-.34 0-.64.074-.9.221-.27.147-.47.352-.62.615-.14.263-.22.562-.22.899l-.68-.378c0-.578.13-1.088.38-1.529a2.71 2.71 0 0 1 1.04-1.056c.45-.263.96-.394 1.52-.394s1.07.126 1.51.379a2.71 2.71 0 0 1 1.04 1.056c.25.441.38.957.38 1.545V26h-1.74zm-5.18 0V14.647h1.73V26h-1.73z" fill="#5700fa"/><path d="M1780.1 21.585l-4.31-6.623h2.1l3.36 5.282h-.98l3.36-5.282h2.07l-4.34 6.623h-1.26zm-.25 4.415v-5.55h1.81V26h-1.81zm8.36.158c-.76 0-1.44-.168-2.05-.505-.6-.347-1.08-.82-1.43-1.419a3.93 3.93 0 0 1-.53-2.018c0-.746.18-1.414.53-2.003.34-.599.81-1.072 1.4-1.419.6-.347 1.26-.52 1.99-.52.7 0 1.32.163 1.86.489a3.4 3.4 0 0 1 1.27 1.34c.32.568.48 1.214.48 1.94a1.82 1.82 0 0 1-.04.394c-.01.126-.03.268-.06.426h-6.21v-1.419h5.31l-.64.568c-.02-.463-.11-.852-.27-1.167a1.72 1.72 0 0 0-.68-.725c-.28-.168-.64-.252-1.06-.252-.44 0-.82.095-1.15.284-.32.189-.58.457-.75.804-.18.336-.27.741-.27 1.214s.09.888.28 1.246a2.05 2.05 0 0 0 .81.836c.34.189.74.284 1.19.284.39 0 .75-.068 1.08-.205s.62-.336.85-.599l1.1 1.12a3.52 3.52 0 0 1-1.34.978 4.24 4.24 0 0 1-1.67.331zm8.08 0c-.69 0-1.31-.173-1.86-.52a3.75 3.75 0 0 1-1.31-1.403c-.32-.599-.48-1.267-.48-2.003 0-.746.16-1.414.48-2.003a3.72 3.72 0 0 1 1.31-1.419c.55-.357 1.17-.536 1.86-.536.57 0 1.08.126 1.53.379a2.74 2.74 0 0 1 1.07 1.009c.26.431.39.92.39 1.467v2.176c0 .547-.13 1.035-.39 1.466-.25.431-.61.773-1.06 1.025-.45.242-.97.363-1.54.363zm.28-1.64c.64 0 1.16-.216 1.55-.646s.59-.983.59-1.656c0-.452-.08-.851-.26-1.198s-.43-.615-.76-.804c-.32-.2-.69-.3-1.12-.3-.42 0-.79.1-1.12.3-.31.189-.57.457-.76.804-.18.347-.26.746-.26 1.198s.08.851.26 1.198a2.25 2.25 0 0 0 .76.82c.33.189.7.284 1.12.284zM1798.6 26v-2.034l.3-1.845-.3-1.829v-1.861h1.74V26h-1.74zm3.66 0v-7.569h1.74V26h-1.74zm1.74-4.21l-.6-.3c0-.957.21-1.729.63-2.318.43-.599 1.08-.899 1.94-.899.38 0 .72.068 1.02.205.31.137.59.357.86.662l-1.14 1.167c-.14-.147-.29-.252-.46-.315s-.36-.095-.58-.095c-.48 0-.88.152-1.2.457-.31.305-.47.783-.47 1.435z" class="T"/><path d="M513 477h246v193H513z" class="J U"/><path d="M733.129 503.462v-12.126h1.625v12.126h-1.625zm-2.481-10.658v-1.468h3.931v1.468h-3.931zm10.443 10.833c-.804 0-1.526-.187-2.167-.559-.629-.373-1.13-.874-1.502-1.503s-.56-1.328-.56-2.097c0-1.072.373-2.137 1.119-3.197l3.564-4.945h1.905l-3.652 4.98-.594.314a2.18 2.18 0 0 1 .506-.611 2.03 2.03 0 0 1 .734-.402c.292-.094.635-.14 1.031-.14.711 0 1.351.169 1.922.507.583.337 1.049.803 1.398 1.397.361.583.542 1.264.542 2.045 0 .769-.192 1.473-.577 2.114-.373.641-.885 1.153-1.537 1.538-.641.372-1.352.559-2.132.559zm0-1.538c.489 0 .926-.116 1.31-.349.396-.245.705-.565.926-.961.233-.408.35-.862.35-1.363s-.117-.95-.35-1.346a2.45 2.45 0 0 0-.926-.961c-.384-.233-.821-.349-1.31-.349a2.57 2.57 0 0 0-1.328.349 2.63 2.63 0 0 0-.926.961c-.221.396-.332.845-.332 1.346s.111.955.332 1.363a2.63 2.63 0 0 0 .926.961 2.57 2.57 0 0 0 1.328.349z" class="V"/><rect x="520.47" y="493.47" width="114.06" height="26.06" rx="4.189" class="K L"/><path d="M532.443 510.704l3.249-7.898h.903l3.227 7.898h-1.399l-2.528-6.398h.474l-2.55 6.398h-1.376zm1.602-1.523v-1.129h4.186v1.129h-4.186zm8.686 1.636a2.47 2.47 0 0 1-1.331-.372c-.391-.249-.703-.583-.937-1.005-.225-.428-.338-.906-.338-1.433 0-.534.113-1.011.338-1.433.234-.428.546-.767.937-1.015a2.41 2.41 0 0 1 1.331-.384c.414 0 .779.09 1.095.271.323.173.579.414.767.722s.282.658.282 1.049v1.558c0 .391-.094.741-.282 1.049a1.96 1.96 0 0 1-.756.733c-.323.173-.692.26-1.106.26zm.203-1.174c.309 0 .576-.067.802-.203.233-.143.413-.338.541-.586a1.85 1.85 0 0 0 .192-.858 1.85 1.85 0 0 0-.192-.858 1.38 1.38 0 0 0-.541-.575c-.226-.143-.493-.214-.802-.214-.3 0-.568.071-.801.214a1.48 1.48 0 0 0-.541.575 1.85 1.85 0 0 0-.192.858 1.85 1.85 0 0 0 .192.858 1.57 1.57 0 0 0 .541.586c.233.136.501.203.801.203zm2.697 1.061h-1.241v-1.455l.214-1.321-.214-1.309v-4.039h1.241v8.124zm3.646.113c-.489 0-.933-.124-1.332-.372-.391-.249-.703-.583-.936-1.005-.226-.428-.339-.906-.339-1.433 0-.534.113-1.011.339-1.433.233-.428.545-.767.936-1.015.399-.256.843-.384 1.332-.384.413 0 .778.09 1.094.271.324.173.579.414.767.722s.283.658.283 1.049v1.558c0 .391-.094.741-.283 1.049a1.96 1.96 0 0 1-.756.733c-.323.173-.692.26-1.105.26zm.203-1.174c.308 0 .575-.067.801-.203a1.46 1.46 0 0 0 .542-.586c.127-.249.191-.535.191-.858s-.064-.609-.191-.858a1.38 1.38 0 0 0-.542-.575c-.226-.143-.493-.214-.801-.214a1.5 1.5 0 0 0-.801.214c-.226.135-.407.327-.542.575a1.85 1.85 0 0 0-.192.858 1.85 1.85 0 0 0 .192.858c.135.248.316.443.542.586.233.136.5.203.801.203zm2.697 1.061h-1.242v-1.455l.215-1.321-.215-1.309v-4.039h1.242v8.124zm6.006.113c-.625 0-1.155-.113-1.591-.339s-.828-.556-1.174-.993l.88-.88c.218.316.478.565.779.745.301.173.684.26 1.151.26.436 0 .782-.091 1.038-.271.263-.181.395-.429.395-.745 0-.263-.068-.478-.203-.643s-.316-.301-.542-.406a4.41 4.41 0 0 0-.733-.294l-.802-.293a3.7 3.7 0 0 1-.733-.418c-.218-.165-.395-.379-.53-.643s-.203-.598-.203-1.004c0-.466.112-.861.338-1.185a2.21 2.21 0 0 1 .937-.756c.391-.173.827-.259 1.308-.259a3.06 3.06 0 0 1 1.388.304 2.94 2.94 0 0 1 1.005.779l-.881.88c-.225-.256-.462-.444-.71-.564-.241-.128-.519-.192-.835-.192-.392 0-.7.079-.926.237-.218.158-.327.38-.327.666 0 .24.068.436.203.587.136.142.312.267.531.372l.733.282.801.305c.271.112.515.259.734.44a1.86 1.86 0 0 1 .541.677c.136.278.203.628.203 1.049 0 .707-.252 1.268-.756 1.681-.496.414-1.169.621-2.019.621zm6.327 0a2.89 2.89 0 0 1-1.455-.372 2.75 2.75 0 0 1-1.016-1.016 2.81 2.81 0 0 1-.372-1.433 2.77 2.77 0 0 1 .372-1.433 2.75 2.75 0 0 1 1.016-1.016 2.89 2.89 0 0 1 1.455-.372 2.79 2.79 0 0 1 1.174.248 2.5 2.5 0 0 1 .936.689l-.812.823a1.44 1.44 0 0 0-.575-.417c-.219-.098-.459-.147-.723-.147-.308 0-.583.072-.823.215a1.47 1.47 0 0 0-.553.564c-.128.24-.192.523-.192.846 0 .316.064.598.192.846a1.56 1.56 0 0 0 .553.576c.24.135.515.203.823.203.264 0 .504-.045.723-.136.225-.097.417-.24.575-.428l.812.823c-.255.301-.567.534-.936.7-.361.158-.752.237-1.174.237zm6.718-.113v-3.125c0-.362-.117-.659-.35-.892-.226-.233-.519-.35-.88-.35-.241 0-.455.053-.643.158a1.13 1.13 0 0 0-.441.44 1.3 1.3 0 0 0-.157.644l-.486-.271c0-.414.091-.779.271-1.095.181-.323.429-.575.745-.756.323-.188.684-.282 1.083-.282a2.14 2.14 0 0 1 1.083.271 1.94 1.94 0 0 1 .745.756c.181.316.271.684.271 1.106v3.396h-1.241zm-3.713 0v-8.124h1.242v8.124h-1.242zm8.731.113c-.541 0-1.03-.12-1.467-.361-.428-.248-.771-.587-1.026-1.016a2.82 2.82 0 0 1-.373-1.444c0-.534.124-1.012.373-1.433a2.77 2.77 0 0 1 1.004-1.016 2.79 2.79 0 0 1 1.422-.372c.504 0 .947.117 1.331.35.391.233.696.553.914.959.226.406.339.869.339 1.388 0 .09-.008.184-.023.282a2.75 2.75 0 0 1-.045.305h-4.446v-1.016h3.803l-.463.406c-.015-.331-.079-.609-.192-.835s-.274-.398-.485-.519c-.203-.12-.455-.18-.756-.18-.316 0-.59.067-.824.203a1.38 1.38 0 0 0-.541.575c-.128.241-.192.531-.192.869s.068.636.203.892a1.47 1.47 0 0 0 .576.598c.248.135.534.203.857.203a1.96 1.96 0 0 0 .767-.147 1.61 1.61 0 0 0 .61-.429l.79.801a2.53 2.53 0 0 1-.96.7c-.376.158-.774.237-1.196.237zm5.78 0c-.489 0-.933-.124-1.332-.372-.391-.249-.703-.583-.936-1.005-.226-.428-.339-.906-.339-1.433 0-.534.113-1.011.339-1.433.233-.428.545-.767.936-1.015.399-.256.843-.384 1.332-.384.413 0 .778.09 1.094.271.324.173.579.414.767.722s.282.658.282 1.049v1.558c0 .391-.094.741-.282 1.049a1.96 1.96 0 0 1-.756.733c-.323.173-.692.26-1.105.26zm.203-1.174c.308 0 .575-.067.801-.203a1.45 1.45 0 0 0 .541-.586 1.85 1.85 0 0 0 .192-.858 1.85 1.85 0 0 0-.192-.858c-.127-.248-.308-.44-.541-.575-.226-.143-.493-.214-.801-.214a1.5 1.5 0 0 0-.801.214c-.226.135-.407.327-.542.575a1.85 1.85 0 0 0-.192.858 1.85 1.85 0 0 0 .192.858c.135.248.316.443.542.586.233.136.5.203.801.203zm2.696 1.061h-1.241v-1.455l.215-1.321-.215-1.309v-4.039h1.241v8.124zm3.601.113c-.459 0-.869-.102-1.23-.305-.354-.203-.632-.481-.835-.835-.196-.361-.293-.775-.293-1.241v-3.148h1.241v3.092a1.67 1.67 0 0 0 .124.677.98.98 0 0 0 .384.417c.173.098.376.147.609.147.361 0 .635-.105.824-.316.195-.218.293-.527.293-.925v-3.092h1.241v3.148c0 .474-.101.892-.305 1.253a2.15 2.15 0 0 1-.823.835c-.354.195-.764.293-1.23.293zm3.606-.113v-8.124h1.241v8.124h-1.241zm5.139.113a2.98 2.98 0 0 1-1.467-.361c-.429-.248-.771-.587-1.027-1.016-.248-.428-.372-.91-.372-1.444a2.77 2.77 0 0 1 1.376-2.449 2.79 2.79 0 0 1 1.422-.372c.504 0 .948.117 1.332.35.391.233.695.553.914.959.225.406.338.869.338 1.388a1.86 1.86 0 0 1-.022.282c-.008.09-.023.192-.046.305h-4.445v-1.016h3.802l-.462.406c-.015-.331-.079-.609-.192-.835a1.21 1.21 0 0 0-.485-.519c-.203-.12-.455-.18-.756-.18-.316 0-.591.067-.824.203a1.38 1.38 0 0 0-.542.575c-.128.241-.192.531-.192.869s.068.636.204.892a1.47 1.47 0 0 0 .575.598c.248.135.534.203.858.203a1.96 1.96 0 0 0 .767-.147 1.6 1.6 0 0 0 .609-.429l.79.801c-.263.309-.583.542-.959.7s-.775.237-1.196.237z" class="M"/><g clip-path="url(#B)" class="N O P"><path d="M611.121 501.246a.32.32 0 0 1 .115-.119c.048-.028.103-.043.159-.043s.111.015.159.043a.32.32 0 0 1 .115.119l1.845 3.502c.044.081.105.152.179.206a.63.63 0 0 0 .524.102.62.62 0 0 0 .244-.124l2.673-2.29c.052-.042.115-.066.181-.07s.131.014.187.05.098.089.121.151a.31.31 0 0 1 .01.193l-1.771 6.404c-.036.131-.114.247-.222.33a.63.63 0 0 1-.376.129h-7.738c-.136-.001-.268-.046-.376-.129s-.186-.199-.222-.33l-1.771-6.403a.31.31 0 0 1 .01-.193c.024-.062.066-.115.122-.151s.121-.053.187-.05.129.028.18.07l2.673 2.29a.62.62 0 0 0 .517.131c.09-.017.176-.055.25-.109s.136-.125.18-.206l1.845-3.503z"/><path d="M607.02 512.329h8.75" class="B"/></g><circle cx="523.396" cy="549.237" r="2.912" class="F"/><path d="M536.991 551.432v-1.631h2.853c.392 0 .734-.076 1.028-.228a1.85 1.85 0 0 0 .717-.669c.174-.293.261-.636.261-1.027s-.087-.729-.261-1.011a1.7 1.7 0 0 0-.717-.669c-.294-.163-.636-.244-1.028-.244h-2.853v-1.631h2.951c.718 0 1.359.147 1.925.44.576.294 1.027.707 1.353 1.239.337.533.506 1.158.506 1.876s-.169 1.343-.506 1.875c-.326.533-.777.946-1.353 1.24-.566.293-1.207.44-1.925.44h-2.951zm-1.289 4.305v-11.415h1.876v11.415h-1.876zm12.787.163c-.761 0-1.451-.179-2.071-.538a4.22 4.22 0 0 1-1.484-1.484c-.359-.619-.538-1.31-.538-2.071s.179-1.446.538-2.055c.37-.609.865-1.092 1.484-1.451.62-.37 1.31-.555 2.071-.555a4.09 4.09 0 0 1 2.088.539c.619.358 1.109.848 1.467 1.467.37.609.555 1.294.555 2.055a3.96 3.96 0 0 1-.555 2.071c-.358.62-.848 1.115-1.467 1.484-.62.359-1.316.538-2.088.538zm0-1.728c.446 0 .837-.098 1.175-.294a2.07 2.07 0 0 0 .799-.848c.195-.359.293-.766.293-1.223s-.098-.859-.293-1.207-.462-.619-.799-.815c-.338-.207-.729-.31-1.175-.31a2.25 2.25 0 0 0-1.174.31c-.337.196-.603.467-.799.815-.185.348-.277.75-.277 1.207s.092.864.277 1.223a2.22 2.22 0 0 0 .799.848 2.35 2.35 0 0 0 1.174.294zm8.162 1.728c-.435 0-.853-.054-1.256-.163-.402-.119-.772-.282-1.109-.489-.337-.217-.63-.478-.88-.783l1.141-1.141c.272.315.582.554.93.717.359.152.761.229 1.207.229.402 0 .706-.06.913-.18a.57.57 0 0 0 .31-.522c0-.239-.098-.424-.294-.554s-.451-.239-.766-.326l-.979-.294a5.41 5.41 0 0 1-.978-.391 2.2 2.2 0 0 1-.75-.701c-.196-.294-.294-.675-.294-1.142 0-.5.114-.93.343-1.288.239-.359.57-.636.994-.832.435-.196.952-.294 1.55-.294.63 0 1.185.115 1.663.343.489.217.897.549 1.223.995l-1.141 1.141c-.229-.282-.49-.494-.783-.636a2.31 2.31 0 0 0-1.011-.212c-.359 0-.636.055-.832.163s-.294.267-.294.473c0 .218.098.386.294.506s.446.223.75.31l.979.293a3.91 3.91 0 0 1 .978.424 2.11 2.11 0 0 1 .767.718c.195.293.293.679.293 1.158 0 .761-.266 1.364-.799 1.81s-1.256.668-2.169.668zm5.638-.163v-11.089h1.793v11.089h-1.793zm-1.876-6.197v-1.63h5.545v1.63h-5.545zm13.146 6.36c-.793 0-1.5-.136-2.12-.407-.619-.283-1.141-.691-1.565-1.223l1.272-1.272c.228.347.549.625.962.831.424.207.897.31 1.419.31.478 0 .897-.087 1.255-.261s.642-.424.848-.75.31-.712.31-1.158c0-.467-.103-.853-.31-1.158a1.78 1.78 0 0 0-.799-.701c-.326-.163-.679-.245-1.06-.245a4.33 4.33 0 0 0-1.174.147c-.337.098-.668.272-.995.522l.049-1.174a2.25 2.25 0 0 1 .604-.555 2.53 2.53 0 0 1 .799-.342c.304-.076.663-.114 1.076-.114.805 0 1.479.168 2.022.505.555.337.973.789 1.256 1.354.283.554.424 1.174.424 1.859 0 .739-.185 1.397-.554 1.973-.359.576-.859 1.033-1.501 1.37-.641.326-1.381.489-2.218.489zm-1.957-5.365l-1.027-1.027.506-5.186h1.712l-.587 5.398-.604.815zm-.195-4.534l-.326-1.679h6.115v1.679h-5.789z" class="G"/><circle cx="595.942" cy="549.228" r="10.491" class="H"/><path d="M592.165 552.727v-7.281h.976v7.281h-.976zm-1.489-6.399v-.882h2.36v.882h-2.36zm6.774 6.504a2.62 2.62 0 0 1-1.501-.462c-.447-.307-.804-.741-1.07-1.301-.266-.566-.398-1.23-.398-1.993s.129-1.423.388-1.983c.265-.559.622-.989 1.07-1.29a2.55 2.55 0 0 1 1.479-.462c.553 0 1.053.154 1.5.462.448.301.801.731 1.06 1.29.266.56.399 1.224.399 1.994 0 .762-.133 1.426-.399 1.993-.259.559-.612.993-1.06 1.301-.44.301-.93.451-1.468.451zm-.021-.934c.384 0 .72-.105 1.007-.314.293-.217.524-.536.692-.955s.252-.937.252-1.553-.084-1.129-.252-1.542c-.168-.42-.399-.734-.692-.944-.294-.217-.633-.325-1.018-.325a1.65 1.65 0 0 0-1.007.325c-.294.21-.525.524-.693.944-.16.413-.241.927-.241 1.542s.081 1.133.241 1.553c.168.419.399.738.693.955.294.209.633.314 1.018.314z" class="E"/><circle cx="523.396" cy="601.656" r="2.912" class="F"/><path d="M536.991 603.851v-1.631h2.853c.392 0 .734-.076 1.028-.228a1.85 1.85 0 0 0 .717-.669c.174-.293.261-.636.261-1.027s-.087-.729-.261-1.011a1.7 1.7 0 0 0-.717-.669c-.294-.163-.636-.244-1.028-.244h-2.853v-1.631h2.951c.718 0 1.359.146 1.925.44.576.294 1.027.707 1.353 1.239.337.533.506 1.158.506 1.876s-.169 1.343-.506 1.875c-.326.533-.777.946-1.353 1.24-.566.293-1.207.44-1.925.44h-2.951zm-1.289 4.305v-11.415h1.876v11.415h-1.876zm12.787.163c-.761 0-1.451-.179-2.071-.538a4.22 4.22 0 0 1-1.484-1.484c-.359-.62-.538-1.31-.538-2.071s.179-1.446.538-2.055c.37-.609.865-1.092 1.484-1.451.62-.37 1.31-.555 2.071-.555a4.09 4.09 0 0 1 2.088.539c.619.358 1.109.848 1.467 1.467.37.609.555 1.294.555 2.055s-.185 1.451-.555 2.071c-.358.62-.848 1.115-1.467 1.484-.62.359-1.316.538-2.088.538zm0-1.728c.446 0 .837-.098 1.175-.294a2.07 2.07 0 0 0 .799-.848c.195-.359.293-.766.293-1.223s-.098-.859-.293-1.207-.462-.619-.799-.815c-.338-.207-.729-.31-1.175-.31a2.25 2.25 0 0 0-1.174.31c-.337.196-.603.467-.799.815-.185.348-.277.75-.277 1.207s.092.864.277 1.223a2.22 2.22 0 0 0 .799.848 2.35 2.35 0 0 0 1.174.294zm8.162 1.728c-.435 0-.853-.054-1.256-.163-.402-.119-.772-.282-1.109-.489-.337-.217-.63-.478-.88-.783l1.141-1.141c.272.315.582.554.93.717.359.152.761.229 1.207.229.402 0 .706-.06.913-.18a.57.57 0 0 0 .31-.522c0-.239-.098-.424-.294-.554s-.451-.239-.766-.326l-.979-.294a5.41 5.41 0 0 1-.978-.391 2.2 2.2 0 0 1-.75-.701c-.196-.294-.294-.675-.294-1.142 0-.5.114-.93.343-1.288.239-.359.57-.636.994-.832.435-.196.952-.294 1.55-.294.63 0 1.185.115 1.663.343.489.217.897.549 1.223.995l-1.141 1.141c-.229-.282-.49-.494-.783-.636a2.31 2.31 0 0 0-1.011-.212c-.359 0-.636.055-.832.163s-.294.267-.294.473c0 .218.098.386.294.506s.446.223.75.31l.979.293a3.91 3.91 0 0 1 .978.424 2.11 2.11 0 0 1 .767.718c.195.293.293.679.293 1.158 0 .761-.266 1.364-.799 1.81s-1.256.668-2.169.668zm5.638-.163v-11.089h1.793v11.089h-1.793zm-1.876-6.197v-1.631h5.545v1.631h-5.545zm13.701 6.36c-.761 0-1.446-.174-2.055-.522-.609-.358-1.093-.837-1.451-1.435-.348-.598-.522-1.261-.522-1.989 0-1.044.364-2.098 1.092-3.164l3.115-4.468h2.169l-3.327 4.68-.685.408c.109-.25.245-.462.408-.636.174-.185.397-.326.669-.424.282-.098.63-.147 1.043-.147.664 0 1.262.158 1.794.473.544.304.979.734 1.305 1.288.326.544.489 1.185.489 1.925s-.179 1.413-.538 2.022a4 4 0 0 1-1.468 1.451c-.609.359-1.288.538-2.038.538zm0-1.761a2.12 2.12 0 0 0 1.109-.293 2.09 2.09 0 0 0 .766-.8c.196-.347.294-.733.294-1.157a2.23 2.23 0 0 0-.294-1.142 1.97 1.97 0 0 0-.766-.783 2.12 2.12 0 0 0-1.109-.293 2.12 2.12 0 0 0-1.109.293 2.09 2.09 0 0 0-.767.799c-.184.326-.277.702-.277 1.126s.093.81.277 1.157a2.09 2.09 0 0 0 .767.8 2.12 2.12 0 0 0 1.109.293z" class="G"/><circle cx="596.942" cy="601.647" r="10.491" class="H"/><path d="M593.165 605.146v-7.281h.976v7.281h-.976zm-1.489-6.4v-.881h2.36v.881h-2.36zm6.774 6.504a2.62 2.62 0 0 1-1.501-.461c-.447-.308-.804-.742-1.07-1.301-.266-.567-.398-1.231-.398-1.993s.129-1.424.388-1.983c.265-.56.622-.99 1.07-1.291a2.56 2.56 0 0 1 1.479-.461 2.59 2.59 0 0 1 1.5.461c.448.301.801.731 1.06 1.291.266.559.399 1.224.399 1.993 0 .762-.133 1.427-.399 1.993-.259.56-.612.994-1.06 1.301-.44.301-.93.451-1.468.451zm-.021-.933a1.66 1.66 0 0 0 1.007-.315c.293-.217.524-.535.692-.955s.252-.937.252-1.552-.084-1.13-.252-1.543c-.168-.419-.399-.734-.692-.944-.294-.217-.633-.325-1.018-.325a1.65 1.65 0 0 0-1.007.325c-.294.21-.525.525-.693.944-.16.413-.241.927-.241 1.543s.081 1.133.241 1.552c.168.42.399.738.693.955.294.21.633.315 1.018.315z" class="E"/><path d="M510 576.013H762.773" class="W X"/><path d="M510.582 478.165H763.937" class="Q R"/><path d="M1286 289h246v193h-246z" class="J U"/><path d="M1506.33 316.462v-12.126h1.63v12.126h-1.63zm-2.48-10.658v-1.468h3.93v1.468h-3.93zm6.09 9.662l4.48-4.718 1.06-1.205c.26-.35.44-.67.55-.961a2.56 2.56 0 0 0 .17-.909c0-.617-.2-1.101-.59-1.45-.4-.35-.91-.524-1.54-.524-.62 0-1.16.151-1.63.454-.46.291-.88.745-1.24 1.363l-1.15-.961c.48-.792 1.05-1.386 1.73-1.782.68-.408 1.46-.612 2.34-.612.75 0 1.39.146 1.94.437a3.09 3.09 0 0 1 1.29 1.223c.31.524.46 1.136.46 1.835a4.62 4.62 0 0 1-.19 1.345c-.12.396-.34.804-.65 1.223-.3.408-.73.897-1.28 1.468l-3.61 3.722-2.14.052zm0 .996v-.996l1.4-.472h6.75v1.468h-8.15z" class="V"/><rect x="1293.47" y="305.47" width="114.06" height="26.06" rx="4.189" class="K L"/><use xlink:href="#G" class="M"/><g clip-path="url(#C)" class="N O P"><use xlink:href="#H"/><path d="M1380.02 324.329h8.75" class="B"/></g><circle cx="1296.4" cy="361.237" r="2.912" class="F"/><path d="M1309.99 363.432v-1.631h2.85c.4 0 .74-.076 1.03-.228a1.79 1.79 0 0 0 .72-.669c.17-.293.26-.636.26-1.027s-.09-.729-.26-1.011c-.17-.294-.41-.517-.72-.669-.29-.163-.63-.244-1.03-.244h-2.85v-1.631h2.95c.72 0 1.36.147 1.93.44s1.02.707 1.35 1.239c.34.533.51 1.158.51 1.876s-.17 1.343-.51 1.875c-.33.533-.78.946-1.35 1.24s-1.21.44-1.93.44h-2.95zm-1.29 4.305v-11.415h1.88v11.415h-1.88zm12.79.163c-.76 0-1.45-.179-2.07-.538-.62-.369-1.12-.864-1.49-1.484-.35-.619-.53-1.31-.53-2.071s.18-1.446.53-2.055c.37-.609.87-1.092 1.49-1.451.62-.37 1.31-.555 2.07-.555.77 0 1.47.18 2.09.539s1.11.848 1.46 1.467c.37.609.56 1.294.56 2.055s-.19 1.452-.56 2.071a3.99 3.99 0 0 1-1.46 1.484c-.62.359-1.32.538-2.09.538zm0-1.728c.45 0 .84-.098 1.17-.294.35-.206.62-.489.8-.848.2-.359.3-.766.3-1.223s-.1-.859-.3-1.207c-.19-.348-.46-.619-.8-.815-.33-.207-.72-.31-1.17-.31-.44 0-.83.103-1.17.31-.34.196-.61.467-.8.815s-.28.75-.28 1.207a2.57 2.57 0 0 0 .28 1.223c.19.359.46.642.8.848a2.3 2.3 0 0 0 1.17.294zm8.16 1.728a4.75 4.75 0 0 1-1.25-.163c-.41-.119-.78-.282-1.11-.489-.34-.217-.63-.478-.88-.783l1.14-1.141c.27.315.58.554.93.717.36.152.76.229 1.2.229.41 0 .71-.06.92-.18a.58.58 0 0 0 .31-.522c0-.239-.1-.424-.3-.554-.19-.131-.45-.239-.76-.326l-.98-.294c-.34-.098-.66-.228-.98-.391a2.29 2.29 0 0 1-.75-.701c-.2-.294-.29-.675-.29-1.142 0-.5.11-.93.34-1.288a2.36 2.36 0 0 1 .99-.832c.44-.196.95-.294 1.55-.294.63 0 1.19.115 1.67.343.49.217.89.549 1.22.995l-1.14 1.141a2.27 2.27 0 0 0-.79-.636c-.29-.141-.63-.212-1.01-.212-.36 0-.63.055-.83.163-.19.109-.29.267-.29.473a.57.57 0 0 0 .29.506c.2.119.45.223.75.31l.98.293a3.99 3.99 0 0 1 .98.424c.31.174.57.413.77.718.19.293.29.679.29 1.158 0 .761-.27 1.364-.8 1.81s-1.26.668-2.17.668zm5.64-.163v-11.089h1.79v11.089h-1.79zm-1.88-6.197v-1.63h5.55v1.63h-5.55zm13.13 6.36c-.76 0-1.45-.136-2.07-.407a4.29 4.29 0 0 1-1.55-1.223l1.27-1.272c.23.347.55.625.97.831.41.207.86.31 1.35.31.47 0 .87-.087 1.21-.261.33-.174.6-.418.78-.734.2-.315.29-.679.29-1.092 0-.435-.09-.805-.29-1.109-.18-.305-.46-.538-.82-.701-.34-.174-.77-.261-1.27-.261-.19 0-.39.016-.6.049a2.64 2.64 0 0 0-.56.114l.84-1.077a4.67 4.67 0 0 1 .71-.212 3.09 3.09 0 0 1 .75-.097c.59 0 1.12.141 1.59.424s.85.679 1.12 1.19c.28.5.43 1.093.43 1.778 0 .739-.18 1.391-.53 1.957-.34.565-.83 1.005-1.45 1.32s-1.34.473-2.17.473zm-1.29-5.756v-1.109l3.05-3.555 2.25-.049-3.18 3.653-2.12 1.06zm-1.76-4.143v-1.679h7.06v1.109l-1.61.57h-5.45z" class="G"/><circle cx="1368.94" cy="361.228" r="10.491" class="H"/><use xlink:href="#I" class="E"/><circle cx="1296.4" cy="413.656" r="2.912" class="F"/><path d="M1309.99 415.851v-1.631h2.85c.4 0 .74-.076 1.03-.228a1.79 1.79 0 0 0 .72-.669c.17-.293.26-.636.26-1.027s-.09-.729-.26-1.011c-.17-.294-.41-.517-.72-.669-.29-.163-.63-.244-1.03-.244h-2.85v-1.631h2.95c.72 0 1.36.146 1.93.44s1.02.707 1.35 1.239c.34.533.51 1.158.51 1.876s-.17 1.343-.51 1.875c-.33.533-.78.946-1.35 1.24s-1.21.44-1.93.44h-2.95zm-1.29 4.305v-11.415h1.88v11.415h-1.88zm12.79.163c-.76 0-1.45-.179-2.07-.538-.62-.369-1.12-.864-1.49-1.484-.35-.62-.53-1.31-.53-2.071s.18-1.446.53-2.055c.37-.609.87-1.092 1.49-1.451.62-.37 1.31-.555 2.07-.555.77 0 1.47.18 2.09.539s1.11.848 1.46 1.467c.37.609.56 1.294.56 2.055s-.19 1.451-.56 2.071a3.99 3.99 0 0 1-1.46 1.484c-.62.359-1.32.538-2.09.538zm0-1.728c.45 0 .84-.098 1.17-.294.35-.206.62-.489.8-.848.2-.359.3-.766.3-1.223s-.1-.859-.3-1.207c-.19-.348-.46-.619-.8-.815-.33-.207-.72-.31-1.17-.31-.44 0-.83.103-1.17.31-.34.196-.61.467-.8.815s-.28.75-.28 1.207a2.57 2.57 0 0 0 .28 1.223c.19.359.46.642.8.848a2.3 2.3 0 0 0 1.17.294zm8.16 1.728a4.75 4.75 0 0 1-1.25-.163c-.41-.119-.78-.282-1.11-.489-.34-.217-.63-.478-.88-.783l1.14-1.141c.27.315.58.554.93.717.36.152.76.229 1.2.229.41 0 .71-.06.92-.18a.58.58 0 0 0 .31-.522c0-.239-.1-.424-.3-.554-.19-.131-.45-.239-.76-.326l-.98-.294c-.34-.098-.66-.228-.98-.391a2.29 2.29 0 0 1-.75-.701c-.2-.294-.29-.675-.29-1.142 0-.5.11-.93.34-1.288a2.36 2.36 0 0 1 .99-.832c.44-.196.95-.294 1.55-.294.63 0 1.19.115 1.67.343.49.217.89.549 1.22.995l-1.14 1.141a2.27 2.27 0 0 0-.79-.636c-.29-.141-.63-.212-1.01-.212-.36 0-.63.055-.83.163-.19.109-.29.267-.29.473a.57.57 0 0 0 .29.506c.2.119.45.223.75.31l.98.293a3.99 3.99 0 0 1 .98.424c.31.174.57.413.77.718.19.293.29.679.29 1.158 0 .761-.27 1.364-.8 1.81s-1.26.668-2.17.668zm5.64-.163v-11.089h1.79v11.089h-1.79zm-1.88-6.197v-1.631h5.55v1.631h-5.55zm9.58 2.12l4.06-7.338h2.12l-4.16 7.338h-2.02zm0 1.142v-1.142l.8-.538h8.05v1.68h-8.85zm5.41 2.935v-7.469h1.84v7.469h-1.84z" class="G"/><circle cx="1369.94" cy="413.647" r="10.491" class="H"/><use xlink:href="#J" class="E"/><path d="M1283 388.013h252.77" class="W X"/><path d="M1283.58 290.165h253.36" class="Q R"/><path d="M1282 665h246v193h-246z" class="J U"/><path d="M1497.98 690.466l4.48-4.718 1.06-1.205c.26-.35.44-.67.55-.961a2.56 2.56 0 0 0 .17-.909c0-.617-.2-1.101-.59-1.45-.4-.35-.91-.524-1.54-.524-.62 0-1.16.151-1.63.454-.46.291-.88.745-1.24 1.363l-1.15-.961c.48-.792 1.05-1.386 1.73-1.782.68-.408 1.46-.612 2.34-.612.75 0 1.39.146 1.94.437a3.09 3.09 0 0 1 1.29 1.223c.31.524.46 1.136.46 1.835a4.62 4.62 0 0 1-.19 1.345c-.12.396-.34.804-.65 1.223-.3.408-.73.897-1.28 1.468l-3.61 3.722-2.14.052zm0 .996v-.996l1.4-.472h6.75v1.468h-8.15zm13.81.175c-.81 0-1.53-.187-2.17-.559-.63-.373-1.13-.874-1.5-1.503s-.56-1.328-.56-2.097c0-1.072.37-2.137 1.12-3.197l3.56-4.945h1.91l-3.65 4.98-.6.314a2.16 2.16 0 0 1 .51-.611c.2-.175.44-.309.73-.402s.64-.14 1.03-.14c.71 0 1.35.169 1.93.507s1.04.803 1.39 1.397c.36.583.54 1.264.54 2.045 0 .769-.19 1.473-.57 2.114-.37.641-.89 1.153-1.54 1.538-.64.372-1.35.559-2.13.559zm0-1.538c.49 0 .92-.116 1.31-.349.4-.245.7-.565.93-.961.23-.408.34-.862.34-1.363s-.11-.95-.34-1.346c-.23-.407-.53-.728-.93-.961-.39-.233-.82-.349-1.31-.349s-.93.116-1.33.349a2.73 2.73 0 0 0-.93.961c-.22.396-.33.845-.33 1.346s.11.955.33 1.363a2.73 2.73 0 0 0 .93.961c.4.233.84.349 1.33.349z" class="V"/><rect x="1289.47" y="681.47" width="114.06" height="26.06" rx="4.189" class="K L"/><use xlink:href="#G" x="-4" y="376" class="M"/><g clip-path="url(#D)" class="N O P"><path d="M1380.12 689.246c.03-.049.07-.09.12-.119a.28.28 0 0 1 .15-.043c.06 0 .12.015.16.043.05.029.09.07.12.119l1.84 3.502c.05.081.11.152.18.206.08.055.16.092.25.11a.66.66 0 0 0 .28-.008.6.6 0 0 0 .24-.124l2.67-2.29c.06-.042.12-.066.18-.07.07-.003.14.014.19.05.06.037.1.089.12.151.03.062.03.13.01.193l-1.77 6.404a.58.58 0 0 1-.22.33.64.64 0 0 1-.38.129h-7.73a.63.63 0 0 1-.38-.129.58.58 0 0 1-.22-.33l-1.77-6.403c-.02-.064-.02-.132.01-.193a.27.27 0 0 1 .12-.151c.05-.036.12-.053.19-.05.06.004.12.028.18.07l2.67 2.29c.07.058.15.101.24.123s.19.026.28.008a.66.66 0 0 0 .25-.109.78.78 0 0 0 .18-.206l1.84-3.503z"/><path d="M1376.02 700.329h8.75" class="B"/></g><circle cx="1292.4" cy="737.237" r="2.912" class="F"/><path d="M1305.99 739.432v-1.631h2.85c.4 0 .74-.076 1.03-.228a1.79 1.79 0 0 0 .72-.669c.17-.293.26-.636.26-1.027s-.09-.729-.26-1.011c-.17-.294-.41-.517-.72-.669-.29-.163-.63-.244-1.03-.244h-2.85v-1.631h2.95c.72 0 1.36.147 1.93.44s1.02.707 1.35 1.239c.34.533.51 1.158.51 1.876s-.17 1.343-.51 1.875c-.33.533-.78.946-1.35 1.24s-1.21.44-1.93.44h-2.95zm-1.29 4.305v-11.415h1.88v11.415h-1.88zm12.79.163c-.76 0-1.45-.179-2.07-.538-.62-.369-1.12-.864-1.49-1.484-.35-.619-.53-1.31-.53-2.071s.18-1.446.53-2.055c.37-.609.87-1.092 1.49-1.451.62-.37 1.31-.555 2.07-.555.77 0 1.47.18 2.09.539s1.11.848 1.46 1.467c.37.609.56 1.294.56 2.055s-.19 1.452-.56 2.071a3.99 3.99 0 0 1-1.46 1.484c-.62.359-1.32.538-2.09.538zm0-1.728c.45 0 .84-.098 1.17-.294.35-.206.62-.489.8-.848.2-.359.3-.766.3-1.223s-.1-.859-.3-1.207c-.19-.348-.46-.619-.8-.815-.33-.207-.72-.31-1.17-.31-.44 0-.83.103-1.17.31-.34.196-.61.467-.8.815s-.28.75-.28 1.207a2.57 2.57 0 0 0 .28 1.223c.19.359.46.642.8.848a2.3 2.3 0 0 0 1.17.294zm8.16 1.728a4.75 4.75 0 0 1-1.25-.163c-.41-.119-.78-.282-1.11-.489-.34-.217-.63-.478-.88-.783l1.14-1.141c.27.315.58.554.93.717.36.152.76.229 1.2.229.41 0 .71-.06.92-.18a.58.58 0 0 0 .31-.522c0-.239-.1-.424-.3-.554-.19-.131-.45-.239-.76-.326l-.98-.294c-.34-.098-.66-.228-.98-.391a2.29 2.29 0 0 1-.75-.701c-.2-.294-.29-.675-.29-1.142 0-.5.11-.93.34-1.288a2.36 2.36 0 0 1 .99-.832c.44-.196.95-.294 1.55-.294.63 0 1.19.115 1.67.343.49.217.89.549 1.22.995l-1.14 1.141a2.27 2.27 0 0 0-.79-.636c-.29-.141-.63-.212-1.01-.212-.36 0-.63.055-.83.163-.19.109-.29.267-.29.473a.57.57 0 0 0 .29.506c.2.119.45.223.75.31l.98.293a3.99 3.99 0 0 1 .98.424c.31.174.57.413.77.718.19.293.29.679.29 1.158 0 .761-.27 1.364-.8 1.81s-1.26.668-2.17.668zm5.64-.163v-11.089h1.79v11.089h-1.79zm-1.88-6.197v-1.63h5.55v1.63h-5.55zm11.18 6.197l4.15-10.274h1.86l-4.06 10.274h-1.95zm-1.63-9.736v-1.679h7.64v1.141l-.8.538h-6.84z" class="G"/><circle cx="1364.94" cy="737.228" r="10.491" class="H"/><use xlink:href="#I" x="-4" y="376" class="E"/><circle cx="1292.4" cy="789.656" r="2.912" class="F"/><path d="M1305.99 791.851v-1.631h2.85c.4 0 .74-.076 1.03-.228a1.79 1.79 0 0 0 .72-.669c.17-.293.26-.636.26-1.027s-.09-.729-.26-1.011c-.17-.294-.41-.517-.72-.669-.29-.163-.63-.244-1.03-.244h-2.85v-1.631h2.95c.72 0 1.36.146 1.93.44s1.02.707 1.35 1.239c.34.533.51 1.158.51 1.876s-.17 1.343-.51 1.875c-.33.533-.78.946-1.35 1.24s-1.21.44-1.93.44h-2.95zm-1.29 4.305v-11.415h1.88v11.415h-1.88zm12.79.163c-.76 0-1.45-.179-2.07-.538-.62-.369-1.12-.864-1.49-1.484-.35-.62-.53-1.31-.53-2.071s.18-1.446.53-2.055c.37-.609.87-1.092 1.49-1.451.62-.37 1.31-.555 2.07-.555.77 0 1.47.18 2.09.539s1.11.848 1.46 1.467c.37.609.56 1.294.56 2.055s-.19 1.451-.56 2.071a3.99 3.99 0 0 1-1.46 1.484c-.62.359-1.32.538-2.09.538zm0-1.728c.45 0 .84-.098 1.17-.294.35-.206.62-.489.8-.848.2-.359.3-.766.3-1.223s-.1-.859-.3-1.207c-.19-.348-.46-.619-.8-.815-.33-.207-.72-.31-1.17-.31-.44 0-.83.103-1.17.31-.34.196-.61.467-.8.815s-.28.75-.28 1.207a2.57 2.57 0 0 0 .28 1.223c.19.359.46.642.8.848a2.3 2.3 0 0 0 1.17.294zm8.16 1.728a4.75 4.75 0 0 1-1.25-.163c-.41-.119-.78-.282-1.11-.489-.34-.217-.63-.478-.88-.783l1.14-1.141c.27.315.58.554.93.717.36.152.76.229 1.2.229.41 0 .71-.06.92-.18a.58.58 0 0 0 .31-.522c0-.239-.1-.424-.3-.554-.19-.131-.45-.239-.76-.326l-.98-.294c-.34-.098-.66-.228-.98-.391a2.29 2.29 0 0 1-.75-.701c-.2-.294-.29-.675-.29-1.142 0-.5.11-.93.34-1.288a2.36 2.36 0 0 1 .99-.832c.44-.196.95-.294 1.55-.294.63 0 1.19.115 1.67.343.49.217.89.549 1.22.995l-1.14 1.141a2.27 2.27 0 0 0-.79-.636c-.29-.141-.63-.212-1.01-.212-.36 0-.63.055-.83.163-.19.109-.29.267-.29.473a.57.57 0 0 0 .29.506c.2.119.45.223.75.31l.98.293a3.99 3.99 0 0 1 .98.424c.31.174.57.413.77.718.19.293.29.679.29 1.158 0 .761-.27 1.364-.8 1.81s-1.26.668-2.17.668zm5.64-.163v-11.089h1.79v11.089h-1.79zm-1.88-6.197v-1.631h5.55v1.631h-5.55zm13.59 6.36c-.78 0-1.46-.141-2.04-.424s-1.03-.674-1.35-1.174c-.32-.511-.48-1.087-.48-1.728 0-.511.1-.979.3-1.403.2-.435.5-.804.88-1.109.39-.304.85-.522 1.38-.652l-.04.522c-.44-.12-.81-.316-1.11-.587s-.52-.593-.67-.963a3.05 3.05 0 0 1-.23-1.157c0-.609.14-1.142.42-1.599a3.07 3.07 0 0 1 1.21-1.092c.51-.261 1.09-.392 1.73-.392.65 0 1.23.131 1.73.392.51.261.91.625 1.19 1.092.29.457.44.99.44 1.599a3.05 3.05 0 0 1-.23 1.157c-.15.37-.37.691-.67.963-.29.271-.66.467-1.11.587l-.05-.522c.55.13 1.01.348 1.39.652a2.9 2.9 0 0 1 .86 1.109c.21.424.31.892.31 1.403 0 .641-.15 1.217-.47 1.728-.31.5-.76.892-1.35 1.174-.58.283-1.26.424-2.04.424zm0-1.696c.4 0 .76-.081 1.06-.244a1.82 1.82 0 0 0 .73-.669 1.68 1.68 0 0 0 .28-.962c0-.37-.09-.69-.28-.962a1.82 1.82 0 0 0-.73-.669c-.3-.163-.66-.245-1.06-.245s-.76.082-1.08.245a1.96 1.96 0 0 0-.73.669c-.17.272-.26.592-.26.962 0 .359.09.679.26.962a1.96 1.96 0 0 0 .73.669c.32.163.68.244 1.08.244zm0-5.218c.48 0 .87-.152 1.17-.457.31-.304.46-.696.46-1.174s-.15-.864-.46-1.158c-.3-.304-.69-.456-1.17-.456-.47 0-.86.152-1.17.456-.31.294-.46.68-.46 1.158s.15.87.46 1.174.7.457 1.17.457z" class="G"/><circle cx="1365.94" cy="789.647" r="10.491" class="H"/><use xlink:href="#J" x="-4" y="376" class="E"/><path d="M1279 764.013h252.77" class="W X"/><path d="M1279.58 666.165h253.36" class="Q R"/><defs><clipPath id="A"><path transform="translate(97.377 311.204)" d="M0 0h15v15H0z" class="E"/></clipPath><clipPath id="B"><path transform="translate(603.895 499.204)" d="M0 0h15v15H0z" class="E"/></clipPath><clipPath id="C"><path transform="translate(1376.89 311.204)" d="M0 0h15v15H0z" class="E"/></clipPath><clipPath id="D"><path transform="translate(1372.89 687.204)" d="M0 0h15v15H0z" class="E"/></clipPath><path id="E" d="M4 290c2 .4 162.833.167 243 0"/><path id="F" d="M1028 290c2 .4 162.83.167 243 0"/><path id="G" d="M1305.44 322.704l3.25-7.898h.9l3.23 7.898h-1.4l-2.52-6.398h.47l-2.55 6.398h-1.38zm1.6-1.523v-1.129h4.19v1.129h-4.19zm8.69 1.636c-.49 0-.93-.124-1.33-.372-.39-.249-.7-.583-.94-1.005-.22-.428-.34-.906-.34-1.433 0-.534.12-1.011.34-1.433.24-.428.55-.767.94-1.015a2.41 2.41 0 0 1 1.33-.384c.42 0 .78.09 1.1.271a1.92 1.92 0 0 1 .76.722c.19.309.29.658.29 1.049v1.558a1.96 1.96 0 0 1-.29 1.049 1.97 1.97 0 0 1-.75.733c-.33.173-.69.26-1.11.26zm.2-1.174c.31 0 .58-.067.81-.203a1.49 1.49 0 0 0 .54-.586c.13-.249.19-.535.19-.858s-.06-.609-.19-.858a1.41 1.41 0 0 0-.54-.575c-.23-.143-.5-.214-.81-.214-.3 0-.56.071-.8.214-.22.135-.4.327-.54.575-.13.249-.19.535-.19.858s.06.609.19.858c.14.248.32.443.54.586.24.136.5.203.8.203zm2.7 1.061h-1.24v-1.455l.21-1.321-.21-1.309v-4.039h1.24v8.124zm3.65.113c-.49 0-.94-.124-1.33-.372a2.65 2.65 0 0 1-.94-1.005c-.23-.428-.34-.906-.34-1.433 0-.534.11-1.011.34-1.433.23-.428.54-.767.94-1.015.39-.256.84-.384 1.33-.384.41 0 .78.09 1.09.271.32.173.58.414.77.722s.28.658.28 1.049v1.558c0 .391-.09.741-.28 1.049a1.93 1.93 0 0 1-.76.733c-.32.173-.69.26-1.1.26zm.2-1.174a1.5 1.5 0 0 0 .8-.203 1.49 1.49 0 0 0 .54-.586c.13-.249.19-.535.19-.858s-.06-.609-.19-.858a1.41 1.41 0 0 0-.54-.575c-.22-.143-.49-.214-.8-.214-.3 0-.57.071-.8.214a1.41 1.41 0 0 0-.54.575c-.13.249-.19.535-.19.858s.06.609.19.858a1.49 1.49 0 0 0 .54.586 1.55 1.55 0 0 0 .8.203zm2.7 1.061h-1.24v-1.455l.21-1.321-.21-1.309v-4.039h1.24v8.124zm6 .113c-.62 0-1.15-.113-1.59-.339-.43-.225-.83-.556-1.17-.993l.88-.88c.22.316.48.565.78.745.3.173.68.26 1.15.26.43 0 .78-.091 1.04-.271a.86.86 0 0 0 .39-.745c0-.263-.07-.478-.2-.643-.14-.166-.32-.301-.54-.406-.22-.113-.47-.211-.74-.294l-.8-.293c-.26-.113-.51-.252-.73-.418a1.77 1.77 0 0 1-.53-.643c-.14-.263-.21-.598-.21-1.004 0-.466.12-.861.34-1.185.24-.331.55-.583.94-.756s.83-.259 1.31-.259a3.08 3.08 0 0 1 1.39.304c.41.204.74.463 1 .779l-.88.88c-.23-.256-.46-.444-.71-.564-.24-.128-.52-.192-.84-.192-.39 0-.69.079-.92.237-.22.158-.33.38-.33.666 0 .24.07.436.21.587.13.142.31.267.53.372l.73.282.8.305c.27.112.52.259.73.44a1.88 1.88 0 0 1 .55.677c.13.278.2.628.2 1.049 0 .707-.25 1.268-.76 1.681-.49.414-1.17.621-2.02.621zm6.33 0a2.93 2.93 0 0 1-1.46-.372 2.81 2.81 0 0 1-1.01-1.016c-.25-.429-.37-.906-.37-1.433a2.75 2.75 0 0 1 .37-1.433 2.81 2.81 0 0 1 1.01-1.016 2.93 2.93 0 0 1 1.46-.372c.42 0 .81.083 1.17.248.37.158.68.388.94.689l-.81.823c-.16-.188-.35-.327-.58-.417a1.75 1.75 0 0 0-.72-.147c-.31 0-.58.072-.82.215-.24.135-.42.323-.56.564-.12.24-.19.523-.19.846a1.92 1.92 0 0 0 .19.846c.14.241.32.433.56.576.24.135.51.203.82.203.26 0 .5-.045.72-.136a1.53 1.53 0 0 0 .58-.428l.81.823c-.26.301-.57.534-.94.7a2.88 2.88 0 0 1-1.17.237zm6.72-.113v-3.125c0-.362-.12-.659-.35-.892s-.52-.35-.88-.35a1.33 1.33 0 0 0-.65.158 1.22 1.22 0 0 0-.44.44 1.35 1.35 0 0 0-.15.644l-.49-.271c0-.414.09-.779.27-1.095.18-.323.43-.575.75-.756.32-.188.68-.282 1.08-.282.41 0 .77.09 1.08.271a1.92 1.92 0 0 1 .75.756c.18.316.27.684.27 1.106v3.396h-1.24zm-3.71 0v-8.124h1.24v8.124h-1.24zm8.73.113a2.98 2.98 0 0 1-1.47-.361c-.43-.248-.77-.587-1.03-1.016-.25-.428-.37-.91-.37-1.444a2.75 2.75 0 0 1 .37-1.433 2.81 2.81 0 0 1 1.01-1.016c.43-.248.9-.372 1.42-.372.5 0 .95.117 1.33.35a2.38 2.38 0 0 1 .91.959c.23.406.34.869.34 1.388 0 .09 0 .184-.02.282-.01.09-.02.192-.05.305h-4.44v-1.016h3.8l-.46.406c-.02-.331-.08-.609-.19-.835-.12-.225-.28-.398-.49-.519-.2-.12-.45-.18-.75-.18-.32 0-.59.067-.83.203a1.41 1.41 0 0 0-.54.575c-.13.241-.19.531-.19.869s.07.636.2.892c.14.255.33.455.58.598.25.135.53.203.86.203.27 0 .53-.049.76-.147.24-.098.45-.241.61-.429l.79.801c-.26.309-.58.542-.96.7a3.01 3.01 0 0 1-1.19.237zm5.78 0a2.5 2.5 0 0 1-1.34-.372c-.39-.249-.7-.583-.93-1.005-.23-.428-.34-.906-.34-1.433 0-.534.11-1.011.34-1.433a2.68 2.68 0 0 1 .93-1.015 2.44 2.44 0 0 1 1.34-.384c.41 0 .77.09 1.09.271.32.173.58.414.77.722s.28.658.28 1.049v1.558c0 .391-.09.741-.28 1.049-.18.308-.44.553-.76.733-.32.173-.69.26-1.1.26zm.2-1.174c.31 0 .57-.067.8-.203a1.49 1.49 0 0 0 .54-.586c.13-.249.19-.535.19-.858s-.06-.609-.19-.858a1.41 1.41 0 0 0-.54-.575c-.23-.143-.49-.214-.8-.214-.3 0-.57.071-.8.214a1.41 1.41 0 0 0-.54.575 1.83 1.83 0 0 0-.2.858 1.83 1.83 0 0 0 .2.858 1.49 1.49 0 0 0 .54.586 1.55 1.55 0 0 0 .8.203zm2.7 1.061h-1.25v-1.455l.22-1.321-.22-1.309v-4.039h1.25v8.124zm3.6.113a2.46 2.46 0 0 1-1.23-.305c-.36-.203-.64-.481-.84-.835-.19-.361-.29-.775-.29-1.241v-3.148h1.24v3.092c0 .263.04.489.12.677a.97.97 0 0 0 .39.417c.17.098.37.147.61.147.36 0 .63-.105.82-.316.2-.218.29-.527.29-.925v-3.092h1.24v3.148c0 .474-.1.892-.3 1.253a2.2 2.2 0 0 1-.82.835c-.36.195-.77.293-1.23.293zm3.6-.113v-8.124h1.24v8.124h-1.24zm5.14.113c-.54 0-1.03-.12-1.47-.361a2.83 2.83 0 0 1-1.02-1.016c-.25-.428-.38-.91-.38-1.444s.13-1.012.38-1.433c.25-.429.58-.767 1-1.016.43-.248.9-.372 1.42-.372.51 0 .95.117 1.33.35.4.233.7.553.92.959s.34.869.34 1.388a1.41 1.41 0 0 1-.03.282c0 .09-.02.192-.04.305h-4.45v-1.016h3.81l-.47.406c-.01-.331-.08-.609-.19-.835s-.27-.398-.48-.519-.46-.18-.76-.18c-.32 0-.59.067-.82.203a1.29 1.29 0 0 0-.54.575c-.13.241-.2.531-.2.869s.07.636.21.892c.13.255.32.455.57.598a1.79 1.79 0 0 0 .86.203c.28 0 .53-.049.77-.147a1.65 1.65 0 0 0 .61-.429l.79.801c-.27.309-.59.542-.96.7-.38.158-.78.237-1.2.237z"/><path id="H" d="M1384.12 313.246c.03-.049.07-.09.12-.119a.28.28 0 0 1 .15-.043c.06 0 .12.015.16.043.05.029.09.07.12.119l1.84 3.502c.05.081.11.152.18.206.08.055.16.092.25.11a.66.66 0 0 0 .28-.008.6.6 0 0 0 .24-.124l2.67-2.29c.06-.042.12-.066.18-.07.07-.003.14.014.19.05.06.037.1.089.12.151.03.062.03.13.01.193l-1.77 6.404a.58.58 0 0 1-.22.33.64.64 0 0 1-.38.129h-7.73a.63.63 0 0 1-.38-.129.58.58 0 0 1-.22-.33l-1.77-6.403c-.02-.064-.02-.132.01-.193a.27.27 0 0 1 .12-.151c.05-.036.12-.053.19-.05.06.004.12.028.18.07l2.67 2.29c.07.058.15.101.24.123s.19.026.28.008a.66.66 0 0 0 .25-.109.78.78 0 0 0 .18-.206l1.84-3.503z"/><path id="I" d="M1365.17 364.727v-7.281h.97v7.281h-.97zm-1.49-6.399v-.882h2.36v.882h-2.36zm6.77 6.504c-.55 0-1.05-.154-1.5-.462s-.81-.741-1.07-1.301c-.27-.566-.4-1.23-.4-1.993s.13-1.423.39-1.983.62-.989 1.07-1.29c.45-.308.94-.462 1.48-.462.55 0 1.05.154 1.5.462.45.301.8.731 1.06 1.29s.4 1.224.4 1.994c0 .762-.14 1.426-.4 1.993-.26.559-.61.993-1.06 1.301-.44.301-.93.451-1.47.451zm-.02-.934a1.69 1.69 0 0 0 1.01-.314c.29-.217.52-.536.69-.955s.25-.937.25-1.553-.08-1.129-.25-1.542c-.17-.42-.4-.734-.69-.944-.3-.217-.64-.325-1.02-.325s-.72.108-1.01.325c-.29.21-.52.524-.69.944-.16.413-.24.927-.24 1.542s.08 1.133.24 1.553c.17.419.4.738.69.955.29.209.63.314 1.02.314z"/><path id="J" d="M1366.17 417.146v-7.281h.97v7.281h-.97zm-1.49-6.4v-.881h2.36v.881h-2.36zm6.77 6.504c-.55 0-1.05-.153-1.5-.461s-.81-.742-1.07-1.301c-.27-.567-.4-1.231-.4-1.993s.13-1.424.39-1.983.62-.99 1.07-1.291c.45-.307.94-.461 1.48-.461.55 0 1.05.154 1.5.461.45.301.8.731 1.06 1.291s.4 1.224.4 1.993c0 .762-.14 1.427-.4 1.993-.26.56-.61.994-1.06 1.301-.44.301-.93.451-1.47.451zm-.02-.933c.38 0 .72-.105 1.01-.315.29-.217.52-.535.69-.955s.25-.937.25-1.552-.08-1.13-.25-1.543c-.17-.419-.4-.734-.69-.944-.3-.217-.64-.325-1.02-.325s-.72.108-1.01.325c-.29.21-.52.525-.69.944-.16.413-.24.927-.24 1.543s.08 1.133.24 1.552c.17.42.4.738.69.955.29.21.63.315 1.02.315z"/></defs></svg>